<svg id="sankey_svg" height="600" width="600" xmlns="http://www.w3.org/2000/svg" version="1.1"><title>Your Diagram Title</title><!-- Generated with SankeyMATIC on Sat Dec 29 2018 20:19:23 GMT+0800 (Singapore Standard Time)--><g><rect width="100%" height="100%" fill="rgb(255, 255, 255)"></rect><g transform="translate(12,12)"><g><path class="link" d="M10,426.1370344342937C288,426.1370344342937 288,480.7947997189036 566,480.7947997189036" style="fill: none; stroke-width: 35.2031; stroke: rgb(156, 39, 176); stroke-opacity: 0.4;"><title>FOE(O) &#8594; CCELIB(D):
121</title></path><path class="link" d="M10,98.58889669711874C288,98.58889669711874 288,87.82431482782836 566,87.82431482782836" style="fill: none; stroke-width: 30.8391; stroke: rgb(255, 235, 59); stroke-opacity: 0.4;"><title>MED(O) &#8594; SCI(D):
106</title></path><path class="link" d="M10,14.837666900913536C288,14.837666900913536 288,14.83766690091338 566,14.83766690091338" style="fill: none; stroke-width: 29.6753; stroke: rgb(63, 81, 181); stroke-opacity: 0.4;"><title>SCI(O) &#8594; MED(D):
102</title></path><path class="link" d="M10,494.90513000702737C288,494.90513000702737 288,354.7505270555164 566,354.7505270555164" style="fill: none; stroke-width: 26.766; stroke: rgb(96, 125, 139); stroke-opacity: 0.4;"><title>CCELIB(O) &#8594; FOE(D):
92</title></path><path class="link" d="M10,179.86718200983836C288,179.86718200983836 288,112.69922698524228 566,112.69922698524228" style="fill: none; stroke-width: 18.9108; stroke: rgb(139, 195, 74); stroke-opacity: 0.4;"><title>YIH(O) &#8594; SCI(D):
65</title></path><path class="link" d="M10,37.96697118763174C288,37.96697118763174 288,165.9023190442725 566,165.9023190442725" style="fill: none; stroke-width: 16.5833; stroke: rgb(63, 81, 181); stroke-opacity: 0.4;"><title>SCI(O) &#8594; YIH(D):
57</title></path><path class="link" d="M10,387.44272663387204C288,387.44272663387204 288,204.8875614898101 566,204.8875614898101" style="fill: none; stroke-width: 13.0921; stroke: rgb(156, 39, 176); stroke-opacity: 0.4;"><title>FOE(O) &#8594; YIH(D):
45</title></path><path class="link" d="M10,200.378074490513C288,200.378074490513 288,317.80182712579045 566,317.80182712579045" style="fill: none; stroke-width: 12.8011; stroke: rgb(139, 195, 74); stroke-opacity: 0.4;"><title>YIH(O) &#8594; FOE(D):
44</title></path><path class="link" d="M10,402.42586085734365C288,402.42586085734365 288,417.84539704848896 566,417.84539704848896" style="fill: none; stroke-width: 12.2193; stroke: rgb(156, 39, 176); stroke-opacity: 0.4;"><title>FOE(O) &#8594; UTown(D):
42</title></path><path class="link" d="M10,129.2825017568517C288,129.2825017568517 288,305.4371047083625 566,305.4371047083625" style="fill: none; stroke-width: 11.9283; stroke: rgb(255, 235, 59); stroke-opacity: 0.4;"><title>MED(O) &#8594; FOE(D):
41</title></path><path class="link" d="M10,165.4659170765987C288,165.4659170765987 288,34.621222768798134 566,34.621222768798134" style="fill: none; stroke-width: 9.89178; stroke: rgb(139, 195, 74); stroke-opacity: 0.4;"><title>YIH(O) &#8594; MED(D):
34</title></path><path class="link" d="M10,267.5460295151089C288,267.5460295151089 288,329.1482782853126 566,329.1482782853126" style="fill: none; stroke-width: 9.89178; stroke: rgb(3, 169, 244); stroke-opacity: 0.4;"><title>UTown(O) &#8594; FOE(D):
34</title></path><path class="link" d="M10,118.66338721011945C288,118.66338721011945 288,178.84891075193235 566,178.84891075193235" style="fill: none; stroke-width: 9.30991; stroke: rgb(255, 235, 59); stroke-opacity: 0.4;"><title>MED(O) &#8594; YIH(D):
32</title></path><path class="link" d="M10,254.744905130007C288,254.744905130007 288,187.86788475052688 566,187.86788475052688" style="fill: none; stroke-width: 8.72804; stroke: rgb(3, 169, 244); stroke-opacity: 0.4;"><title>UTown(O) &#8594; YIH(D):
30</title></path><path class="link" d="M10,369.695713281799C288,369.695713281799 288,49.60435699226967 566,49.60435699226967" style="fill: none; stroke-width: 8.4371; stroke: rgb(156, 39, 176); stroke-opacity: 0.4;"><title>FOE(O) &#8594; MED(D):
29</title></path><path class="link" d="M10,210.85172171468727C288,210.85172171468727 288,404.7533380182711 566,404.7533380182711" style="fill: none; stroke-width: 8.14617; stroke: rgb(139, 195, 74); stroke-opacity: 0.4;"><title>YIH(O) &#8594; UTown(D):
28</title></path><path class="link" d="M10,447.8116654954322C288,447.8116654954322 288,534.1433591004918 566,534.1433591004918" style="fill: none; stroke-width: 8.14617; stroke: rgb(156, 39, 176); stroke-opacity: 0.4;"><title>FOE(O) &#8594; FASS(D):
28</title></path><path class="link" d="M10,305.91145467322553C288,305.91145467322553 288,268.0899508081516 566,268.0899508081516" style="fill: none; stroke-width: 7.5643; stroke: rgb(244, 67, 54); stroke-opacity: 0.4;"><title>FASS(O) &#8594; BIZ(D):
26</title></path><path class="link" d="M10,377.4054813773717C288,377.4054813773717 288,132.628250175685 566,132.628250175685" style="fill: none; stroke-width: 6.98243; stroke: rgb(156, 39, 176); stroke-opacity: 0.4;"><title>FOE(O) &#8594; SCI(D):
24</title></path><path class="link" d="M10,51.204497540407566C288,51.204497540407566 288,296.27266338721 566,296.27266338721" style="fill: none; stroke-width: 6.40056; stroke: rgb(63, 81, 181); stroke-opacity: 0.4;"><title>SCI(O) &#8594; FOE(D):
22</title></path><path class="link" d="M10,312.8938861560084C288,312.8938861560084 288,337.2944483485593 566,337.2944483485593" style="fill: none; stroke-width: 6.40056; stroke: rgb(244, 67, 54); stroke-opacity: 0.4;"><title>FASS(O) &#8594; FOE(D):
22</title></path><path class="link" d="M10,546.2171468728039C288,546.2171468728039 288,545.05340829234 566,545.05340829234" style="fill: none; stroke-width: 6.10963; stroke: rgb(121, 85, 72); stroke-opacity: 0.4;"><title>BIZ(O) &#8594; FASS(D):
21</title></path><path class="link" d="M10,454.3576950105411C288,454.3576950105411 288,572.9451862262824 566,572.9451862262824" style="fill: none; stroke-width: 4.94589; stroke: rgb(156, 39, 176); stroke-opacity: 0.4;"><title>FOE(O) &#8594; SDE(D):
17</title></path><path class="link" d="M10,570.6177090653548C288,570.6177090653548 288,371.1883345045677 566,371.1883345045677" style="fill: none; stroke-width: 4.94589; stroke: rgb(255, 152, 0); stroke-opacity: 0.4;"><title>SDE(O) &#8594; FOE(D):
17</title></path><path class="link" d="M10,320.1672522839072C288,320.1672522839072 288,460.86577652846086 566,460.86577652846086" style="fill: none; stroke-width: 4.65495; stroke: rgb(244, 67, 54); stroke-opacity: 0.4;"><title>FASS(O) &#8594; CCELIB(D):
16</title></path><path class="link" d="M10,217.25228390723822C288,217.25228390723822 288,455.3380182712578 566,455.3380182712578" style="fill: none; stroke-width: 4.65495; stroke: rgb(139, 195, 74); stroke-opacity: 0.4;"><title>YIH(O) &#8594; CCELIB(D):
16</title></path><path class="link" d="M10,56.73225579761066C288,56.73225579761066 288,393.9887561489809 566,393.9887561489809" style="fill: none; stroke-width: 4.65495; stroke: rgb(63, 81, 181); stroke-opacity: 0.4;"><title>SCI(O) &#8594; UTown(D):
16</title></path><path class="link" d="M10,540.6893886156008C288,540.6893886156008 288,429.3373155305691 566,429.3373155305691" style="fill: none; stroke-width: 4.36402; stroke: rgb(121, 85, 72); stroke-opacity: 0.4;"><title>BIZ(O) &#8594; UTown(D):
15</title></path><path class="link" d="M10,62.987350667603636C288,62.987350667603636 288,519.7420941672522 566,519.7420941672522" style="fill: none; stroke-width: 4.36402; stroke: rgb(63, 81, 181); stroke-opacity: 0.4;"><title>SCI(O) &#8594; FASS(D):
15</title></path><path class="link" d="M10,137.42867182009837C288,137.42867182009837 288,398.49824314827816 566,398.49824314827816" style="fill: none; stroke-width: 4.36402; stroke: rgb(255, 235, 59); stroke-opacity: 0.4;"><title>MED(O) &#8594; UTown(D):
15</title></path><path class="link" d="M10,221.61630358397753C288,221.61630358397753 288,525.9971890372452 566,525.9971890372452" style="fill: none; stroke-width: 4.07309; stroke: rgb(139, 195, 74); stroke-opacity: 0.4;"><title>YIH(O) &#8594; FASS(D):
14</title></path><path class="link" d="M10,248.34434293745605C288,248.34434293745605 288,124.19114546732239 566,124.19114546732239" style="fill: none; stroke-width: 4.07309; stroke: rgb(3, 169, 244); stroke-opacity: 0.4;"><title>UTown(O) &#8594; SCI(D):
14</title></path><path class="link" d="M10,513.3794799718903C288,513.3794799718903 288,540.1075193253688 566,540.1075193253688" style="fill: none; stroke-width: 3.78215; stroke: rgb(96, 125, 139); stroke-opacity: 0.4;"><title>CCELIB(O) &#8594; FASS(D):
13</title></path><path class="link" d="M10,478.4673225579761C288,478.4673225579761 288,213.32466619817274 566,213.32466619817274" style="fill: none; stroke-width: 3.78215; stroke: rgb(96, 125, 139); stroke-opacity: 0.4;"><title>CCELIB(O) &#8594; YIH(D):
13</title></path><path class="link" d="M10,244.4167252283907C288,244.4167252283907 288,41.45818692902301 566,41.45818692902301" style="fill: none; stroke-width: 3.78215; stroke: rgb(3, 169, 244); stroke-opacity: 0.4;"><title>UTown(O) &#8594; MED(D):
13</title></path><path class="link" d="M10,299.94729444834854C288,299.94729444834854 288,194.12297962051986 566,194.12297962051986" style="fill: none; stroke-width: 3.78215; stroke: rgb(244, 67, 54); stroke-opacity: 0.4;"><title>FASS(O) &#8594; YIH(D):
13</title></path><path class="link" d="M10,509.8882642304989C288,509.8882642304989 288,425.5551651440617 566,425.5551651440617" style="fill: none; stroke-width: 3.20028; stroke: rgb(96, 125, 139); stroke-opacity: 0.4;"><title>CCELIB(O) &#8594; UTown(D):
11</title></path><path class="link" d="M10,192.52283907238228C288,192.52283907238228 288,260.5256500351369 566,260.5256500351369" style="fill: none; stroke-width: 2.90935; stroke: rgb(139, 195, 74); stroke-opacity: 0.4;"><title>YIH(O) &#8594; BIZ(D):
10</title></path><path class="link" d="M10,296.74701335207305C288,296.74701335207305 288,127.53689388615584 566,127.53689388615584" style="fill: none; stroke-width: 2.61841; stroke: rgb(244, 67, 54); stroke-opacity: 0.4;"><title>FASS(O) &#8594; SCI(D):
9</title></path><path class="link" d="M10,343.69501054111026C288,343.69501054111026 288,197.17779339423737 566,197.17779339423737" style="fill: none; stroke-width: 2.32748; stroke: rgb(0, 150, 136); stroke-opacity: 0.4;"><title>YSTCM(O) &#8594; YIH(D):
8</title></path><path class="link" d="M10,261.43640196767393C288,261.43640196767393 288,263.1440618411805 566,263.1440618411805" style="fill: none; stroke-width: 2.32748; stroke: rgb(3, 169, 244); stroke-opacity: 0.4;"><title>UTown(O) &#8594; BIZ(D):
8</title></path><path class="link" d="M10,534.8706957132817C288,534.8706957132817 288,138.59241040056202 566,138.59241040056202" style="fill: none; stroke-width: 2.03654; stroke: rgb(121, 85, 72); stroke-opacity: 0.4;"><title>BIZ(O) &#8594; SCI(D):
7</title></path><path class="link" d="M10,141.5017568517217C288,141.5017568517217 288,522.9423752635277 566,522.9423752635277" style="fill: none; stroke-width: 2.03654; stroke: rgb(255, 235, 59); stroke-opacity: 0.4;"><title>MED(O) &#8594; FASS(D):
7</title></path><path class="link" d="M10,536.9072382290934C288,536.9072382290934 288,216.23401264933224 566,216.23401264933224" style="fill: none; stroke-width: 2.03654; stroke: rgb(121, 85, 72); stroke-opacity: 0.4;"><title>BIZ(O) &#8594; YIH(D):
7</title></path><path class="link" d="M10,294.4195361911454C288,294.4195361911454 288,44.36753338018253 566,44.36753338018253" style="fill: none; stroke-width: 2.03654; stroke: rgb(244, 67, 54); stroke-opacity: 0.4;"><title>FASS(O) &#8594; MED(D):
7</title></path><path class="link" d="M10,316.9669711876317C288,316.9669711876317 288,409.6992269852423 566,409.6992269852423" style="fill: none; stroke-width: 1.74561; stroke: rgb(244, 67, 54); stroke-opacity: 0.4;"><title>FASS(O) &#8594; UTown(D):
6</title></path><path class="link" d="M10,59.93253689388613C288,59.93253689388613 288,451.26493323963444 566,451.26493323963444" style="fill: none; stroke-width: 1.74561; stroke: rgb(63, 81, 181); stroke-opacity: 0.4;"><title>SCI(O) &#8594; CCELIB(D):
6</title></path><path class="link" d="M10,323.3675333801827C288,323.3675333801827 288,569.599437807449 566,569.599437807449" style="fill: none; stroke-width: 1.74561; stroke: rgb(244, 67, 54); stroke-opacity: 0.4;"><title>FASS(O) &#8594; SDE(D):
6</title></path><path class="link" d="M10,395.44342937456076C288,395.44342937456076 288,272.7449051300069 566,272.7449051300069" style="fill: none; stroke-width: 1.74561; stroke: rgb(156, 39, 176); stroke-opacity: 0.4;"><title>FOE(O) &#8594; BIZ(D):
6</title></path><path class="link" d="M10,190.19536191145465C288,190.19536191145465 288,236.70695713281782 566,236.70695713281782" style="fill: none; stroke-width: 1.74561; stroke: rgb(139, 195, 74); stroke-opacity: 0.4;"><title>YIH(O) &#8594; YSTCM(D):
6</title></path><path class="link" d="M10,47.276879831342214C288,47.276879831342214 288,258.34364019676724 566,258.34364019676724" style="fill: none; stroke-width: 1.45467; stroke: rgb(63, 81, 181); stroke-opacity: 0.4;"><title>SCI(O) &#8594; BIZ(D):
5</title></path><path class="link" d="M10,475.8489107519325C288,475.8489107519325 288,136.8468025298663 566,136.8468025298663" style="fill: none; stroke-width: 1.45467; stroke: rgb(96, 125, 139); stroke-opacity: 0.4;"><title>CCELIB(O) &#8594; SCI(D):
5</title></path><path class="link" d="M10,274.09205903021785C288,274.09205903021785 288,528.7610681658467 566,528.7610681658467" style="fill: none; stroke-width: 1.45467; stroke: rgb(3, 169, 244); stroke-opacity: 0.4;"><title>UTown(O) &#8594; FASS(D):
5</title></path><path class="link" d="M10,480.9402670414617C288,480.9402670414617 288,274.19957835558665 566,274.19957835558665" style="fill: none; stroke-width: 1.16374; stroke: rgb(96, 125, 139); stroke-opacity: 0.4;"><title>CCELIB(O) &#8594; BIZ(D):
4</title></path><path class="link" d="M10,575.4181307097681C288,575.4181307097681 288,548.6900913562895 566,548.6900913562895" style="fill: none; stroke-width: 1.16374; stroke: rgb(255, 152, 0); stroke-opacity: 0.4;"><title>SDE(O) &#8594; FASS(D):
4</title></path><path class="link" d="M10,346.31342234715385C288,346.31342234715385 288,411.15390021082203 566,411.15390021082203" style="fill: none; stroke-width: 1.16374; stroke: rgb(0, 150, 136); stroke-opacity: 0.4;"><title>YSTCM(O) &#8594; UTown(D):
4</title></path><path class="link" d="M10,259.6907940969782C288,259.6907940969782 288,238.1616303583976 566,238.1616303583976" style="fill: none; stroke-width: 1.16374; stroke: rgb(3, 169, 244); stroke-opacity: 0.4;"><title>UTown(O) &#8594; YSTCM(D):
4</title></path><path class="link" d="M10,224.0892480674631C288,224.0892480674631 288,567.7083626141953 566,567.7083626141953" style="fill: none; stroke-width: 1; stroke: rgb(139, 195, 74); stroke-opacity: 0.4;"><title>YIH(O) &#8594; SDE(D):
3</title></path><path class="link" d="M10,573.5270555165143C288,573.5270555165143 288,431.95572733661265 566,431.95572733661265" style="fill: none; stroke-width: 1; stroke: rgb(255, 152, 0); stroke-opacity: 0.4;"><title>SDE(O) &#8594; UTown(D):
3</title></path><path class="link" d="M10,272.92832044975404C288,272.92832044975404 288,458.1018973998593 566,458.1018973998593" style="fill: none; stroke-width: 1; stroke: rgb(3, 169, 244); stroke-opacity: 0.4;"><title>UTown(O) &#8594; CCELIB(D):
3</title></path><path class="link" d="M10,574.3998594518622C288,574.3998594518622 288,499.1236823612086 566,499.1236823612086" style="fill: none; stroke-width: 1; stroke: rgb(255, 152, 0); stroke-opacity: 0.4;"><title>SDE(O) &#8594; CCELIB(D):
3</title></path><path class="link" d="M10,345.295151089248C288,345.295151089248 288,340.93113141250865 566,340.93113141250865" style="fill: none; stroke-width: 1; stroke: rgb(0, 150, 136); stroke-opacity: 0.4;"><title>YSTCM(O) &#8594; FOE(D):
3</title></path><path class="link" d="M10,140.04708362614193C288,140.04708362614193 288,452.57413914265624 566,452.57413914265624" style="fill: none; stroke-width: 1; stroke: rgb(255, 235, 59); stroke-opacity: 0.4;"><title>MED(O) &#8594; CCELIB(D):
3</title></path><path class="link" d="M10,275.1103302881237C288,275.1103302881237 288,568.4356992269852 566,568.4356992269852" style="fill: none; stroke-width: 1; stroke: rgb(3, 169, 244); stroke-opacity: 0.4;"><title>UTown(O) &#8594; SDE(D):
2</title></path><path class="link" d="M10,347.1862262825017C288,347.1862262825017 288,529.7793394237526 566,529.7793394237526" style="fill: none; stroke-width: 1; stroke: rgb(0, 150, 136); stroke-opacity: 0.4;"><title>YSTCM(O) &#8594; FASS(D):
2</title></path><path class="link" d="M10,538.2164441321153C288,538.2164441321153 288,368.42445537596615 566,368.42445537596615" style="fill: none; stroke-width: 1; stroke: rgb(121, 85, 72); stroke-opacity: 0.4;"><title>BIZ(O) &#8594; FOE(D):
2</title></path><path class="link" d="M10,394.27969079409695C288,394.27969079409695 288,239.32536893886137 566,239.32536893886137" style="fill: none; stroke-width: 1; stroke: rgb(156, 39, 176); stroke-opacity: 0.4;"><title>FOE(O) &#8594; YSTCM(D):
2</title></path><path class="link" d="M10,567.9992972593112C288,567.9992972593112 288,274.92691496837654 566,274.92691496837654" style="fill: none; stroke-width: 1; stroke: rgb(255, 152, 0); stroke-opacity: 0.4;"><title>SDE(O) &#8594; BIZ(D):
1</title></path><path class="link" d="M10,46.40407589599435C288,46.40407589599435 288,235.68868587491198 566,235.68868587491198" style="fill: none; stroke-width: 1; stroke: rgb(63, 81, 181); stroke-opacity: 0.4;"><title>SCI(O) &#8594; YSTCM(D):
1</title></path><path class="link" d="M10,342.3858046380885C288,342.3858046380885 288,128.9915671117356 566,128.9915671117356" style="fill: none; stroke-width: 1; stroke: rgb(0, 150, 136); stroke-opacity: 0.4;"><title>YSTCM(O) &#8594; SCI(D):
1</title></path><path class="link" d="M10,515.416022487702C288,515.416022487702 288,575.563598032326 566,575.563598032326" style="fill: none; stroke-width: 1; stroke: rgb(96, 125, 139); stroke-opacity: 0.4;"><title>CCELIB(O) &#8594; SDE(D):
1</title></path><path class="link" d="M10,474.97610681658466C288,474.97610681658466 288,53.96837666900896 566,53.96837666900896" style="fill: none; stroke-width: 1; stroke: rgb(96, 125, 139); stroke-opacity: 0.4;"><title>CCELIB(O) &#8594; MED(D):
1</title></path><path class="link" d="M10,533.7069571328179C288,533.7069571328179 288,54.259311314124915 566,54.259311314124915" style="fill: none; stroke-width: 1; stroke: rgb(121, 85, 72); stroke-opacity: 0.4;"><title>BIZ(O) &#8594; MED(D):
1</title></path><path class="link" d="M10,567.7083626141953C288,567.7083626141953 288,217.39775122979606 566,217.39775122979606" style="fill: none; stroke-width: 1; stroke: rgb(255, 152, 0); stroke-opacity: 0.4;"><title>SDE(O) &#8594; YIH(D):
1</title></path><path class="link" d="M10,301.98383696416016C288,301.98383696416016 288,238.88896697118744 566,238.88896697118744" style="fill: none; stroke-width: 1; stroke: rgb(244, 67, 54); stroke-opacity: 0.4;"><title>FASS(O) &#8594; YSTCM(D):
1</title></path><path class="link" d="M10,543.0168657765284C288,543.0168657765284 288,498.5418130709767 566,498.5418130709767" style="fill: none; stroke-width: 1; stroke: rgb(121, 85, 72); stroke-opacity: 0.4;"><title>BIZ(O) &#8594; CCELIB(D):
1</title></path><path class="link" d="M10,549.4174279690793C288,549.4174279690793 288,575.854532677442 566,575.854532677442" style="fill: none; stroke-width: 1; stroke: rgb(121, 85, 72); stroke-opacity: 0.4;"><title>BIZ(O) &#8594; SDE(D):
1</title></path></g><g><g class="node" transform="translate(0,567.5628952916373)"><rect height="8.437104708362615" width="10" id="r0" shape-rendering="crispEdges" style="fill: rgb(255, 152, 0); fill-opacity: 0.9; stroke-width: 0; stroke: rgb(15, 58, 88);"><title>SDE(O):
29</title></rect><text x="16" y="4.218552354181307" dy=".35em" text-anchor="start" style="stroke-width: 0; font-family: serif; font-size: 15px; font-weight: 400; fill: rgb(0, 0, 0);">SDE(O): 29</text></g><g class="node" transform="translate(566,257.61630358397736)"><rect height="17.456078706957136" width="10" id="r1" shape-rendering="crispEdges" style="fill: rgb(121, 85, 72); fill-opacity: 0.9; stroke-width: 0; stroke: rgb(85, 97, 113);"><title>BIZ(D):
60</title></rect><text x="-6" y="8.728039353478568" dy=".35em" text-anchor="end" style="stroke-width: 0; font-family: serif; font-size: 15px; font-weight: 400; fill: rgb(0, 0, 0);">BIZ(D): 60</text></g><g class="node" transform="translate(0,-2.842170943040401e-14)"><rect height="65.1693605059733" width="10" id="r2" shape-rendering="crispEdges" style="fill: rgb(63, 81, 181); fill-opacity: 0.9; stroke-width: 0; stroke: rgb(124, 62, 6);"><title>SCI(O):
224</title></rect><text x="16" y="32.58468025298665" dy=".35em" text-anchor="start" style="stroke-width: 0; font-family: serif; font-size: 15px; font-weight: 400; fill: rgb(0, 0, 0);">SCI(O): 224</text></g><g class="node" transform="translate(566,235.543218552354)"><rect height="4.073085031623331" width="10" id="r3" shape-rendering="crispEdges" style="fill: rgb(0, 150, 136); fill-opacity: 0.9; stroke-width: 0; stroke: rgb(124, 91, 58);"><title>YSTCM(D):
14</title></rect><text x="-6" y="2.0365425158116657" dy=".35em" text-anchor="end" style="stroke-width: 0; font-family: serif; font-size: 15px; font-weight: 400; fill: rgb(0, 0, 0);">YSTCM(D): 14</text></g><g class="node" transform="translate(0,342.2403373155305)"><rect height="5.23682361208714" width="10" id="r4" shape-rendering="crispEdges" style="fill: rgb(0, 150, 136); fill-opacity: 0.9; stroke-width: 0; stroke: rgb(124, 91, 58);"><title>YSTCM(O):
18</title></rect><text x="16" y="2.61841180604357" dy=".35em" text-anchor="start" style="stroke-width: 0; font-family: serif; font-size: 15px; font-weight: 400; fill: rgb(0, 0, 0);">YSTCM(O): 18</text></g><g class="node" transform="translate(566,72.40477863668289)"><rect height="67.20590302178496" width="10" id="r5" shape-rendering="crispEdges" style="fill: rgb(63, 81, 181); fill-opacity: 0.9; stroke-width: 0; stroke: rgb(124, 62, 6);"><title>SCI(D):
231</title></rect><text x="-6" y="33.60295151089248" dy=".35em" text-anchor="end" style="stroke-width: 0; font-family: serif; font-size: 15px; font-weight: 400; fill: rgb(0, 0, 0);">SCI(D): 231</text></g><g class="node" transform="translate(0,474.8306394940267)"><rect height="40.730850316233315" width="10" id="r6" shape-rendering="crispEdges" style="fill: rgb(96, 125, 139); fill-opacity: 0.9; stroke-width: 0; stroke: rgb(21, 78, 21);"><title>CCELIB(O):
140</title></rect><text x="16" y="20.365425158116658" dy=".35em" text-anchor="start" style="stroke-width: 0; font-family: serif; font-size: 15px; font-weight: 400; fill: rgb(0, 0, 0);">CCELIB(O): 140</text></g><g class="node" transform="translate(566,567.2719606465214)"><rect height="8.728039353478568" width="10" id="r7" shape-rendering="crispEdges" style="fill: rgb(255, 152, 0); fill-opacity: 0.9; stroke-width: 0; stroke: rgb(15, 58, 88);"><title>SDE(D):
30</title></rect><text x="-6" y="4.364019676739284" dy=".35em" text-anchor="end" style="stroke-width: 0; font-family: serif; font-size: 15px; font-weight: 400; fill: rgb(0, 0, 0);">SDE(D): 30</text></g><g class="node" transform="translate(566,-1.8474111129762605e-13)"><rect height="54.40477863668307" width="10" id="r8" shape-rendering="crispEdges" style="fill: rgb(255, 235, 59); fill-opacity: 0.9; stroke-width: 0; stroke: rgb(74, 109, 67);"><title>MED(D):
187</title></rect><text x="-6" y="27.202389318341535" dy=".35em" text-anchor="end" style="stroke-width: 0; font-family: serif; font-size: 15px; font-weight: 400; fill: rgb(0, 0, 0);">MED(D): 187</text></g><g class="node" transform="translate(0,533.56148981026)"><rect height="16.001405481377372" width="10" id="r9" shape-rendering="crispEdges" style="fill: rgb(121, 85, 72); fill-opacity: 0.9; stroke-width: 0; stroke: rgb(85, 97, 113);"><title>BIZ(O):
55</title></rect><text x="16" y="8.000702740688686" dy=".35em" text-anchor="start" style="stroke-width: 0; font-family: serif; font-size: 15px; font-weight: 400; fill: rgb(0, 0, 0);">BIZ(O): 55</text></g><g class="node" transform="translate(566,157.61068165846785)"><rect height="59.93253689388616" width="10" id="r10" shape-rendering="crispEdges" style="fill: rgb(139, 195, 74); fill-opacity: 0.9; stroke-width: 0; stroke: rgb(104, 19, 19);"><title>YIH(D):
206</title></rect><text x="-6" y="29.96626844694308" dy=".35em" text-anchor="end" style="stroke-width: 0; font-family: serif; font-size: 15px; font-weight: 400; fill: rgb(0, 0, 0);">YIH(D): 206</text></g><g class="node" transform="translate(0,293.4012649332396)"><rect height="30.839072382290937" width="10" id="r11" shape-rendering="crispEdges" style="fill: rgb(244, 67, 54); fill-opacity: 0.9; stroke-width: 0; stroke: rgb(124, 74, 73);"><title>FASS(O):
106</title></rect><text x="16" y="15.419536191145468" dy=".35em" text-anchor="start" style="stroke-width: 0; font-family: serif; font-size: 15px; font-weight: 400; fill: rgb(0, 0, 0);">FASS(O): 106</text></g><g class="node" transform="translate(566,450.3921293042866)"><rect height="49.167955024595926" width="10" id="r12" shape-rendering="crispEdges" style="fill: rgb(96, 125, 139); fill-opacity: 0.9; stroke-width: 0; stroke: rgb(21, 78, 21);"><title>CCELIB(D):
169</title></rect><text x="-6" y="24.583977512297963" dy=".35em" text-anchor="end" style="stroke-width: 0; font-family: serif; font-size: 15px; font-weight: 400; fill: rgb(0, 0, 0);">CCELIB(D): 169</text></g><g class="node" transform="translate(0,242.525650035137)"><rect height="32.875614898102604" width="10" id="r13" shape-rendering="crispEdges" style="fill: rgb(3, 169, 244); fill-opacity: 0.9; stroke-width: 0; stroke: rgb(72, 50, 92);"><title>UTown(O):
113</title></rect><text x="16" y="16.437807449051302" dy=".35em" text-anchor="start" style="stroke-width: 0; font-family: serif; font-size: 15px; font-weight: 400; fill: rgb(0, 0, 0);">UTown(O): 113</text></g><g class="node" transform="translate(566,517.5600843288826)"><rect height="31.711876317638794" width="10" id="r14" shape-rendering="crispEdges" style="fill: rgb(244, 67, 54); fill-opacity: 0.9; stroke-width: 0; stroke: rgb(124, 74, 73);"><title>FASS(D):
109</title></rect><text x="-6" y="15.855938158819397" dy=".35em" text-anchor="end" style="stroke-width: 0; font-family: serif; font-size: 15px; font-weight: 400; fill: rgb(0, 0, 0);">FASS(D): 109</text></g><g class="node" transform="translate(566,293.0723822909345)"><rect height="80.58889669711877" width="10" id="r15" shape-rendering="crispEdges" style="fill: rgb(156, 39, 176); fill-opacity: 0.9; stroke-width: 0; stroke: rgb(96, 86, 104);"><title>FOE(D):
277</title></rect><text x="-6" y="40.294448348559385" dy=".35em" text-anchor="end" style="stroke-width: 0; font-family: serif; font-size: 15px; font-weight: 400; fill: rgb(0, 0, 0);">FOE(D): 277</text></g><g class="node" transform="translate(0,365.47716092761766)"><rect height="91.35347856640901" width="10" id="r16" shape-rendering="crispEdges" style="fill: rgb(156, 39, 176); fill-opacity: 0.9; stroke-width: 0; stroke: rgb(96, 86, 104);"><title>FOE(O):
314</title></rect><text x="16" y="45.676739283204505" dy=".35em" text-anchor="start" style="stroke-width: 0; font-family: serif; font-size: 15px; font-weight: 400; fill: rgb(0, 0, 0);">FOE(O): 314</text></g><g class="node" transform="translate(0,160.52002810962753)"><rect height="64.00562192550949" width="10" id="r17" shape-rendering="crispEdges" style="fill: rgb(139, 195, 74); fill-opacity: 0.9; stroke-width: 0; stroke: rgb(104, 19, 19);"><title>YIH(O):
220</title></rect><text x="16" y="32.002810962754744" dy=".35em" text-anchor="start" style="stroke-width: 0; font-family: serif; font-size: 15px; font-weight: 400; fill: rgb(0, 0, 0);">YIH(O): 220</text></g><g class="node" transform="translate(566,391.66127898805325)"><rect height="40.730850316233315" width="10" id="r18" shape-rendering="crispEdges" style="fill: rgb(3, 169, 244); fill-opacity: 0.9; stroke-width: 0; stroke: rgb(72, 50, 92);"><title>UTown(D):
140</title></rect><text x="-6" y="20.365425158116658" dy=".35em" text-anchor="end" style="stroke-width: 0; font-family: serif; font-size: 15px; font-weight: 400; fill: rgb(0, 0, 0);">UTown(D): 140</text></g><g class="node" transform="translate(0,83.16936050597327)"><rect height="59.35066760365426" width="10" id="r19" shape-rendering="crispEdges" style="fill: rgb(255, 235, 59); fill-opacity: 0.9; stroke-width: 0; stroke: rgb(74, 109, 67);"><title>MED(O):
204</title></rect><text x="16" y="29.67533380182713" dy=".35em" text-anchor="start" style="stroke-width: 0; font-family: serif; font-size: 15px; font-weight: 400; fill: rgb(0, 0, 0);">MED(O): 204</text></g></g></g></g></svg>