<svg id="sankey_svg" height="600" width="600" xmlns="http://www.w3.org/2000/svg" version="1.1"><title>Your Diagram Title</title><!-- Generated with SankeyMATIC on Sat Dec 29 2018 20:13:58 GMT+0800 (Singapore Standard Time)--><g><rect width="100%" height="100%" fill="rgb(255, 255, 255)"></rect><g transform="translate(12,12)"><g><path class="link" d="M10,19.583402489626557C288,19.583402489626557 288,19.583402489626543 566,19.583402489626543" style="fill: none; stroke-width: 39.1668; stroke: rgb(255, 235, 59); stroke-opacity: 0.4;"><title>MED(O) &#8594; SCI(D):
114</title></path><path class="link" d="M10,95.1311203319502C288,95.1311203319502 288,107.49958506224067 566,107.49958506224067" style="fill: none; stroke-width: 38.8232; stroke: rgb(63, 81, 181); stroke-opacity: 0.4;"><title>SCI(O) &#8594; MED(D):
113</title></path><path class="link" d="M10,284.87800829875516C288,284.87800829875516 288,314.21576763485484 566,314.21576763485484" style="fill: none; stroke-width: 27.4855; stroke: rgb(156, 39, 176); stroke-opacity: 0.4;"><title>FOE(O) &#8594; CCELIB(D):
80</title></path><path class="link" d="M10,486.91867219917015C288,486.91867219917015 288,500.1087136929461 566,500.1087136929461" style="fill: none; stroke-width: 25.7676; stroke: rgb(96, 125, 139); stroke-opacity: 0.4;"><title>CCELIB(O) &#8594; FOE(D):
75</title></path><path class="link" d="M10,263.404979253112C288,263.404979253112 288,252.0672199170125 566,252.0672199170125" style="fill: none; stroke-width: 15.4606; stroke: rgb(156, 39, 176); stroke-opacity: 0.4;"><title>FOE(O) &#8594; UTown(D):
45</title></path><path class="link" d="M10,122.101244813278C288,122.101244813278 288,175.48879668049793 566,175.48879668049793" style="fill: none; stroke-width: 15.117; stroke: rgb(63, 81, 181); stroke-opacity: 0.4;"><title>SCI(O) &#8594; YIH(D):
44</title></path><path class="link" d="M10,177.37842323651452C288,177.37842323651452 288,46.553526970954344 566,46.553526970954344" style="fill: none; stroke-width: 14.7734; stroke: rgb(139, 195, 74); stroke-opacity: 0.4;"><title>YIH(O) &#8594; SCI(D):
43</title></path><path class="link" d="M10,249.83402489626553C288,249.83402489626553 288,188.88796680497927 566,188.88796680497927" style="fill: none; stroke-width: 11.6813; stroke: rgb(156, 39, 176); stroke-opacity: 0.4;"><title>FOE(O) &#8594; YIH(D):
34</title></path><path class="link" d="M10,569.1286307053941C288,569.1286307053941 288,520.8946058091286 566,520.8946058091286" style="fill: none; stroke-width: 10.3071; stroke: rgb(255, 152, 0); stroke-opacity: 0.4;"><title>SDE(O) &#8594; FOE(D):
30</title></path><path class="link" d="M10,382.54854771784227C288,382.54854771784227 288,474.34107883817427 566,474.34107883817427" style="fill: none; stroke-width: 9.96349; stroke: rgb(3, 169, 244); stroke-opacity: 0.4;"><title>UTown(O) &#8594; FOE(D):
29</title></path><path class="link" d="M10,304.4614107883817C288,304.4614107883817 288,381.4804979253112 566,381.4804979253112" style="fill: none; stroke-width: 9.61992; stroke: rgb(156, 39, 176); stroke-opacity: 0.4;"><title>FOE(O) &#8594; SDE(D):
28</title></path><path class="link" d="M10,206.75352697095437C288,206.75352697095437 288,463.5186721991701 566,463.5186721991701" style="fill: none; stroke-width: 8.93278; stroke: rgb(139, 195, 74); stroke-opacity: 0.4;"><title>YIH(O) &#8594; FOE(D):
26</title></path><path class="link" d="M10,146.49460580912861C288,146.49460580912861 288,454.58589211618255 566,454.58589211618255" style="fill: none; stroke-width: 8.93278; stroke: rgb(63, 81, 181); stroke-opacity: 0.4;"><title>SCI(O) &#8594; FOE(D):
26</title></path><path class="link" d="M10,539.2755186721992C288,539.2755186721992 288,569.9875518672198 566,569.9875518672198" style="fill: none; stroke-width: 8.58921; stroke: rgb(121, 85, 72); stroke-opacity: 0.4;"><title>BIZ(O) &#8594; FASS(D):
25</title></path><path class="link" d="M10,429.751867219917C288,429.751867219917 288,424.045643153527 566,424.045643153527" style="fill: none; stroke-width: 8.58921; stroke: rgb(244, 67, 54); stroke-opacity: 0.4;"><title>FASS(O) &#8594; BIZ(D):
25</title></path><path class="link" d="M10,437.99751037344396C288,437.99751037344396 288,483.27385892116183 566,483.27385892116183" style="fill: none; stroke-width: 7.90207; stroke: rgb(244, 67, 54); stroke-opacity: 0.4;"><title>FASS(O) &#8594; FOE(D):
23</title></path><path class="link" d="M10,196.79004149377593C288,196.79004149377593 288,296.69377593360997 566,296.69377593360997" style="fill: none; stroke-width: 7.55851; stroke: rgb(139, 195, 74); stroke-opacity: 0.4;"><title>YIH(O) &#8594; CCELIB(D):
22</title></path><path class="link" d="M10,133.43900414937758C288,133.43900414937758 288,238.1526970954357 566,238.1526970954357" style="fill: none; stroke-width: 7.55851; stroke: rgb(63, 81, 181); stroke-opacity: 0.4;"><title>SCI(O) &#8594; UTown(D):
22</title></path><path class="link" d="M10,42.77427385892116C288,42.77427385892116 288,164.32282157676352 566,164.32282157676352" style="fill: none; stroke-width: 7.21494; stroke: rgb(255, 235, 59); stroke-opacity: 0.4;"><title>MED(O) &#8594; YIH(D):
21</title></path><path class="link" d="M10,413.260580912863C288,413.260580912863 288,200.7410788381743 566,200.7410788381743" style="fill: none; stroke-width: 7.21494; stroke: rgb(244, 67, 54); stroke-opacity: 0.4;"><title>FASS(O) &#8594; YIH(D):
21</title></path><path class="link" d="M10,503.0663900414938C288,503.0663900414938 288,562.4290456431535 566,562.4290456431535" style="fill: none; stroke-width: 6.5278; stroke: rgb(96, 125, 139); stroke-opacity: 0.4;"><title>CCELIB(O) &#8594; FASS(D):
19</title></path><path class="link" d="M10,237.4655601659751C288,237.4655601659751 288,57.032365145228205 566,57.032365145228205" style="fill: none; stroke-width: 6.18423; stroke: rgb(156, 39, 176); stroke-opacity: 0.4;"><title>FOE(O) &#8594; SCI(D):
18</title></path><path class="link" d="M10,466.4763485477178C288,466.4763485477178 288,207.44066390041496 566,207.44066390041496" style="fill: none; stroke-width: 6.18423; stroke: rgb(96, 125, 139); stroke-opacity: 0.4;"><title>CCELIB(O) &#8594; YIH(D):
18</title></path><path class="link" d="M10,187.68547717842324C288,187.68547717842324 288,129.83153526970955 566,129.83153526970955" style="fill: none; stroke-width: 5.84066; stroke: rgb(139, 195, 74); stroke-opacity: 0.4;"><title>YIH(O) &#8594; MED(D):
17</title></path><path class="link" d="M10,363.13692946058086C288,363.13692946058086 288,62.873029045643136 566,62.873029045643136" style="fill: none; stroke-width: 5.4971; stroke: rgb(3, 169, 244); stroke-opacity: 0.4;"><title>UTown(O) &#8594; SCI(D):
16</title></path><path class="link" d="M10,213.7966804979253C288,213.7966804979253 288,550.060580912863 566,550.060580912863" style="fill: none; stroke-width: 5.15353; stroke: rgb(139, 195, 74); stroke-opacity: 0.4;"><title>YIH(O) &#8594; FASS(D):
15</title></path><path class="link" d="M10,420.81908713692945C288,420.81908713692945 288,331.5659751037345 566,331.5659751037345" style="fill: none; stroke-width: 4.46639; stroke: rgb(244, 67, 54); stroke-opacity: 0.4;"><title>FASS(O) &#8594; CCELIB(D):
13</title></path><path class="link" d="M10,338.7809128630705C288,338.7809128630705 288,262.03070539419093 566,262.03070539419093" style="fill: none; stroke-width: 4.46639; stroke: rgb(0, 150, 136); stroke-opacity: 0.4;"><title>YSTCM(O) &#8594; UTown(D):
13</title></path><path class="link" d="M10,315.45560165975104C288,315.45560165975104 288,554.698755186722 566,554.698755186722" style="fill: none; stroke-width: 4.12282; stroke: rgb(156, 39, 176); stroke-opacity: 0.4;"><title>FOE(O) &#8594; FASS(D):
12</title></path><path class="link" d="M10,311.33278008298754C288,311.33278008298754 288,415.62821576763486 566,415.62821576763486" style="fill: none; stroke-width: 4.12282; stroke: rgb(156, 39, 176); stroke-opacity: 0.4;"><title>FOE(O) &#8594; BIZ(D):
12</title></path><path class="link" d="M10,48.27136929460581C288,48.27136929460581 288,232.48381742738593 566,232.48381742738593" style="fill: none; stroke-width: 3.77925; stroke: rgb(255, 235, 59); stroke-opacity: 0.4;"><title>MED(O) &#8594; UTown(D):
11</title></path><path class="link" d="M10,242.27551867219913C288,242.27551867219913 288,134.46970954356846 566,134.46970954356846" style="fill: none; stroke-width: 3.43568; stroke: rgb(156, 39, 176); stroke-opacity: 0.4;"><title>FOE(O) &#8594; MED(D):
10</title></path><path class="link" d="M10,367.6033195020746C288,367.6033195020746 288,138.24896265560164 566,138.24896265560164" style="fill: none; stroke-width: 3.43568; stroke: rgb(3, 169, 244); stroke-opacity: 0.4;"><title>UTown(O) &#8594; MED(D):
10</title></path><path class="link" d="M10,533.6066390041493C288,533.6066390041493 288,514.3668049792531 566,514.3668049792531" style="fill: none; stroke-width: 2.74855; stroke: rgb(121, 85, 72); stroke-opacity: 0.4;"><title>BIZ(O) &#8594; FOE(D):
8</title></path><path class="link" d="M10,140.82572614107886C288,140.82572614107886 288,410.99004149377595 566,410.99004149377595" style="fill: none; stroke-width: 2.40498; stroke: rgb(63, 81, 181); stroke-opacity: 0.4;"><title>SCI(O) &#8594; BIZ(D):
7</title></path><path class="link" d="M10,56.51701244813278C288,56.51701244813278 288,545.250622406639 566,545.250622406639" style="fill: none; stroke-width: 2.40498; stroke: rgb(255, 235, 59); stroke-opacity: 0.4;"><title>MED(O) &#8594; FASS(D):
7</title></path><path class="link" d="M10,191.80829875518674C288,191.80829875518674 288,243.13443983402496 566,243.13443983402496" style="fill: none; stroke-width: 2.40498; stroke: rgb(139, 195, 74); stroke-opacity: 0.4;"><title>YIH(O) &#8594; UTown(D):
7</title></path><path class="link" d="M10,424.25477178423233C288,424.25477178423233 288,388.8672199170125 566,388.8672199170125" style="fill: none; stroke-width: 2.40498; stroke: rgb(244, 67, 54); stroke-opacity: 0.4;"><title>FASS(O) &#8594; SDE(D):
7</title></path><path class="link" d="M10,388.7327800829875C288,388.7327800829875 288,557.9626556016597 566,557.9626556016597" style="fill: none; stroke-width: 2.40498; stroke: rgb(3, 169, 244); stroke-opacity: 0.4;"><title>UTown(O) &#8594; FASS(D):
7</title></path><path class="link" d="M10,528.6248962655601C288,528.6248962655601 288,269.245643153527 566,269.245643153527" style="fill: none; stroke-width: 2.40498; stroke: rgb(121, 85, 72); stroke-opacity: 0.4;"><title>BIZ(O) &#8594; UTown(D):
7</title></path><path class="link" d="M10,461.15103734439833C288,461.15103734439833 288,67.16763485477178 566,67.16763485477178" style="fill: none; stroke-width: 2.40498; stroke: rgb(96, 125, 139); stroke-opacity: 0.4;"><title>CCELIB(O) &#8594; SCI(D):
7</title></path><path class="link" d="M10,376.5360995850622C288,376.5360995850622 288,418.7203319502075 566,418.7203319502075" style="fill: none; stroke-width: 2.06141; stroke: rgb(3, 169, 244); stroke-opacity: 0.4;"><title>UTown(O) &#8594; BIZ(D):
6</title></path><path class="link" d="M10,54.2838174273859C288,54.2838174273859 288,449.0887966804979 566,449.0887966804979" style="fill: none; stroke-width: 2.06141; stroke: rgb(255, 235, 59); stroke-opacity: 0.4;"><title>MED(O) &#8594; FOE(D):
6</title></path><path class="link" d="M10,138.24896265560164C288,138.24896265560164 288,291.88381742738596 566,291.88381742738596" style="fill: none; stroke-width: 2.06141; stroke: rgb(63, 81, 181); stroke-opacity: 0.4;"><title>SCI(O) &#8594; CCELIB(D):
6</title></path><path class="link" d="M10,530.858091286307C288,530.858091286307 288,334.8298755186723 566,334.8298755186723" style="fill: none; stroke-width: 2.06141; stroke: rgb(121, 85, 72); stroke-opacity: 0.4;"><title>BIZ(O) &#8594; CCELIB(D):
6</title></path><path class="link" d="M10,470.5991701244813C288,470.5991701244813 288,267.01244813278015 566,267.01244813278015" style="fill: none; stroke-width: 2.06141; stroke: rgb(96, 125, 139); stroke-opacity: 0.4;"><title>CCELIB(O) &#8594; UTown(D):
6</title></path><path class="link" d="M10,370.1800829875518C288,370.1800829875518 288,196.2746887966805 566,196.2746887966805" style="fill: none; stroke-width: 1.71784; stroke: rgb(3, 169, 244); stroke-opacity: 0.4;"><title>UTown(O) &#8594; YIH(D):
5</title></path><path class="link" d="M10,417.72697095435683C288,417.72697095435683 288,265.1228215767635 566,265.1228215767635" style="fill: none; stroke-width: 1.71784; stroke: rgb(244, 67, 54); stroke-opacity: 0.4;"><title>FASS(O) &#8594; UTown(D):
5</title></path><path class="link" d="M10,526.5634854771783C288,526.5634854771783 288,211.3917012448133 566,211.3917012448133" style="fill: none; stroke-width: 1.71784; stroke: rgb(121, 85, 72); stroke-opacity: 0.4;"><title>BIZ(O) &#8594; YIH(D):
5</title></path><path class="link" d="M10,373.27219917012445C288,373.27219917012445 288,356.78091286307057 566,356.78091286307057" style="fill: none; stroke-width: 1.71784; stroke: rgb(3, 169, 244); stroke-opacity: 0.4;"><title>UTown(O) &#8594; YSTCM(D):
5</title></path><path class="link" d="M10,575.1410788381742C288,575.1410788381742 288,575.1410788381742 566,575.1410788381742" style="fill: none; stroke-width: 1.71784; stroke: rgb(255, 152, 0); stroke-opacity: 0.4;"><title>SDE(O) &#8594; FASS(D):
5</title></path><path class="link" d="M10,371.7261410788381C288,371.7261410788381 288,328.64564315352703 566,328.64564315352703" style="fill: none; stroke-width: 1.37427; stroke: rgb(3, 169, 244); stroke-opacity: 0.4;"><title>UTown(O) &#8594; CCELIB(D):
4</title></path><path class="link" d="M10,374.81825726141074C288,374.81825726141074 288,386.97759336099585 566,386.97759336099585" style="fill: none; stroke-width: 1.37427; stroke: rgb(3, 169, 244); stroke-opacity: 0.4;"><title>UTown(O) &#8594; SDE(D):
4</title></path><path class="link" d="M10,341.7012448132779C288,341.7012448132779 288,468.67219917012443 566,468.67219917012443" style="fill: none; stroke-width: 1.37427; stroke: rgb(0, 150, 136); stroke-opacity: 0.4;"><title>YSTCM(O) &#8594; FOE(D):
4</title></path><path class="link" d="M10,473.3477178423236C288,473.3477178423236 288,429.0273858921162 566,429.0273858921162" style="fill: none; stroke-width: 1.37427; stroke: rgb(96, 125, 139); stroke-opacity: 0.4;"><title>CCELIB(O) &#8594; BIZ(D):
4</title></path><path class="link" d="M10,201.6C288,201.6 288,412.87966804979254 566,412.87966804979254" style="fill: none; stroke-width: 1.37427; stroke: rgb(139, 195, 74); stroke-opacity: 0.4;"><title>YIH(O) &#8594; BIZ(D):
4</title></path><path class="link" d="M10,408.9659751037344C288,408.9659751037344 288,140.6539419087137 566,140.6539419087137" style="fill: none; stroke-width: 1.37427; stroke: rgb(244, 67, 54); stroke-opacity: 0.4;"><title>FASS(O) &#8594; MED(D):
4</title></path><path class="link" d="M10,50.84813278008299C288,50.84813278008299 288,290.16597510373447 566,290.16597510373447" style="fill: none; stroke-width: 1.37427; stroke: rgb(255, 235, 59); stroke-opacity: 0.4;"><title>MED(O) &#8594; CCELIB(D):
4</title></path><path class="link" d="M10,563.116182572614C288,563.116182572614 288,270.96348547717844 566,270.96348547717844" style="fill: none; stroke-width: 1.03071; stroke: rgb(255, 152, 0); stroke-opacity: 0.4;"><title>SDE(O) &#8594; UTown(D):
3</title></path><path class="link" d="M10,151.47634854771783C288,151.47634854771783 288,546.9684647302904 566,546.9684647302904" style="fill: none; stroke-width: 1.03071; stroke: rgb(63, 81, 181); stroke-opacity: 0.4;"><title>SCI(O) &#8594; FASS(D):
3</title></path><path class="link" d="M10,524.8456431535269C288,524.8456431535269 288,68.88547717842323 566,68.88547717842323" style="fill: none; stroke-width: 1.03071; stroke: rgb(121, 85, 72); stroke-opacity: 0.4;"><title>BIZ(O) &#8594; SCI(D):
3</title></path><path class="link" d="M10,462.8688796680498C288,462.8688796680498 288,141.8564315352697 566,141.8564315352697" style="fill: none; stroke-width: 1.03071; stroke: rgb(96, 125, 139); stroke-opacity: 0.4;"><title>CCELIB(O) &#8594; MED(D):
3</title></path><path class="link" d="M10,299.1360995850622C288,299.1360995850622 288,355.4066390041494 566,355.4066390041494" style="fill: none; stroke-width: 1.03071; stroke: rgb(156, 39, 176); stroke-opacity: 0.4;"><title>FOE(O) &#8594; YSTCM(D):
3</title></path><path class="link" d="M10,336.20414937759335C288,336.20414937759335 288,195.0721991701245 566,195.0721991701245" style="fill: none; stroke-width: 1; stroke: rgb(0, 150, 136); stroke-opacity: 0.4;"><title>YSTCM(O) &#8594; YIH(D):
2</title></path><path class="link" d="M10,472.3170124481328C288,472.3170124481328 288,390.4132780082988 566,390.4132780082988" style="fill: none; stroke-width: 1; stroke: rgb(96, 125, 139); stroke-opacity: 0.4;"><title>CCELIB(O) &#8594; SDE(D):
2</title></path><path class="link" d="M10,561.9136929460581C288,561.9136929460581 288,69.74439834024896 566,69.74439834024896" style="fill: none; stroke-width: 1; stroke: rgb(255, 152, 0); stroke-opacity: 0.4;"><title>SDE(O) &#8594; SCI(D):
2</title></path><path class="link" d="M10,51.87883817427387C288,51.87883817427387 288,354.2041493775934 566,354.2041493775934" style="fill: none; stroke-width: 1; stroke: rgb(255, 235, 59); stroke-opacity: 0.4;"><title>MED(O) &#8594; YSTCM(D):
2</title></path><path class="link" d="M10,52.909543568464734C288,52.909543568464734 288,409.44398340248966 566,409.44398340248966" style="fill: none; stroke-width: 1; stroke: rgb(255, 235, 59); stroke-opacity: 0.4;"><title>MED(O) &#8594; BIZ(D):
2</title></path><path class="link" d="M10,471.80165975103733C288,471.80165975103733 288,357.81161825726144 566,357.81161825726144" style="fill: none; stroke-width: 1; stroke: rgb(96, 125, 139); stroke-opacity: 0.4;"><title>CCELIB(O) &#8594; YSTCM(D):
1</title></path><path class="link" d="M10,408.1070539419087C288,408.1070539419087 288,65.7933609958506 566,65.7933609958506" style="fill: none; stroke-width: 1; stroke: rgb(244, 67, 54); stroke-opacity: 0.4;"><title>FASS(O) &#8594; SCI(D):
1</title></path><path class="link" d="M10,563.8033195020746C288,563.8033195020746 288,429.88630705394195 566,429.88630705394195" style="fill: none; stroke-width: 1; stroke: rgb(255, 152, 0); stroke-opacity: 0.4;"><title>SDE(O) &#8594; BIZ(D):
1</title></path><path class="link" d="M10,335.6887966804979C288,335.6887966804979 288,136.35933609958508 566,136.35933609958508" style="fill: none; stroke-width: 1; stroke: rgb(0, 150, 136); stroke-opacity: 0.4;"><title>YSTCM(O) &#8594; MED(D):
1</title></path><path class="link" d="M10,52.394190871369304C288,52.394190871369304 288,376.15518672199175 566,376.15518672199175" style="fill: none; stroke-width: 1; stroke: rgb(255, 235, 59); stroke-opacity: 0.4;"><title>MED(O) &#8594; SDE(D):
1</title></path><path class="link" d="M10,525.5327800829874C288,525.5327800829874 288,142.5435684647303 566,142.5435684647303" style="fill: none; stroke-width: 1; stroke: rgb(121, 85, 72); stroke-opacity: 0.4;"><title>BIZ(O) &#8594; MED(D):
1</title></path><path class="link" d="M10,200.74107883817427C288,200.74107883817427 288,354.7195020746888 566,354.7195020746888" style="fill: none; stroke-width: 1; stroke: rgb(139, 195, 74); stroke-opacity: 0.4;"><title>YIH(O) &#8594; YSTCM(D):
1</title></path><path class="link" d="M10,562.4290456431535C288,562.4290456431535 288,212.42240663900418 566,212.42240663900418" style="fill: none; stroke-width: 1; stroke: rgb(255, 152, 0); stroke-opacity: 0.4;"><title>SDE(O) &#8594; YIH(D):
1</title></path><path class="link" d="M10,532.060580912863C288,532.060580912863 288,390.92863070539426 566,390.92863070539426" style="fill: none; stroke-width: 1; stroke: rgb(121, 85, 72); stroke-opacity: 0.4;"><title>BIZ(O) &#8594; SDE(D):
1</title></path><path class="link" d="M10,139.45145228215767C288,139.45145228215767 288,376.49875518672206 566,376.49875518672206" style="fill: none; stroke-width: 1; stroke: rgb(63, 81, 181); stroke-opacity: 0.4;"><title>SCI(O) &#8594; SDE(D):
1</title></path></g><g><g class="node" transform="translate(0,459.9485477178423)"><rect height="46.38174273858921" width="10" id="r0" shape-rendering="crispEdges" style="fill: rgb(96, 125, 139); fill-opacity: 0.9; stroke-width: 0; stroke: rgb(15, 58, 88);"><title>CCELIB(O):
135</title></rect><text x="16" y="23.190871369294605" dy=".35em" text-anchor="start" style="stroke-width: 0; font-family: serif; font-size: 15px; font-weight: 400; fill: rgb(0, 0, 0);">CCELIB(O): 135</text></g><g class="node" transform="translate(566,353.8605809128631)"><rect height="4.122821576763485" width="10" id="r1" shape-rendering="crispEdges" style="fill: rgb(0, 150, 136); fill-opacity: 0.9; stroke-width: 0; stroke: rgb(85, 97, 113);"><title>YSTCM(D):
12</title></rect><text x="-6" y="2.0614107883817425" dy=".35em" text-anchor="end" style="stroke-width: 0; font-family: serif; font-size: 15px; font-weight: 400; fill: rgb(0, 0, 0);">YSTCM(D): 12</text></g><g class="node" transform="translate(0,407.93526970954355)"><rect height="34.013278008298755" width="10" id="r2" shape-rendering="crispEdges" style="fill: rgb(244, 67, 54); fill-opacity: 0.9; stroke-width: 0; stroke: rgb(124, 62, 6);"><title>FASS(O):
99</title></rect><text x="16" y="17.006639004149378" dy=".35em" text-anchor="start" style="stroke-width: 0; font-family: serif; font-size: 15px; font-weight: 400; fill: rgb(0, 0, 0);">FASS(O): 99</text></g><g class="node" transform="translate(566,-1.4210854715202004e-14)"><rect height="70.08796680497926" width="10" id="r3" shape-rendering="crispEdges" style="fill: rgb(63, 81, 181); fill-opacity: 0.9; stroke-width: 0; stroke: rgb(124, 91, 58);"><title>SCI(D):
204</title></rect><text x="-6" y="35.04398340248963" dy=".35em" text-anchor="end" style="stroke-width: 0; font-family: serif; font-size: 15px; font-weight: 400; fill: rgb(0, 0, 0);">SCI(D): 204</text></g><g class="node" transform="translate(0,561.5701244813278)"><rect height="14.4298755186722" width="10" id="r4" shape-rendering="crispEdges" style="fill: rgb(255, 152, 0); fill-opacity: 0.9; stroke-width: 0; stroke: rgb(21, 78, 21);"><title>SDE(O):
42</title></rect><text x="16" y="7.2149377593361" dy=".35em" text-anchor="start" style="stroke-width: 0; font-family: serif; font-size: 15px; font-weight: 400; fill: rgb(0, 0, 0);">SDE(O): 42</text></g><g class="node" transform="translate(566,409.10041493775935)"><rect height="20.957676348547718" width="10" id="r5" shape-rendering="crispEdges" style="fill: rgb(121, 85, 72); fill-opacity: 0.9; stroke-width: 0; stroke: rgb(74, 109, 67);"><title>BIZ(D):
61</title></rect><text x="-6" y="10.478838174273859" dy=".35em" text-anchor="end" style="stroke-width: 0; font-family: serif; font-size: 15px; font-weight: 400; fill: rgb(0, 0, 0);">BIZ(D): 61</text></g><g class="node" transform="translate(0,335.51701244813273)"><rect height="6.87136929460581" width="10" id="r6" shape-rendering="crispEdges" style="fill: rgb(0, 150, 136); fill-opacity: 0.9; stroke-width: 0; stroke: rgb(85, 97, 113);"><title>YSTCM(O):
20</title></rect><text x="16" y="3.435684647302905" dy=".35em" text-anchor="start" style="stroke-width: 0; font-family: serif; font-size: 15px; font-weight: 400; fill: rgb(0, 0, 0);">YSTCM(O): 20</text></g><g class="node" transform="translate(566,88.08796680497926)"><rect height="54.62738589211618" width="10" id="r7" shape-rendering="crispEdges" style="fill: rgb(255, 235, 59); fill-opacity: 0.9; stroke-width: 0; stroke: rgb(104, 19, 19);"><title>MED(D):
159</title></rect><text x="-6" y="27.31369294605809" dy=".35em" text-anchor="end" style="stroke-width: 0; font-family: serif; font-size: 15px; font-weight: 400; fill: rgb(0, 0, 0);">MED(D): 159</text></g><g class="node" transform="translate(0,0)"><rect height="57.7195020746888" width="10" id="r8" shape-rendering="crispEdges" style="fill: rgb(255, 235, 59); fill-opacity: 0.9; stroke-width: 0; stroke: rgb(104, 19, 19);"><title>MED(O):
168</title></rect><text x="16" y="28.8597510373444" dy=".35em" text-anchor="start" style="stroke-width: 0; font-family: serif; font-size: 15px; font-weight: 400; fill: rgb(0, 0, 0);">MED(O): 168</text></g><g class="node" transform="translate(566,375.9834024896266)"><rect height="15.11701244813278" width="10" id="r9" shape-rendering="crispEdges" style="fill: rgb(255, 152, 0); fill-opacity: 0.9; stroke-width: 0; stroke: rgb(21, 78, 21);"><title>SDE(D):
44</title></rect><text x="-6" y="7.55850622406639" dy=".35em" text-anchor="end" style="stroke-width: 0; font-family: serif; font-size: 15px; font-weight: 400; fill: rgb(0, 0, 0);">SDE(D): 44</text></g><g class="node" transform="translate(0,524.3302904564315)"><rect height="19.239834024896265" width="10" id="r10" shape-rendering="crispEdges" style="fill: rgb(121, 85, 72); fill-opacity: 0.9; stroke-width: 0; stroke: rgb(74, 109, 67);"><title>BIZ(O):
56</title></rect><text x="16" y="9.619917012448132" dy=".35em" text-anchor="start" style="stroke-width: 0; font-family: serif; font-size: 15px; font-weight: 400; fill: rgb(0, 0, 0);">BIZ(O): 56</text></g><g class="node" transform="translate(0,169.99170124481327)"><rect height="46.38174273858921" width="10" id="r11" shape-rendering="crispEdges" style="fill: rgb(139, 195, 74); fill-opacity: 0.9; stroke-width: 0; stroke: rgb(124, 74, 73);"><title>YIH(O):
135</title></rect><text x="16" y="23.190871369294605" dy=".35em" text-anchor="start" style="stroke-width: 0; font-family: serif; font-size: 15px; font-weight: 400; fill: rgb(0, 0, 0);">YIH(O): 135</text></g><g class="node" transform="translate(566,160.71535269709545)"><rect height="51.87883817427386" width="10" id="r12" shape-rendering="crispEdges" style="fill: rgb(139, 195, 74); fill-opacity: 0.9; stroke-width: 0; stroke: rgb(124, 74, 73);"><title>YIH(D):
151</title></rect><text x="-6" y="25.93941908713693" dy=".35em" text-anchor="end" style="stroke-width: 0; font-family: serif; font-size: 15px; font-weight: 400; fill: rgb(0, 0, 0);">YIH(D): 151</text></g><g class="node" transform="translate(0,75.71950207468879)"><rect height="76.27219917012448" width="10" id="r13" shape-rendering="crispEdges" style="fill: rgb(63, 81, 181); fill-opacity: 0.9; stroke-width: 0; stroke: rgb(124, 91, 58);"><title>SCI(O):
222</title></rect><text x="16" y="38.13609958506224" dy=".35em" text-anchor="start" style="stroke-width: 0; font-family: serif; font-size: 15px; font-weight: 400; fill: rgb(0, 0, 0);">SCI(O): 222</text></g><g class="node" transform="translate(566,230.59419087136934)"><rect height="40.88464730290456" width="10" id="r14" shape-rendering="crispEdges" style="fill: rgb(3, 169, 244); fill-opacity: 0.9; stroke-width: 0; stroke: rgb(72, 50, 92);"><title>UTown(D):
119</title></rect><text x="-6" y="20.44232365145228" dy=".35em" text-anchor="end" style="stroke-width: 0; font-family: serif; font-size: 15px; font-weight: 400; fill: rgb(0, 0, 0);">UTown(D): 119</text></g><g class="node" transform="translate(566,544.0481327800829)"><rect height="31.951867219917013" width="10" id="r15" shape-rendering="crispEdges" style="fill: rgb(244, 67, 54); fill-opacity: 0.9; stroke-width: 0; stroke: rgb(124, 62, 6);"><title>FASS(D):
93</title></rect><text x="-6" y="15.975933609958506" dy=".35em" text-anchor="end" style="stroke-width: 0; font-family: serif; font-size: 15px; font-weight: 400; fill: rgb(0, 0, 0);">FASS(D): 93</text></g><g class="node" transform="translate(0,234.37344398340247)"><rect height="83.1435684647303" width="10" id="r16" shape-rendering="crispEdges" style="fill: rgb(156, 39, 176); fill-opacity: 0.9; stroke-width: 0; stroke: rgb(96, 86, 104);"><title>FOE(O):
242</title></rect><text x="16" y="41.57178423236515" dy=".35em" text-anchor="start" style="stroke-width: 0; font-family: serif; font-size: 15px; font-weight: 400; fill: rgb(0, 0, 0);">FOE(O): 242</text></g><g class="node" transform="translate(0,360.38838174273855)"><rect height="29.54688796680498" width="10" id="r17" shape-rendering="crispEdges" style="fill: rgb(3, 169, 244); fill-opacity: 0.9; stroke-width: 0; stroke: rgb(72, 50, 92);"><title>UTown(O):
86</title></rect><text x="16" y="14.77344398340249" dy=".35em" text-anchor="start" style="stroke-width: 0; font-family: serif; font-size: 15px; font-weight: 400; fill: rgb(0, 0, 0);">UTown(O): 86</text></g><g class="node" transform="translate(566,289.4788381742739)"><rect height="46.38174273858921" width="10" id="r18" shape-rendering="crispEdges" style="fill: rgb(96, 125, 139); fill-opacity: 0.9; stroke-width: 0; stroke: rgb(15, 58, 88);"><title>CCELIB(D):
135</title></rect><text x="-6" y="23.190871369294605" dy=".35em" text-anchor="end" style="stroke-width: 0; font-family: serif; font-size: 15px; font-weight: 400; fill: rgb(0, 0, 0);">CCELIB(D): 135</text></g><g class="node" transform="translate(566,448.05809128630705)"><rect height="77.99004149377593" width="10" id="r19" shape-rendering="crispEdges" style="fill: rgb(156, 39, 176); fill-opacity: 0.9; stroke-width: 0; stroke: rgb(96, 86, 104);"><title>FOE(D):
227</title></rect><text x="-6" y="38.99502074688797" dy=".35em" text-anchor="end" style="stroke-width: 0; font-family: serif; font-size: 15px; font-weight: 400; fill: rgb(0, 0, 0);">FOE(D): 227</text></g></g></g></g></svg>