<svg id="sankey_svg" height="600" width="600" xmlns="http://www.w3.org/2000/svg" version="1.1"><title>Your Diagram Title</title><!-- Generated with SankeyMATIC on Sat Dec 29 2018 20:22:25 GMT+0800 (Singapore Standard Time)--><g><rect width="100%" height="100%" fill="rgb(255, 255, 255)"></rect><g transform="translate(12,12)"><g><path class="link" d="M10,17.10381355932205C288,17.10381355932205 288,17.10381355932207 566,17.10381355932207" style="fill: none; stroke-width: 34.2076; stroke: rgb(255, 235, 59); stroke-opacity: 0.4;"><title>MED(O) &#8594; SCI(D):
117</title></path><path class="link" d="M10,559.042372881356C288,559.042372881356 288,559.042372881356 566,559.042372881356" style="fill: none; stroke-width: 33.9153; stroke: rgb(63, 81, 181); stroke-opacity: 0.4;"><title>SCI(O) &#8594; MED(D):
116</title></path><path class="link" d="M10,473.94279661016947C288,473.94279661016947 288,484.1758474576271 566,484.1758474576271" style="fill: none; stroke-width: 27.1907; stroke: rgb(96, 125, 139); stroke-opacity: 0.4;"><title>CCELIB(O) &#8594; FOE(D):
93</title></path><path class="link" d="M10,93.87076271186442C288,93.87076271186442 288,102.34957627118646 566,102.34957627118646" style="fill: none; stroke-width: 24.2669; stroke: rgb(156, 39, 176); stroke-opacity: 0.4;"><title>FOE(O) &#8594; CCELIB(D):
83</title></path><path class="link" d="M10,526.1504237288135C288,526.1504237288135 288,364.84957627118644 566,364.84957627118644" style="fill: none; stroke-width: 17.25; stroke: rgb(63, 81, 181); stroke-opacity: 0.4;"><title>SCI(O) &#8594; YIH(D):
59</title></path><path class="link" d="M10,176.33898305084745C288,176.33898305084745 288,50.58050847457631 566,50.58050847457631" style="fill: none; stroke-width: 16.9576; stroke: rgb(139, 195, 74); stroke-opacity: 0.4;"><title>YIH(O) &#8594; SCI(D):
58</title></path><path class="link" d="M10,135.6800847457627C288,135.6800847457627 288,323.625 566,323.625" style="fill: none; stroke-width: 16.6653; stroke: rgb(156, 39, 176); stroke-opacity: 0.4;"><title>FOE(O) &#8594; YIH(D):
57</title></path><path class="link" d="M10,218.73305084745763C288,218.73305084745763 288,438.1271186440678 566,438.1271186440678" style="fill: none; stroke-width: 15.2034; stroke: rgb(139, 195, 74); stroke-opacity: 0.4;"><title>YIH(O) &#8594; FOE(D):
52</title></path><path class="link" d="M10,190.51906779661016C288,190.51906779661016 288,120.18432203389833 566,120.18432203389833" style="fill: none; stroke-width: 11.4025; stroke: rgb(139, 195, 74); stroke-opacity: 0.4;"><title>YIH(O) &#8594; CCELIB(D):
39</title></path><path class="link" d="M10,454.20762711864404C288,454.20762711864404 288,351.5466101694915 566,351.5466101694915" style="fill: none; stroke-width: 9.35593; stroke: rgb(96, 125, 139); stroke-opacity: 0.4;"><title>CCELIB(O) &#8594; YIH(D):
32</title></path><path class="link" d="M10,49.11864406779662C288,49.11864406779662 288,310.90677966101697 566,310.90677966101697" style="fill: none; stroke-width: 8.77119; stroke: rgb(255, 235, 59); stroke-opacity: 0.4;"><title>MED(O) &#8594; YIH(D):
30</title></path><path class="link" d="M10,311.45338983050846C288,311.45338983050846 288,452.45338983050846 566,452.45338983050846" style="fill: none; stroke-width: 8.18644; stroke: rgb(3, 169, 244); stroke-opacity: 0.4;"><title>UTown(O) &#8594; FOE(D):
28</title></path><path class="link" d="M10,77.79025423728814C288,77.79025423728814 288,38.15466101694919 566,38.15466101694919" style="fill: none; stroke-width: 7.89407; stroke: rgb(156, 39, 176); stroke-opacity: 0.4;"><title>FOE(O) &#8594; SCI(D):
27</title></path><path class="link" d="M10,230.28177966101694C288,230.28177966101694 288,529.6588983050848 566,529.6588983050848" style="fill: none; stroke-width: 7.89407; stroke: rgb(139, 195, 74); stroke-opacity: 0.4;"><title>YIH(O) &#8594; MED(D):
27</title></path><path class="link" d="M10,259.8305084745763C288,259.8305084745763 288,275.36440677966107 566,275.36440677966107" style="fill: none; stroke-width: 7.60169; stroke: rgb(121, 85, 72); stroke-opacity: 0.4;"><title>BIZ(O) &#8594; FASS(D):
26</title></path><path class="link" d="M10,355.47457627118644C288,355.47457627118644 288,404.6313559322034 566,404.6313559322034" style="fill: none; stroke-width: 7.60169; stroke: rgb(244, 67, 54); stroke-opacity: 0.4;"><title>FASS(O) &#8594; BIZ(D):
26</title></path><path class="link" d="M10,117.11440677966102C288,117.11440677966102 288,220.52542372881362 566,220.52542372881362" style="fill: none; stroke-width: 7.60169; stroke: rgb(156, 39, 176); stroke-opacity: 0.4;"><title>FOE(O) &#8594; UTown(D):
26</title></path><path class="link" d="M10,363.07627118644064C288,363.07627118644064 288,460.3474576271187 566,460.3474576271187" style="fill: none; stroke-width: 7.60169; stroke: rgb(244, 67, 54); stroke-opacity: 0.4;"><title>FASS(O) &#8594; FOE(D):
26</title></path><path class="link" d="M10,109.95127118644068C288,109.95127118644068 288,185.42161016949154 566,185.42161016949154" style="fill: none; stroke-width: 6.72458; stroke: rgb(156, 39, 176); stroke-opacity: 0.4;"><title>FOE(O) &#8594; SDE(D):
23</title></path><path class="link" d="M10,124.13135593220339C288,124.13135593220339 288,264.5466101694916 566,264.5466101694916" style="fill: none; stroke-width: 6.4322; stroke: rgb(156, 39, 176); stroke-opacity: 0.4;"><title>FOE(O) &#8594; FASS(D):
22</title></path><path class="link" d="M10,539.0148305084746C288,539.0148305084746 288,500.84110169491527 566,500.84110169491527" style="fill: none; stroke-width: 6.13983; stroke: rgb(63, 81, 181); stroke-opacity: 0.4;"><title>SCI(O) &#8594; FOE(D):
21</title></path><path class="link" d="M10,40.20127118644069C288,40.20127118644069 288,213.6546610169492 566,213.6546610169492" style="fill: none; stroke-width: 6.13983; stroke: rgb(255, 235, 59); stroke-opacity: 0.4;"><title>MED(O) &#8594; UTown(D):
21</title></path><path class="link" d="M10,393.50211864406776C288,393.50211864406776 288,466.92584745762707 566,466.92584745762707" style="fill: none; stroke-width: 5.55508; stroke: rgb(255, 152, 0); stroke-opacity: 0.4;"><title>SDE(O) &#8594; FOE(D):
19</title></path><path class="link" d="M10,446.89830508474574C288,446.89830508474574 288,284.42796610169495 566,284.42796610169495" style="fill: none; stroke-width: 5.26271; stroke: rgb(96, 125, 139); stroke-opacity: 0.4;"><title>CCELIB(O) &#8594; FASS(D):
18</title></path><path class="link" d="M10,296.103813559322C288,296.103813559322 288,128.66313559322035 566,128.66313559322035" style="fill: none; stroke-width: 4.97034; stroke: rgb(3, 169, 244); stroke-opacity: 0.4;"><title>UTown(O) &#8594; CCELIB(D):
17</title></path><path class="link" d="M10,200.45974576271186C288,200.45974576271186 288,226.81144067796615 566,226.81144067796615" style="fill: none; stroke-width: 4.97034; stroke: rgb(139, 195, 74); stroke-opacity: 0.4;"><title>YIH(O) &#8594; UTown(D):
17</title></path><path class="link" d="M10,513.5783898305084C288,513.5783898305084 288,239.38347457627123 566,239.38347457627123" style="fill: none; stroke-width: 4.97034; stroke: rgb(63, 81, 181); stroke-opacity: 0.4;"><title>SCI(O) &#8594; UTown(D):
17</title></path><path class="link" d="M10,342.9025423728813C288,342.9025423728813 288,133.48728813559325 566,133.48728813559325" style="fill: none; stroke-width: 4.67797; stroke: rgb(244, 67, 54); stroke-opacity: 0.4;"><title>FASS(O) &#8594; CCELIB(D):
16</title></path><path class="link" d="M10,349.3347457627118C288,349.3347457627118 288,343.06779661016947 566,343.06779661016947" style="fill: none; stroke-width: 4.67797; stroke: rgb(244, 67, 54); stroke-opacity: 0.4;"><title>FASS(O) &#8594; YIH(D):
16</title></path><path class="link" d="M10,303.4131355932203C288,303.4131355932203 288,338.53601694915255 566,338.53601694915255" style="fill: none; stroke-width: 4.38559; stroke: rgb(3, 169, 244); stroke-opacity: 0.4;"><title>UTown(O) &#8594; YIH(D):
15</title></path><path class="link" d="M10,208.9385593220339C288,208.9385593220339 288,396.88347457627117 566,396.88347457627117" style="fill: none; stroke-width: 4.38559; stroke: rgb(139, 195, 74); stroke-opacity: 0.4;"><title>YIH(O) &#8594; BIZ(D):
15</title></path><path class="link" d="M10,265.8241525423729C288,265.8241525423729 288,334.15042372881356 566,334.15042372881356" style="fill: none; stroke-width: 4.38559; stroke: rgb(121, 85, 72); stroke-opacity: 0.4;"><title>BIZ(O) &#8594; YIH(D):
15</title></path><path class="link" d="M10,291.42584745762707C288,291.42584745762707 288,62.42161016949157 566,62.42161016949157" style="fill: none; stroke-width: 4.38559; stroke: rgb(3, 169, 244); stroke-opacity: 0.4;"><title>UTown(O) &#8594; SCI(D):
15</title></path><path class="link" d="M10,317.73940677966095C288,317.73940677966095 288,536.3834745762712 566,536.3834745762712" style="fill: none; stroke-width: 4.38559; stroke: rgb(3, 169, 244); stroke-opacity: 0.4;"><title>UTown(O) &#8594; MED(D):
15</title></path><path class="link" d="M10,204.84533898305085C288,204.84533898305085 288,269.6631355932204 566,269.6631355932204" style="fill: none; stroke-width: 3.80085; stroke: rgb(139, 195, 74); stroke-opacity: 0.4;"><title>YIH(O) &#8594; FASS(D):
13</title></path><path class="link" d="M10,147.95974576271186C288,147.95974576271186 288,523.8114406779661 566,523.8114406779661" style="fill: none; stroke-width: 3.80085; stroke: rgb(156, 39, 176); stroke-opacity: 0.4;"><title>FOE(O) &#8594; MED(D):
13</title></path><path class="link" d="M10,387.50847457627117C288,387.50847457627117 288,137.58050847457628 566,137.58050847457628" style="fill: none; stroke-width: 3.50847; stroke: rgb(255, 152, 0); stroke-opacity: 0.4;"><title>SDE(O) &#8594; CCELIB(D):
12</title></path><path class="link" d="M10,442.51271186440675C288,442.51271186440675 288,235.14406779661022 566,235.14406779661022" style="fill: none; stroke-width: 3.50847; stroke: rgb(96, 125, 139); stroke-opacity: 0.4;"><title>CCELIB(O) &#8594; UTown(D):
12</title></path><path class="link" d="M10,339.2478813559322C288,339.2478813559322 288,65.93008474576276 566,65.93008474576276" style="fill: none; stroke-width: 2.63136; stroke: rgb(244, 67, 54); stroke-opacity: 0.4;"><title>FASS(O) &#8594; SCI(D):
9</title></path><path class="link" d="M10,439.44279661016947C288,439.44279661016947 288,190.97669491525426 566,190.97669491525426" style="fill: none; stroke-width: 2.63136; stroke: rgb(96, 125, 139); stroke-opacity: 0.4;"><title>CCELIB(O) &#8594; SDE(D):
9</title></path><path class="link" d="M10,509.4851694915254C288,509.4851694915254 288,140.6504237288136 566,140.6504237288136" style="fill: none; stroke-width: 2.63136; stroke: rgb(63, 81, 181); stroke-opacity: 0.4;"><title>SCI(O) &#8594; CCELIB(D):
9</title></path><path class="link" d="M10,269.33262711864404C288,269.33262711864404 288,447.0444915254237 566,447.0444915254237" style="fill: none; stroke-width: 2.63136; stroke: rgb(121, 85, 72); stroke-opacity: 0.4;"><title>BIZ(O) &#8594; FOE(D):
9</title></path><path class="link" d="M10,436.51906779661016C288,436.51906779661016 288,68.85381355932206 566,68.85381355932206" style="fill: none; stroke-width: 2.63136; stroke: rgb(96, 125, 139); stroke-opacity: 0.4;"><title>CCELIB(O) &#8594; SCI(D):
9</title></path><path class="link" d="M10,488.853813559322C288,488.853813559322 288,540.7690677966102 566,540.7690677966102" style="fill: none; stroke-width: 2.63136; stroke: rgb(96, 125, 139); stroke-opacity: 0.4;"><title>CCELIB(O) &#8594; MED(D):
9</title></path><path class="link" d="M10,300.19703389830505C288,300.19703389830505 288,280.18855932203394 566,280.18855932203394" style="fill: none; stroke-width: 2.04661; stroke: rgb(3, 169, 244); stroke-opacity: 0.4;"><title>UTown(O) &#8594; FASS(D):
7</title></path><path class="link" d="M10,145.03601694915255C288,145.03601694915255 288,393.6673728813559 566,393.6673728813559" style="fill: none; stroke-width: 2.04661; stroke: rgb(156, 39, 176); stroke-opacity: 0.4;"><title>FOE(O) &#8594; BIZ(D):
7</title></path><path class="link" d="M10,35.23093220338985C288,35.23093220338985 288,89.19279661016951 566,89.19279661016951" style="fill: none; stroke-width: 2.04661; stroke: rgb(255, 235, 59); stroke-opacity: 0.4;"><title>MED(O) &#8594; CCELIB(D):
7</title></path><path class="link" d="M10,306.4830508474576C288,306.4830508474576 288,399.9533898305085 566,399.9533898305085" style="fill: none; stroke-width: 1.75424; stroke: rgb(3, 169, 244); stroke-opacity: 0.4;"><title>UTown(O) &#8594; BIZ(D):
6</title></path><path class="link" d="M10,255.15254237288133C288,255.15254237288133 288,230.17372881355936 566,230.17372881355936" style="fill: none; stroke-width: 1.75424; stroke: rgb(121, 85, 72); stroke-opacity: 0.4;"><title>BIZ(O) &#8594; UTown(D):
6</title></path><path class="link" d="M10,516.7944915254237C288,516.7944915254237 288,287.7902542372882 566,287.7902542372882" style="fill: none; stroke-width: 1.46186; stroke: rgb(63, 81, 181); stroke-opacity: 0.4;"><title>SCI(O) &#8594; FASS(D):
5</title></path><path class="link" d="M10,346.2648305084746C288,346.2648305084746 288,231.78177966101703 566,231.78177966101703" style="fill: none; stroke-width: 1.46186; stroke: rgb(244, 67, 54); stroke-opacity: 0.4;"><title>FASS(O) &#8594; UTown(D):
5</title></path><path class="link" d="M10,44.00211864406781C288,44.00211864406781 288,260.5995762711865 566,260.5995762711865" style="fill: none; stroke-width: 1.46186; stroke: rgb(255, 235, 59); stroke-opacity: 0.4;"><title>MED(O) &#8594; FASS(D):
5</title></path><path class="link" d="M10,459.61652542372883C288,459.61652542372883 288,409.4555084745763 566,409.4555084745763" style="fill: none; stroke-width: 1.46186; stroke: rgb(96, 125, 139); stroke-opacity: 0.4;"><title>CCELIB(O) &#8594; BIZ(D):
5</title></path><path class="link" d="M10,535.3601694915254C288,535.3601694915254 288,410.771186440678 566,410.771186440678" style="fill: none; stroke-width: 1.16949; stroke: rgb(63, 81, 181); stroke-opacity: 0.4;"><title>SCI(O) &#8594; BIZ(D):
4</title></path><path class="link" d="M10,54.08898305084747C288,54.08898305084747 288,392.0593220338983 566,392.0593220338983" style="fill: none; stroke-width: 1.16949; stroke: rgb(255, 235, 59); stroke-opacity: 0.4;"><title>MED(O) &#8594; BIZ(D):
4</title></path><path class="link" d="M10,252.81355932203388C288,252.81355932203388 288,59.64406779661021 566,59.64406779661021" style="fill: none; stroke-width: 1.16949; stroke: rgb(121, 85, 72); stroke-opacity: 0.4;"><title>BIZ(O) &#8594; SCI(D):
4</title></path><path class="link" d="M10,55.2584745762712C288,55.2584745762712 288,429.9406779661017 566,429.9406779661017" style="fill: none; stroke-width: 1.16949; stroke: rgb(255, 235, 59); stroke-opacity: 0.4;"><title>MED(O) &#8594; FOE(D):
4</title></path><path class="link" d="M10,197.53601694915255C288,197.53601694915255 288,189.22245762711867 566,189.22245762711867" style="fill: none; stroke-width: 1; stroke: rgb(139, 195, 74); stroke-opacity: 0.4;"><title>YIH(O) &#8594; SDE(D):
3</title></path><path class="link" d="M10,36.6927966101695C288,36.6927966101695 288,160.40466101694918 566,160.40466101694918" style="fill: none; stroke-width: 1; stroke: rgb(255, 235, 59); stroke-opacity: 0.4;"><title>MED(O) &#8594; YSTCM(D):
3</title></path><path class="link" d="M10,416.7648305084746C288,416.7648305084746 288,470.1419491525424 566,470.1419491525424" style="fill: none; stroke-width: 1; stroke: rgb(0, 150, 136); stroke-opacity: 0.4;"><title>YSTCM(O) &#8594; FOE(D):
3</title></path><path class="link" d="M10,196.65889830508476C288,196.65889830508476 288,161.86652542372883 566,161.86652542372883" style="fill: none; stroke-width: 1; stroke: rgb(139, 195, 74); stroke-opacity: 0.4;"><title>YIH(O) &#8594; YSTCM(D):
3</title></path><path class="link" d="M10,367.31567796610165C288,367.31567796610165 288,539.0148305084746 566,539.0148305084746" style="fill: none; stroke-width: 1; stroke: rgb(244, 67, 54); stroke-opacity: 0.4;"><title>FASS(O) &#8594; MED(D):
3</title></path><path class="link" d="M10,415.59533898305085C288,415.59533898305085 288,346.4300847457627 566,346.4300847457627" style="fill: none; stroke-width: 1; stroke: rgb(0, 150, 136); stroke-opacity: 0.4;"><title>YSTCM(O) &#8594; YIH(D):
3</title></path><path class="link" d="M10,389.5550847457627C288,389.5550847457627 288,232.80508474576277 566,232.80508474576277" style="fill: none; stroke-width: 1; stroke: rgb(255, 152, 0); stroke-opacity: 0.4;"><title>SDE(O) &#8594; UTown(D):
2</title></path><path class="link" d="M10,298.8813559322034C288,298.8813559322034 288,163.1822033898305 566,163.1822033898305" style="fill: none; stroke-width: 1; stroke: rgb(3, 169, 244); stroke-opacity: 0.4;"><title>UTown(O) &#8594; YSTCM(D):
2</title></path><path class="link" d="M10,106.29661016949153C288,106.29661016949153 288,161.135593220339 566,161.135593220339" style="fill: none; stroke-width: 1; stroke: rgb(156, 39, 176); stroke-opacity: 0.4;"><title>FOE(O) &#8594; YSTCM(D):
2</title></path><path class="link" d="M10,390.43220338983053C288,390.43220338983053 288,345.69915254237293 566,345.69915254237293" style="fill: none; stroke-width: 1; stroke: rgb(255, 152, 0); stroke-opacity: 0.4;"><title>SDE(O) &#8594; YIH(D):
2</title></path><path class="link" d="M10,253.9830508474576C288,253.9830508474576 288,162.59745762711864 566,162.59745762711864" style="fill: none; stroke-width: 1; stroke: rgb(121, 85, 72); stroke-opacity: 0.4;"><title>BIZ(O) &#8594; YSTCM(D):
2</title></path><path class="link" d="M10,270.9406779661017C288,270.9406779661017 288,533.8983050847457 566,533.8983050847457" style="fill: none; stroke-width: 1; stroke: rgb(121, 85, 72); stroke-opacity: 0.4;"><title>BIZ(O) &#8594; MED(D):
2</title></path><path class="link" d="M10,415.010593220339C288,415.010593220339 288,281.6504237288136 566,281.6504237288136" style="fill: none; stroke-width: 1; stroke: rgb(0, 150, 136); stroke-opacity: 0.4;"><title>YSTCM(O) &#8594; FASS(D):
1</title></path><path class="link" d="M10,416.1800847457627C288,416.1800847457627 288,408.5783898305085 566,408.5783898305085" style="fill: none; stroke-width: 1; stroke: rgb(0, 150, 136); stroke-opacity: 0.4;"><title>YSTCM(O) &#8594; BIZ(D):
1</title></path><path class="link" d="M10,437.98093220338984C288,437.98093220338984 288,163.91313559322037 566,163.91313559322037" style="fill: none; stroke-width: 1; stroke: rgb(96, 125, 139); stroke-opacity: 0.4;"><title>CCELIB(O) &#8594; YSTCM(D):
1</title></path><path class="link" d="M10,414.4258474576271C288,414.4258474576271 288,67.39194915254241 566,67.39194915254241" style="fill: none; stroke-width: 1; stroke: rgb(0, 150, 136); stroke-opacity: 0.4;"><title>YSTCM(O) &#8594; SCI(D):
1</title></path><path class="link" d="M10,414.7182203389831C288,414.7182203389831 288,233.24364406779668 566,233.24364406779668" style="fill: none; stroke-width: 1; stroke: rgb(0, 150, 136); stroke-opacity: 0.4;"><title>YSTCM(O) &#8594; UTown(D):
1</title></path><path class="link" d="M10,389.9936440677966C288,389.9936440677966 288,281.35805084745766 566,281.35805084745766" style="fill: none; stroke-width: 1; stroke: rgb(255, 152, 0); stroke-opacity: 0.4;"><title>SDE(O) &#8594; FASS(D):
1</title></path><path class="link" d="M10,253.54449152542372C288,253.54449152542372 288,126.03177966101697 566,126.03177966101697" style="fill: none; stroke-width: 1; stroke: rgb(121, 85, 72); stroke-opacity: 0.4;"><title>BIZ(O) &#8594; CCELIB(D):
1</title></path><path class="link" d="M10,345.38771186440675C288,345.38771186440675 288,163.62076271186444 566,163.62076271186444" style="fill: none; stroke-width: 1; stroke: rgb(244, 67, 54); stroke-opacity: 0.4;"><title>FASS(O) &#8594; YSTCM(D):
1</title></path><path class="link" d="M10,510.9470338983051C288,510.9470338983051 288,192.43855932203394 566,192.43855932203394" style="fill: none; stroke-width: 1; stroke: rgb(63, 81, 181); stroke-opacity: 0.4;"><title>SCI(O) &#8594; SDE(D):
1</title></path></g><g><g class="node" transform="translate(0,414.27966101694915)"><rect height="2.923728813559322" width="10" id="r0" shape-rendering="crispEdges" style="fill: rgb(0, 150, 136); fill-opacity: 0.9; stroke-width: 0; stroke: rgb(15, 58, 88);"><title>YSTCM(O):
10</title></rect><text x="16" y="1.461864406779661" dy=".35em" text-anchor="start" style="stroke-width: 0; font-family: serif; font-size: 15px; font-weight: 400; fill: rgb(0, 0, 0);">YSTCM(O): 10</text></g><g class="node" transform="translate(566,259.86864406779665)"><rect height="28.652542372881356" width="10" id="r1" shape-rendering="crispEdges" style="fill: rgb(244, 67, 54); fill-opacity: 0.9; stroke-width: 0; stroke: rgb(85, 97, 113);"><title>FASS(D):
98</title></rect><text x="-6" y="14.326271186440678" dy=".35em" text-anchor="end" style="stroke-width: 0; font-family: serif; font-size: 15px; font-weight: 400; fill: rgb(0, 0, 0);">FASS(D): 98</text></g><g class="node" transform="translate(566,391.47457627118644)"><rect height="19.88135593220339" width="10" id="r2" shape-rendering="crispEdges" style="fill: rgb(121, 85, 72); fill-opacity: 0.9; stroke-width: 0; stroke: rgb(124, 62, 6);"><title>BIZ(D):
68</title></rect><text x="-6" y="9.940677966101696" dy=".35em" text-anchor="end" style="stroke-width: 0; font-family: serif; font-size: 15px; font-weight: 400; fill: rgb(0, 0, 0);">BIZ(D): 68</text></g><g class="node" transform="translate(0,435.20338983050846)"><rect height="54.96610169491525" width="10" id="r3" shape-rendering="crispEdges" style="fill: rgb(96, 125, 139); fill-opacity: 0.9; stroke-width: 0; stroke: rgb(124, 91, 58);"><title>CCELIB(O):
188</title></rect><text x="16" y="27.483050847457626" dy=".35em" text-anchor="start" style="stroke-width: 0; font-family: serif; font-size: 15px; font-weight: 400; fill: rgb(0, 0, 0);">CCELIB(O): 188</text></g><g class="node" transform="translate(566,159.96610169491527)"><rect height="4.093220338983051" width="10" id="r4" shape-rendering="crispEdges" style="fill: rgb(0, 150, 136); fill-opacity: 0.9; stroke-width: 0; stroke: rgb(15, 58, 88);"><title>YSTCM(D):
14</title></rect><text x="-6" y="2.0466101694915255" dy=".35em" text-anchor="end" style="stroke-width: 0; font-family: serif; font-size: 15px; font-weight: 400; fill: rgb(0, 0, 0);">YSTCM(D): 14</text></g><g class="node" transform="translate(566,3.552713678800501e-14)"><rect height="70.16949152542372" width="10" id="r5" shape-rendering="crispEdges" style="fill: rgb(63, 81, 181); fill-opacity: 0.9; stroke-width: 0; stroke: rgb(21, 78, 21);"><title>SCI(D):
240</title></rect><text x="-6" y="35.08474576271186" dy=".35em" text-anchor="end" style="stroke-width: 0; font-family: serif; font-size: 15px; font-weight: 400; fill: rgb(0, 0, 0);">SCI(D): 240</text></g><g class="node" transform="translate(566,210.58474576271192)"><rect height="31.283898305084744" width="10" id="r6" shape-rendering="crispEdges" style="fill: rgb(3, 169, 244); fill-opacity: 0.9; stroke-width: 0; stroke: rgb(74, 109, 67);"><title>UTown(D):
107</title></rect><text x="-6" y="15.641949152542372" dy=".35em" text-anchor="end" style="stroke-width: 0; font-family: serif; font-size: 15px; font-weight: 400; fill: rgb(0, 0, 0);">UTown(D): 107</text></g><g class="node" transform="translate(0,385.7542372881356)"><rect height="10.525423728813559" width="10" id="r7" shape-rendering="crispEdges" style="fill: rgb(255, 152, 0); fill-opacity: 0.9; stroke-width: 0; stroke: rgb(104, 19, 19);"><title>SDE(O):
36</title></rect><text x="16" y="5.262711864406779" dy=".35em" text-anchor="start" style="stroke-width: 0; font-family: serif; font-size: 15px; font-weight: 400; fill: rgb(0, 0, 0);">SDE(O): 36</text></g><g class="node" transform="translate(0,252.22881355932202)"><rect height="19.00423728813559" width="10" id="r8" shape-rendering="crispEdges" style="fill: rgb(121, 85, 72); fill-opacity: 0.9; stroke-width: 0; stroke: rgb(124, 62, 6);"><title>BIZ(O):
65</title></rect><text x="16" y="9.502118644067796" dy=".35em" text-anchor="start" style="stroke-width: 0; font-family: serif; font-size: 15px; font-weight: 400; fill: rgb(0, 0, 0);">BIZ(O): 65</text></g><g class="node" transform="translate(566,88.16949152542375)"><rect height="53.79661016949152" width="10" id="r9" shape-rendering="crispEdges" style="fill: rgb(96, 125, 139); fill-opacity: 0.9; stroke-width: 0; stroke: rgb(124, 91, 58);"><title>CCELIB(D):
184</title></rect><text x="-6" y="26.89830508474576" dy=".35em" text-anchor="end" style="stroke-width: 0; font-family: serif; font-size: 15px; font-weight: 400; fill: rgb(0, 0, 0);">CCELIB(D): 184</text></g><g class="node" transform="translate(0,337.9322033898305)"><rect height="29.822033898305083" width="10" id="r10" shape-rendering="crispEdges" style="fill: rgb(244, 67, 54); fill-opacity: 0.9; stroke-width: 0; stroke: rgb(85, 97, 113);"><title>FASS(O):
102</title></rect><text x="16" y="14.911016949152541" dy=".35em" text-anchor="start" style="stroke-width: 0; font-family: serif; font-size: 15px; font-weight: 400; fill: rgb(0, 0, 0);">FASS(O): 102</text></g><g class="node" transform="translate(0,508.1694915254237)"><rect height="67.83050847457628" width="10" id="r11" shape-rendering="crispEdges" style="fill: rgb(63, 81, 181); fill-opacity: 0.9; stroke-width: 0; stroke: rgb(21, 78, 21);"><title>SCI(O):
232</title></rect><text x="16" y="33.91525423728814" dy=".35em" text-anchor="start" style="stroke-width: 0; font-family: serif; font-size: 15px; font-weight: 400; fill: rgb(0, 0, 0);">SCI(O): 232</text></g><g class="node" transform="translate(566,182.05932203389833)"><rect height="10.525423728813559" width="10" id="r12" shape-rendering="crispEdges" style="fill: rgb(255, 152, 0); fill-opacity: 0.9; stroke-width: 0; stroke: rgb(104, 19, 19);"><title>SDE(D):
36</title></rect><text x="-6" y="5.262711864406779" dy=".35em" text-anchor="end" style="stroke-width: 0; font-family: serif; font-size: 15px; font-weight: 400; fill: rgb(0, 0, 0);">SDE(D): 36</text></g><g class="node" transform="translate(0,289.2330508474576)"><rect height="30.699152542372882" width="10" id="r13" shape-rendering="crispEdges" style="fill: rgb(3, 169, 244); fill-opacity: 0.9; stroke-width: 0; stroke: rgb(74, 109, 67);"><title>UTown(O):
105</title></rect><text x="16" y="15.349576271186441" dy=".35em" text-anchor="start" style="stroke-width: 0; font-family: serif; font-size: 15px; font-weight: 400; fill: rgb(0, 0, 0);">UTown(O): 105</text></g><g class="node" transform="translate(0,73.84322033898306)"><rect height="76.01694915254237" width="10" id="r14" shape-rendering="crispEdges" style="fill: rgb(156, 39, 176); fill-opacity: 0.9; stroke-width: 0; stroke: rgb(124, 74, 73);"><title>FOE(O):
260</title></rect><text x="16" y="38.00847457627118" dy=".35em" text-anchor="start" style="stroke-width: 0; font-family: serif; font-size: 15px; font-weight: 400; fill: rgb(0, 0, 0);">FOE(O): 260</text></g><g class="node" transform="translate(566,306.521186440678)"><rect height="66.95338983050847" width="10" id="r15" shape-rendering="crispEdges" style="fill: rgb(139, 195, 74); fill-opacity: 0.9; stroke-width: 0; stroke: rgb(72, 50, 92);"><title>YIH(D):
229</title></rect><text x="-6" y="33.476694915254235" dy=".35em" text-anchor="end" style="stroke-width: 0; font-family: serif; font-size: 15px; font-weight: 400; fill: rgb(0, 0, 0);">YIH(D): 229</text></g><g class="node" transform="translate(566,521.9110169491526)"><rect height="54.08898305084746" width="10" id="r16" shape-rendering="crispEdges" style="fill: rgb(255, 235, 59); fill-opacity: 0.9; stroke-width: 0; stroke: rgb(96, 86, 104);"><title>MED(D):
185</title></rect><text x="-6" y="27.04449152542373" dy=".35em" text-anchor="end" style="stroke-width: 0; font-family: serif; font-size: 15px; font-weight: 400; fill: rgb(0, 0, 0);">MED(D): 185</text></g><g class="node" transform="translate(0,167.86016949152543)"><rect height="66.36864406779661" width="10" id="r17" shape-rendering="crispEdges" style="fill: rgb(139, 195, 74); fill-opacity: 0.9; stroke-width: 0; stroke: rgb(72, 50, 92);"><title>YIH(O):
227</title></rect><text x="16" y="33.184322033898304" dy=".35em" text-anchor="start" style="stroke-width: 0; font-family: serif; font-size: 15px; font-weight: 400; fill: rgb(0, 0, 0);">YIH(O): 227</text></g><g class="node" transform="translate(0,1.4210854715202004e-14)"><rect height="55.84322033898305" width="10" id="r18" shape-rendering="crispEdges" style="fill: rgb(255, 235, 59); fill-opacity: 0.9; stroke-width: 0; stroke: rgb(96, 86, 104);"><title>MED(O):
191</title></rect><text x="16" y="27.921610169491526" dy=".35em" text-anchor="start" style="stroke-width: 0; font-family: serif; font-size: 15px; font-weight: 400; fill: rgb(0, 0, 0);">MED(O): 191</text></g><g class="node" transform="translate(566,429.35593220338984)"><rect height="74.55508474576271" width="10" id="r19" shape-rendering="crispEdges" style="fill: rgb(156, 39, 176); fill-opacity: 0.9; stroke-width: 0; stroke: rgb(124, 74, 73);"><title>FOE(D):
255</title></rect><text x="-6" y="37.277542372881356" dy=".35em" text-anchor="end" style="stroke-width: 0; font-family: serif; font-size: 15px; font-weight: 400; fill: rgb(0, 0, 0);">FOE(D): 255</text></g></g></g></g></svg>