<svg id="sankey_svg" height="600" width="600" xmlns="http://www.w3.org/2000/svg" version="1.1"><title>Your Diagram Title</title><!-- Generated with SankeyMATIC on Sat Dec 29 2018 20:25:46 GMT+0800 (Singapore Standard Time)--><g><rect width="100%" height="100%" fill="rgb(255, 255, 255)"></rect><g transform="translate(12,12)"><g><path class="link" d="M10,17.96221133659902C288,17.96221133659902 288,17.96221133659897 566,17.96221133659897" style="fill: none; stroke-width: 35.9244; stroke: rgb(255, 235, 59); stroke-opacity: 0.4;"><title>MED(O) &#8594; SCI(D):
124</title></path><path class="link" d="M10,559.0517844646606C288,559.0517844646606 288,559.0517844646606 566,559.0517844646606" style="fill: none; stroke-width: 33.8964; stroke: rgb(63, 81, 181); stroke-opacity: 0.4;"><title>SCI(O) &#8594; MED(D):
117</title></path><path class="link" d="M10,91.00769769069278C288,91.00769769069278 288,95.93282015395376 566,95.93282015395376" style="fill: none; stroke-width: 17.9622; stroke: rgb(156, 39, 176); stroke-opacity: 0.4;"><title>FOE(O) &#8594; CCELIB(D):
62</title></path><path class="link" d="M10,392.0636808957313C288,392.0636808957313 288,437.58642407277813 566,437.58642407277813" style="fill: none; stroke-width: 16.5136; stroke: rgb(96, 125, 139); stroke-opacity: 0.4;"><title>CCELIB(O) &#8594; FOE(D):
57</title></path><path class="link" d="M10,174.0482855143457C288,174.0482855143457 288,49.106368089573074 566,49.106368089573074" style="fill: none; stroke-width: 16.5136; stroke: rgb(139, 195, 74); stroke-opacity: 0.4;"><title>YIH(O) &#8594; SCI(D):
57</title></path><path class="link" d="M10,133.01609517144857C288,133.01609517144857 288,300.9111266620014 566,300.9111266620014" style="fill: none; stroke-width: 16.2239; stroke: rgb(156, 39, 176); stroke-opacity: 0.4;"><title>FOE(O) &#8594; YIH(D):
56</title></path><path class="link" d="M10,528.631910426872C288,528.631910426872 288,356.1014695591322 566,356.1014695591322" style="fill: none; stroke-width: 15.9342; stroke: rgb(63, 81, 181); stroke-opacity: 0.4;"><title>SCI(O) &#8594; YIH(D):
55</title></path><path class="link" d="M10,189.25822253324003C288,189.25822253324003 288,111.86703988803355 566,111.86703988803355" style="fill: none; stroke-width: 13.9062; stroke: rgb(139, 195, 74); stroke-opacity: 0.4;"><title>YIH(O) &#8594; CCELIB(D):
48</title></path><path class="link" d="M10,376.9986004198741C288,376.9986004198741 288,330.31700489853046 566,330.31700489853046" style="fill: none; stroke-width: 13.6165; stroke: rgb(96, 125, 139); stroke-opacity: 0.4;"><title>CCELIB(O) &#8594; YIH(D):
47</title></path><path class="link" d="M10,218.08467459762073C288,218.08467459762073 288,414.98880335899224 566,414.98880335899224" style="fill: none; stroke-width: 12.4577; stroke: rgb(139, 195, 74); stroke-opacity: 0.4;"><title>YIH(O) &#8594; FOE(D):
43</title></path><path class="link" d="M10,119.39958012596222C288,119.39958012596222 288,236.26731980405873 566,236.26731980405873" style="fill: none; stroke-width: 11.0091; stroke: rgb(156, 39, 176); stroke-opacity: 0.4;"><title>FOE(O) &#8594; UTown(D):
38</title></path><path class="link" d="M10,480.79146256123175C288,480.79146256123175 288,495.8565430370889 566,495.8565430370889" style="fill: none; stroke-width: 10.7194; stroke: rgb(244, 67, 54); stroke-opacity: 0.4;"><title>FASS(O) &#8594; BIZ(D):
37</title></path><path class="link" d="M10,49.83065080475857C288,49.83065080475857 288,287.5843247025892 566,287.5843247025892" style="fill: none; stroke-width: 10.4297; stroke: rgb(255, 235, 59); stroke-opacity: 0.4;"><title>MED(O) &#8594; YIH(D):
36</title></path><path class="link" d="M10,461.0909727081876C288,461.0909727081876 288,343.0643806857943 566,343.0643806857943" style="fill: none; stroke-width: 10.14; stroke: rgb(244, 67, 54); stroke-opacity: 0.4;"><title>FASS(O) &#8594; YIH(D):
35</title></path><path class="link" d="M10,470.94121763470963C288,470.94121763470963 288,455.25892232330295 566,455.25892232330295" style="fill: none; stroke-width: 8.98111; stroke: rgb(244, 67, 54); stroke-opacity: 0.4;"><title>FASS(O) &#8594; FOE(D):
31</title></path><path class="link" d="M10,260.56543037088875C288,260.56543037088875 288,195.66969909027287 566,195.66969909027287" style="fill: none; stroke-width: 8.11197; stroke: rgb(121, 85, 72); stroke-opacity: 0.4;"><title>BIZ(O) &#8594; FASS(D):
28</title></path><path class="link" d="M10,201.13645906228135C288,201.13645906228135 288,187.5577326801959 566,187.5577326801959" style="fill: none; stroke-width: 8.11197; stroke: rgb(139, 195, 74); stroke-opacity: 0.4;"><title>YIH(O) &#8594; FASS(D):
28</title></path><path class="link" d="M10,109.98390482855142C288,109.98390482855142 288,179.590622813156 566,179.590622813156" style="fill: none; stroke-width: 7.82225; stroke: rgb(156, 39, 176); stroke-opacity: 0.4;"><title>FOE(O) &#8594; FASS(D):
27</title></path><path class="link" d="M10,325.68159552134364C288,325.68159552134364 288,319.88733379986 566,319.88733379986" style="fill: none; stroke-width: 7.24283; stroke: rgb(3, 169, 244); stroke-opacity: 0.4;"><title>UTown(O) &#8594; YIH(D):
25</title></path><path class="link" d="M10,231.99090272918124C288,231.99090272918124 288,529.2113365990203 566,529.2113365990203" style="fill: none; stroke-width: 7.24283; stroke: rgb(139, 195, 74); stroke-opacity: 0.4;"><title>YIH(O) &#8594; MED(D):
25</title></path><path class="link" d="M10,335.6766969909027C288,335.6766969909027 288,426.14275717284806 566,426.14275717284806" style="fill: none; stroke-width: 6.37369; stroke: rgb(3, 169, 244); stroke-opacity: 0.4;"><title>UTown(O) &#8594; FOE(D):
22</title></path><path class="link" d="M10,103.03079076277116C288,103.03079076277116 288,147.68439468159548 566,147.68439468159548" style="fill: none; stroke-width: 6.08397; stroke: rgb(156, 39, 176); stroke-opacity: 0.4;"><title>FOE(O) &#8594; SDE(D):
21</title></path><path class="link" d="M10,208.0895731280616C288,208.0895731280616 288,244.6689993002099 566,244.6689993002099" style="fill: none; stroke-width: 5.79426; stroke: rgb(139, 195, 74); stroke-opacity: 0.4;"><title>YIH(O) &#8594; UTown(D):
20</title></path><path class="link" d="M10,269.83624912526244C288,269.83624912526244 288,311.9202239328201 566,311.9202239328201" style="fill: none; stroke-width: 5.79426; stroke: rgb(121, 85, 72); stroke-opacity: 0.4;"><title>BIZ(O) &#8594; YIH(D):
20</title></path><path class="link" d="M10,517.7676696990903C288,517.7676696990903 288,261.4723582925122 566,261.4723582925122" style="fill: none; stroke-width: 5.79426; stroke: rgb(63, 81, 181); stroke-opacity: 0.4;"><title>SCI(O) &#8594; UTown(D):
20</title></path><path class="link" d="M10,145.03918824352692C288,145.03918824352692 288,522.8376487053883 566,522.8376487053883" style="fill: none; stroke-width: 5.50455; stroke: rgb(156, 39, 176); stroke-opacity: 0.4;"><title>FOE(O) &#8594; MED(D):
19</title></path><path class="link" d="M10,343.35409377186846C288,343.35409377186846 288,535.5850244926521 566,535.5850244926521" style="fill: none; stroke-width: 5.50455; stroke: rgb(3, 169, 244); stroke-opacity: 0.4;"><title>UTown(O) &#8594; MED(D):
19</title></path><path class="link" d="M10,512.263121063681C288,512.263121063681 288,204.94051784464654 566,204.94051784464654" style="fill: none; stroke-width: 5.21484; stroke: rgb(63, 81, 181); stroke-opacity: 0.4;"><title>SCI(O) &#8594; FASS(D):
18</title></path><path class="link" d="M10,42.008397480755775C288,42.008397480755775 288,228.15535339398176 566,228.15535339398176" style="fill: none; stroke-width: 5.21484; stroke: rgb(255, 235, 59); stroke-opacity: 0.4;"><title>MED(O) &#8594; UTown(D):
18</title></path><path class="link" d="M10,79.56403079076277C288,79.56403079076277 288,38.3869839048285 566,38.3869839048285" style="fill: none; stroke-width: 4.92512; stroke: rgb(156, 39, 176); stroke-opacity: 0.4;"><title>FOE(O) &#8594; SCI(D):
17</title></path><path class="link" d="M10,428.6053184044787C288,428.6053184044787 288,448.3058082575227 566,448.3058082575227" style="fill: none; stroke-width: 4.92512; stroke: rgb(255, 152, 0); stroke-opacity: 0.4;"><title>SDE(O) &#8594; FOE(D):
17</title></path><path class="link" d="M10,538.9167249825052C288,538.9167249825052 288,462.06717984604614 566,462.06717984604614" style="fill: none; stroke-width: 4.63541; stroke: rgb(63, 81, 181); stroke-opacity: 0.4;"><title>SCI(O) &#8594; FOE(D):
16</title></path><path class="link" d="M10,226.3414975507348C288,226.3414975507348 288,485.2820153953814 566,485.2820153953814" style="fill: none; stroke-width: 4.05598; stroke: rgb(139, 195, 74); stroke-opacity: 0.4;"><title>YIH(O) &#8594; BIZ(D):
14</title></path><path class="link" d="M10,57.218334499650105C288,57.218334499650105 288,406.87683694891524 566,406.87683694891524" style="fill: none; stroke-width: 3.76627; stroke: rgb(255, 235, 59); stroke-opacity: 0.4;"><title>MED(O) &#8594; FOE(D):
13</title></path><path class="link" d="M10,450.95101469559137C288,450.95101469559137 288,65.90972708187539 566,65.90972708187539" style="fill: none; stroke-width: 3.76627; stroke: rgb(244, 67, 54); stroke-opacity: 0.4;"><title>FASS(O) &#8594; SCI(D):
13</title></path><path class="link" d="M10,423.68019594121773C288,423.68019594121773 288,255.8229531140657 566,255.8229531140657" style="fill: none; stroke-width: 3.18684; stroke: rgb(255, 152, 0); stroke-opacity: 0.4;"><title>SDE(O) &#8594; UTown(D):
11</title></path><path class="link" d="M10,330.89643107067883C288,330.89643107067883 288,385.110566829951 566,385.110566829951" style="fill: none; stroke-width: 3.18684; stroke: rgb(3, 169, 244); stroke-opacity: 0.4;"><title>UTown(O) &#8594; YSTCM(D):
11</title></path><path class="link" d="M10,316.70048985304413C288,316.70048985304413 288,59.53603918824347 566,59.53603918824347" style="fill: none; stroke-width: 3.18684; stroke: rgb(3, 169, 244); stroke-opacity: 0.4;"><title>UTown(O) &#8594; SCI(D):
11</title></path><path class="link" d="M10,293.48565430370894C288,293.48565430370894 288,251.47725682295305 566,251.47725682295305" style="fill: none; stroke-width: 3.18684; stroke: rgb(0, 150, 136); stroke-opacity: 0.4;"><title>YSTCM(O) &#8594; UTown(D):
11</title></path><path class="link" d="M10,365.55493351994403C288,365.55493351994403 288,62.57802659202234 566,62.57802659202234" style="fill: none; stroke-width: 2.89713; stroke: rgb(96, 125, 139); stroke-opacity: 0.4;"><title>CCELIB(O) &#8594; SCI(D):
10</title></path><path class="link" d="M10,320.17704688593426C288,320.17704688593426 288,152.89923023093067 566,152.89923023093067" style="fill: none; stroke-width: 2.60742; stroke: rgb(3, 169, 244); stroke-opacity: 0.4;"><title>UTown(O) &#8594; SDE(D):
9</title></path><path class="link" d="M10,507.7725682295312C288,507.7725682295312 288,125.3386983904828 566,125.3386983904828" style="fill: none; stroke-width: 2.60742; stroke: rgb(63, 81, 181); stroke-opacity: 0.4;"><title>SCI(O) &#8594; CCELIB(D):
9</title></path><path class="link" d="M10,265.78026592022394C288,265.78026592022394 288,248.7249825052484 566,248.7249825052484" style="fill: none; stroke-width: 2.3177; stroke: rgb(121, 85, 72); stroke-opacity: 0.4;"><title>BIZ(O) &#8594; UTown(D):
8</title></path><path class="link" d="M10,38.24212736179146C288,38.24212736179146 288,174.5206438068579 566,174.5206438068579" style="fill: none; stroke-width: 2.3177; stroke: rgb(255, 235, 59); stroke-opacity: 0.4;"><title>MED(O) &#8594; FASS(D):
8</title></path><path class="link" d="M10,487.3100069979007C288,487.3100069979007 288,540.9447165850246 566,540.9447165850246" style="fill: none; stroke-width: 2.3177; stroke: rgb(244, 67, 54); stroke-opacity: 0.4;"><title>FASS(O) &#8594; MED(D):
8</title></path><path class="link" d="M10,255.35059482155356C288,255.35059482155356 288,119.97900629811052 566,119.97900629811052" style="fill: none; stroke-width: 2.3177; stroke: rgb(121, 85, 72); stroke-opacity: 0.4;"><title>BIZ(O) &#8594; CCELIB(D):
8</title></path><path class="link" d="M10,339.73268019594127C288,339.73268019594127 288,488.17914625612315 566,488.17914625612315" style="fill: none; stroke-width: 1.73828; stroke: rgb(3, 169, 244); stroke-opacity: 0.4;"><title>UTown(O) &#8594; BIZ(D):
6</title></path><path class="link" d="M10,368.16235129461165C288,368.16235129461165 288,201.17424772568222 566,201.17424772568222" style="fill: none; stroke-width: 1.73828; stroke: rgb(96, 125, 139); stroke-opacity: 0.4;"><title>CCELIB(O) &#8594; FASS(D):
6</title></path><path class="link" d="M10,453.7032890132961C288,453.7032890132961 288,123.16585024492647 566,123.16585024492647" style="fill: none; stroke-width: 1.73828; stroke: rgb(244, 67, 54); stroke-opacity: 0.4;"><title>FASS(O) &#8594; CCELIB(D):
6</title></path><path class="link" d="M10,295.8033589923023C288,295.8033589923023 288,315.5416375087473 566,315.5416375087473" style="fill: none; stroke-width: 1.44857; stroke: rgb(0, 150, 136); stroke-opacity: 0.4;"><title>YSTCM(O) &#8594; YIH(D):
5</title></path><path class="link" d="M10,401.0447865640308C288,401.0447865640308 288,489.7725682295311 566,489.7725682295311" style="fill: none; stroke-width: 1.44857; stroke: rgb(96, 125, 139); stroke-opacity: 0.4;"><title>CCELIB(O) &#8594; BIZ(D):
5</title></path><path class="link" d="M10,402.4933519944017C288,402.4933519944017 288,539.0615815255425 566,539.0615815255425" style="fill: none; stroke-width: 1.44857; stroke: rgb(96, 125, 139); stroke-opacity: 0.4;"><title>CCELIB(O) &#8594; MED(D):
5</title></path><path class="link" d="M10,455.4415675297412C288,455.4415675297412 288,257.9958012596221 566,257.9958012596221" style="fill: none; stroke-width: 1.15885; stroke: rgb(244, 67, 54); stroke-opacity: 0.4;"><title>FASS(O) &#8594; UTown(D):
4</title></path><path class="link" d="M10,273.3128061581526C288,273.3128061581526 288,421.79706088173543 566,421.79706088173543" style="fill: none; stroke-width: 1.15885; stroke: rgb(121, 85, 72); stroke-opacity: 0.4;"><title>BIZ(O) &#8594; FOE(D):
4</title></path><path class="link" d="M10,369.61091672498253C288,369.61091672498253 288,253.6501049685094 566,253.6501049685094" style="fill: none; stroke-width: 1.15885; stroke: rgb(96, 125, 139); stroke-opacity: 0.4;"><title>CCELIB(O) &#8594; UTown(D):
4</title></path><path class="link" d="M10,36.50384884534639C288,36.50384884534639 288,86.3722883135059 566,86.3722883135059" style="fill: none; stroke-width: 1.15885; stroke: rgb(255, 235, 59); stroke-opacity: 0.4;"><title>MED(O) &#8594; CCELIB(D):
4</title></path><path class="link" d="M10,196.6459062281316C288,196.6459062281316 288,151.1609517144856 566,151.1609517144856" style="fill: none; stroke-width: 1; stroke: rgb(139, 195, 74); stroke-opacity: 0.4;"><title>YIH(O) &#8594; SDE(D):
3</title></path><path class="link" d="M10,541.66899930021C288,541.66899930021 288,501.6508047585724 566,501.6508047585724" style="fill: none; stroke-width: 1; stroke: rgb(63, 81, 181); stroke-opacity: 0.4;"><title>SCI(O) &#8594; BIZ(D):
3</title></path><path class="link" d="M10,211.42127361791464C288,211.42127361791464 288,383.08257522743173 566,383.08257522743173" style="fill: none; stroke-width: 1; stroke: rgb(139, 195, 74); stroke-opacity: 0.4;"><title>YIH(O) &#8594; YSTCM(D):
3</title></path><path class="link" d="M10,141.85234429671098C288,141.85234429671098 288,482.81945416375083 566,482.81945416375083" style="fill: none; stroke-width: 1; stroke: rgb(156, 39, 176); stroke-opacity: 0.4;"><title>FOE(O) &#8594; BIZ(D):
3</title></path><path class="link" d="M10,425.7081875437369C288,425.7081875437369 288,337.55983205038484 566,337.55983205038484" style="fill: none; stroke-width: 1; stroke: rgb(255, 152, 0); stroke-opacity: 0.4;"><title>SDE(O) &#8594; YIH(D):
3</title></path><path class="link" d="M10,318.58362491252626C288,318.58362491252626 288,121.4275717284814 566,121.4275717284814" style="fill: none; stroke-width: 1; stroke: rgb(3, 169, 244); stroke-opacity: 0.4;"><title>UTown(O) &#8594; CCELIB(D):
2</title></path><path class="link" d="M10,253.90202939118268C288,253.90202939118268 288,57.65290412876132 566,57.65290412876132" style="fill: none; stroke-width: 1; stroke: rgb(121, 85, 72); stroke-opacity: 0.4;"><title>BIZ(O) &#8594; SCI(D):
2</title></path><path class="link" d="M10,421.50734779566136C288,421.50734779566136 288,122.00699790062976 566,122.00699790062976" style="fill: none; stroke-width: 1; stroke: rgb(255, 152, 0); stroke-opacity: 0.4;"><title>SDE(O) &#8594; CCELIB(D):
2</title></path><path class="link" d="M10,296.81735479356195C288,296.81735479356195 288,422.66620013995794 566,422.66620013995794" style="fill: none; stroke-width: 1; stroke: rgb(0, 150, 136); stroke-opacity: 0.4;"><title>YSTCM(O) &#8594; FOE(D):
2</title></path><path class="link" d="M10,321.7704688593422C288,321.7704688593422 288,200.01539538138553 566,200.01539538138553" style="fill: none; stroke-width: 1; stroke: rgb(3, 169, 244); stroke-opacity: 0.4;"><title>UTown(O) &#8594; FASS(D):
2</title></path><path class="link" d="M10,509.3659902029392C288,509.3659902029392 288,155.072078376487 566,155.072078376487" style="fill: none; stroke-width: 1; stroke: rgb(63, 81, 181); stroke-opacity: 0.4;"><title>SCI(O) &#8594; SDE(D):
2</title></path><path class="link" d="M10,466.3058082575228C288,466.3058082575228 288,386.848845346396 566,386.848845346396" style="fill: none; stroke-width: 1; stroke: rgb(244, 67, 54); stroke-opacity: 0.4;"><title>FASS(O) &#8594; YSTCM(D):
1</title></path><path class="link" d="M10,367.14835549335197C288,367.14835549335197 288,154.34779566130155 566,154.34779566130155" style="fill: none; stroke-width: 1; stroke: rgb(96, 125, 139); stroke-opacity: 0.4;"><title>CCELIB(O) &#8594; SDE(D):
1</title></path><path class="link" d="M10,55.190342897130854C288,55.190342897130854 288,382.2134359692092 566,382.2134359692092" style="fill: none; stroke-width: 1; stroke: rgb(255, 235, 59); stroke-opacity: 0.4;"><title>MED(O) &#8594; YSTCM(D):
1</title></path><path class="link" d="M10,454.7172848145557C288,454.7172848145557 288,154.63750874737573 566,154.63750874737573" style="fill: none; stroke-width: 1; stroke: rgb(244, 67, 54); stroke-opacity: 0.4;"><title>FASS(O) &#8594; SDE(D):
1</title></path><path class="link" d="M10,141.2729181245626C288,141.2729181245626 288,382.50314905528336 566,382.50314905528336" style="fill: none; stroke-width: 1; stroke: rgb(156, 39, 176); stroke-opacity: 0.4;"><title>FOE(O) &#8594; YSTCM(D):
1</title></path><path class="link" d="M10,421.9419174247726C288,421.9419174247726 288,202.18824352694187 566,202.18824352694187" style="fill: none; stroke-width: 1; stroke: rgb(255, 152, 0); stroke-opacity: 0.4;"><title>SDE(O) &#8594; FASS(D):
1</title></path></g><g><g class="node" transform="translate(0,449.06787963610924)"><rect height="39.40097970608817" width="10" id="r0" shape-rendering="crispEdges" style="fill: rgb(244, 67, 54); fill-opacity: 0.9; stroke-width: 0; stroke: rgb(15, 58, 88);"><title>FASS(O):
136</title></rect><text x="16" y="19.700489853044086" dy=".35em" text-anchor="start" style="stroke-width: 0; font-family: serif; font-size: 15px; font-weight: 400; fill: rgb(0, 0, 0);">FASS(O): 136</text></g><g class="node" transform="translate(566,382.0685794261721)"><rect height="4.9251224632610215" width="10" id="r1" shape-rendering="crispEdges" style="fill: rgb(0, 150, 136); fill-opacity: 0.9; stroke-width: 0; stroke: rgb(85, 97, 113);"><title>YSTCM(D):
17</title></rect><text x="-6" y="2.4625612316305108" dy=".35em" text-anchor="end" style="stroke-width: 0; font-family: serif; font-size: 15px; font-weight: 400; fill: rgb(0, 0, 0);">YSTCM(D): 17</text></g><g class="node" transform="translate(0,364.10636808957315)"><rect height="39.11126662001399" width="10" id="r2" shape-rendering="crispEdges" style="fill: rgb(96, 125, 139); fill-opacity: 0.9; stroke-width: 0; stroke: rgb(124, 62, 6);"><title>CCELIB(O):
135</title></rect><text x="16" y="19.555633310006996" dy=".35em" text-anchor="start" style="stroke-width: 0; font-family: serif; font-size: 15px; font-weight: 400; fill: rgb(0, 0, 0);">CCELIB(O): 135</text></g><g class="node" transform="translate(566,144.6424072778166)"><rect height="10.719384184744577" width="10" id="r3" shape-rendering="crispEdges" style="fill: rgb(255, 152, 0); fill-opacity: 0.9; stroke-width: 0; stroke: rgb(124, 91, 58);"><title>SDE(D):
37</title></rect><text x="-6" y="5.359692092372288" dy=".35em" text-anchor="end" style="stroke-width: 0; font-family: serif; font-size: 15px; font-weight: 400; fill: rgb(0, 0, 0);">SDE(D): 37</text></g><g class="node" transform="translate(0,0)"><rect height="59.101469559132255" width="10" id="r4" shape-rendering="crispEdges" style="fill: rgb(255, 235, 59); fill-opacity: 0.9; stroke-width: 0; stroke: rgb(21, 78, 21);"><title>MED(O):
204</title></rect><text x="16" y="29.550734779566127" dy=".35em" text-anchor="start" style="stroke-width: 0; font-family: serif; font-size: 15px; font-weight: 400; fill: rgb(0, 0, 0);">MED(O): 204</text></g><g class="node" transform="translate(0,77.10146955913225)"><rect height="70.68999300209937" width="10" id="r5" shape-rendering="crispEdges" style="fill: rgb(156, 39, 176); fill-opacity: 0.9; stroke-width: 0; stroke: rgb(74, 109, 67);"><title>FOE(O):
244</title></rect><text x="16" y="35.344996501049685" dy=".35em" text-anchor="start" style="stroke-width: 0; font-family: serif; font-size: 15px; font-weight: 400; fill: rgb(0, 0, 0);">FOE(O): 244</text></g><g class="node" transform="translate(0,421.2176347095872)"><rect height="9.850244926522043" width="10" id="r6" shape-rendering="crispEdges" style="fill: rgb(255, 152, 0); fill-opacity: 0.9; stroke-width: 0; stroke: rgb(124, 91, 58);"><title>SDE(O):
34</title></rect><text x="16" y="4.9251224632610215" dy=".35em" text-anchor="start" style="stroke-width: 0; font-family: serif; font-size: 15px; font-weight: 400; fill: rgb(0, 0, 0);">SDE(O): 34</text></g><g class="node" transform="translate(566,173.36179146256117)"><rect height="34.186144156752974" width="10" id="r7" shape-rendering="crispEdges" style="fill: rgb(244, 67, 54); fill-opacity: 0.9; stroke-width: 0; stroke: rgb(15, 58, 88);"><title>FASS(D):
118</title></rect><text x="-6" y="17.093072078376487" dy=".35em" text-anchor="end" style="stroke-width: 0; font-family: serif; font-size: 15px; font-weight: 400; fill: rgb(0, 0, 0);">FASS(D): 118</text></g><g class="node" transform="translate(0,315.10706787963613)"><rect height="30.999300209937015" width="10" id="r8" shape-rendering="crispEdges" style="fill: rgb(3, 169, 244); fill-opacity: 0.9; stroke-width: 0; stroke: rgb(104, 19, 19);"><title>UTown(O):
107</title></rect><text x="16" y="15.499650104968508" dy=".35em" text-anchor="start" style="stroke-width: 0; font-family: serif; font-size: 15px; font-weight: 400; fill: rgb(0, 0, 0);">UTown(O): 107</text></g><g class="node" transform="translate(566,85.79286214135755)"><rect height="40.84954513645906" width="10" id="r9" shape-rendering="crispEdges" style="fill: rgb(96, 125, 139); fill-opacity: 0.9; stroke-width: 0; stroke: rgb(124, 62, 6);"><title>CCELIB(D):
141</title></rect><text x="-6" y="20.42477256822953" dy=".35em" text-anchor="end" style="stroke-width: 0; font-family: serif; font-size: 15px; font-weight: 400; fill: rgb(0, 0, 0);">CCELIB(D): 141</text></g><g class="node" transform="translate(0,253.6123163051085)"><rect height="20.279916025192442" width="10" id="r10" shape-rendering="crispEdges" style="fill: rgb(121, 85, 72); fill-opacity: 0.9; stroke-width: 0; stroke: rgb(124, 74, 73);"><title>BIZ(O):
70</title></rect><text x="16" y="10.139958012596221" dy=".35em" text-anchor="start" style="stroke-width: 0; font-family: serif; font-size: 15px; font-weight: 400; fill: rgb(0, 0, 0);">BIZ(O): 70</text></g><g class="node" transform="translate(566,-4.973799150320701e-14)"><rect height="67.79286214135759" width="10" id="r11" shape-rendering="crispEdges" style="fill: rgb(63, 81, 181); fill-opacity: 0.9; stroke-width: 0; stroke: rgb(72, 50, 92);"><title>SCI(D):
234</title></rect><text x="-6" y="33.896431070678794" dy=".35em" text-anchor="end" style="stroke-width: 0; font-family: serif; font-size: 15px; font-weight: 400; fill: rgb(0, 0, 0);">SCI(D): 234</text></g><g class="node" transform="translate(0,291.89223233030094)"><rect height="5.214835549335199" width="10" id="r12" shape-rendering="crispEdges" style="fill: rgb(0, 150, 136); fill-opacity: 0.9; stroke-width: 0; stroke: rgb(85, 97, 113);"><title>YSTCM(O):
18</title></rect><text x="16" y="2.6074177746675997" dy=".35em" text-anchor="start" style="stroke-width: 0; font-family: serif; font-size: 15px; font-weight: 400; fill: rgb(0, 0, 0);">YSTCM(O): 18</text></g><g class="node" transform="translate(566,404.9937018894331)"><rect height="59.391182645206435" width="10" id="r13" shape-rendering="crispEdges" style="fill: rgb(156, 39, 176); fill-opacity: 0.9; stroke-width: 0; stroke: rgb(74, 109, 67);"><title>FOE(D):
205</title></rect><text x="-6" y="29.695591322603217" dy=".35em" text-anchor="end" style="stroke-width: 0; font-family: serif; font-size: 15px; font-weight: 400; fill: rgb(0, 0, 0);">FOE(D): 205</text></g><g class="node" transform="translate(0,506.4688593421974)"><rect height="69.53114065780265" width="10" id="r14" shape-rendering="crispEdges" style="fill: rgb(63, 81, 181); fill-opacity: 0.9; stroke-width: 0; stroke: rgb(72, 50, 92);"><title>SCI(O):
240</title></rect><text x="16" y="34.765570328901326" dy=".35em" text-anchor="start" style="stroke-width: 0; font-family: serif; font-size: 15px; font-weight: 400; fill: rgb(0, 0, 0);">SCI(O): 240</text></g><g class="node" transform="translate(0,165.79146256123164)"><rect height="69.82085374387684" width="10" id="r15" shape-rendering="crispEdges" style="fill: rgb(139, 195, 74); fill-opacity: 0.9; stroke-width: 0; stroke: rgb(96, 86, 104);"><title>YIH(O):
241</title></rect><text x="16" y="34.91042687193842" dy=".35em" text-anchor="start" style="stroke-width: 0; font-family: serif; font-size: 15px; font-weight: 400; fill: rgb(0, 0, 0);">YIH(O): 241</text></g><g class="node" transform="translate(566,482.3848845346396)"><rect height="19.700489853044086" width="10" id="r16" shape-rendering="crispEdges" style="fill: rgb(121, 85, 72); fill-opacity: 0.9; stroke-width: 0; stroke: rgb(124, 74, 73);"><title>BIZ(D):
68</title></rect><text x="-6" y="9.850244926522043" dy=".35em" text-anchor="end" style="stroke-width: 0; font-family: serif; font-size: 15px; font-weight: 400; fill: rgb(0, 0, 0);">BIZ(D): 68</text></g><g class="node" transform="translate(566,282.369489153254)"><rect height="81.69909027291811" width="10" id="r17" shape-rendering="crispEdges" style="fill: rgb(139, 195, 74); fill-opacity: 0.9; stroke-width: 0; stroke: rgb(96, 86, 104);"><title>YIH(D):
282</title></rect><text x="-6" y="40.84954513645906" dy=".35em" text-anchor="end" style="stroke-width: 0; font-family: serif; font-size: 15px; font-weight: 400; fill: rgb(0, 0, 0);">YIH(D): 282</text></g><g class="node" transform="translate(566,225.54793561931416)"><rect height="38.82155353393981" width="10" id="r18" shape-rendering="crispEdges" style="fill: rgb(3, 169, 244); fill-opacity: 0.9; stroke-width: 0; stroke: rgb(104, 19, 19);"><title>UTown(D):
134</title></rect><text x="-6" y="19.410776766969907" dy=".35em" text-anchor="end" style="stroke-width: 0; font-family: serif; font-size: 15px; font-weight: 400; fill: rgb(0, 0, 0);">UTown(D): 134</text></g><g class="node" transform="translate(566,520.0853743876837)"><rect height="55.9146256123163" width="10" id="r19" shape-rendering="crispEdges" style="fill: rgb(255, 235, 59); fill-opacity: 0.9; stroke-width: 0; stroke: rgb(21, 78, 21);"><title>MED(D):
193</title></rect><text x="-6" y="27.95731280615815" dy=".35em" text-anchor="end" style="stroke-width: 0; font-family: serif; font-size: 15px; font-weight: 400; fill: rgb(0, 0, 0);">MED(D): 193</text></g></g></g></g></svg>