<svg id="sankey_svg" height="600" width="600" xmlns="http://www.w3.org/2000/svg" version="1.1"><title>Your Diagram Title</title><!-- Generated with SankeyMATIC on Sat Dec 29 2018 19:49:54 GMT+0800 (Singapore Standard Time)--><g><rect width="100%" height="100%" fill="rgb(255, 255, 255)"></rect><g transform="translate(12,12)"><g><path class="link" d="M10,11.814589665653523C288,11.814589665653523 288,11.814589665653502 566,11.814589665653502" style="fill: none; stroke-width: 23.6292; stroke: rgb(255, 235, 59); stroke-opacity: 0.4;"><title>MED(O) &#8594; SCI(D):
169</title></path><path class="link" d="M10,564.6747720364742C288,564.6747720364742 288,564.6747720364742 566,564.6747720364742" style="fill: none; stroke-width: 22.6505; stroke: rgb(63, 81, 181); stroke-opacity: 0.4;"><title>SCI(O) &#8594; MED(D):
162</title></path><path class="link" d="M10,499.7659574468085C288,499.7659574468085 288,509.5531914893617 566,509.5531914893617" style="fill: none; stroke-width: 21.1125; stroke: rgb(156, 39, 176); stroke-opacity: 0.4;"><title>FOE(O) &#8594; CCELIB(D):
151</title></path><path class="link" d="M10,479.4224924012158C288,479.4224924012158 288,419.89665653495445 566,419.89665653495445" style="fill: none; stroke-width: 19.5745; stroke: rgb(156, 39, 176); stroke-opacity: 0.4;"><title>FOE(O) &#8594; UTown(D):
140</title></path><path class="link" d="M10,69.45288753799394C288,69.45288753799394 288,71.96960486322187 566,71.96960486322187" style="fill: none; stroke-width: 18.4559; stroke: rgb(96, 125, 139); stroke-opacity: 0.4;"><title>CCELIB(O) &#8594; FOE(D):
132</title></path><path class="link" d="M10,394.83586626139817C288,394.83586626139817 288,488.3009118541034 566,488.3009118541034" style="fill: none; stroke-width: 17.7568; stroke: rgb(244, 67, 54); stroke-opacity: 0.4;"><title>FASS(O) &#8594; CCELIB(D):
127</title></path><path class="link" d="M10,377.2887537993921C288,377.2887537993921 288,397.52583586626145 566,397.52583586626145" style="fill: none; stroke-width: 17.3374; stroke: rgb(244, 67, 54); stroke-opacity: 0.4;"><title>FASS(O) &#8594; UTown(D):
124</title></path><path class="link" d="M10,85.67173252279639C288,85.67173252279639 288,143.6595744680851 566,143.6595744680851" style="fill: none; stroke-width: 13.9818; stroke: rgb(96, 125, 139); stroke-opacity: 0.4;"><title>CCELIB(O) &#8594; FASS(D):
100</title></path><path class="link" d="M10,147.01519756838908C288,147.01519756838908 288,87.76899696048632 566,87.76899696048632" style="fill: none; stroke-width: 13.1429; stroke: rgb(3, 169, 244); stroke-opacity: 0.4;"><title>UTown(O) &#8594; FOE(D):
94</title></path><path class="link" d="M10,546.2887537993921C288,546.2887537993921 288,436.18541033434656 566,436.18541033434656" style="fill: none; stroke-width: 13.003; stroke: rgb(63, 81, 181); stroke-opacity: 0.4;"><title>SCI(O) &#8594; UTown(D):
93</title></path><path class="link" d="M10,178.75379939209728C288,178.75379939209728 288,278.05471124620067 566,278.05471124620067" style="fill: none; stroke-width: 11.7447; stroke: rgb(3, 169, 244); stroke-opacity: 0.4;"><title>UTown(O) &#8594; YIH(D):
84</title></path><path class="link" d="M10,159.10942249240122C288,159.10942249240122 288,156.17325227963525 566,156.17325227963525" style="fill: none; stroke-width: 11.0456; stroke: rgb(3, 169, 244); stroke-opacity: 0.4;"><title>UTown(O) &#8594; FASS(D):
79</title></path><path class="link" d="M10,229.68085106382978C288,229.68085106382978 288,99.72340425531914 566,99.72340425531914" style="fill: none; stroke-width: 10.766; stroke: rgb(139, 195, 74); stroke-opacity: 0.4;"><title>YIH(O) &#8594; FOE(D):
77</title></path><path class="link" d="M10,36.14285714285717C288,36.14285714285717 288,357.46808510638306 566,357.46808510638306" style="fill: none; stroke-width: 10.2067; stroke: rgb(255, 235, 59); stroke-opacity: 0.4;"><title>MED(O) &#8594; UTown(D):
73</title></path><path class="link" d="M10,254.00911854103342C288,254.00911854103342 288,377.46200607902745 566,377.46200607902745" style="fill: none; stroke-width: 9.92705; stroke: rgb(139, 195, 74); stroke-opacity: 0.4;"><title>YIH(O) &#8594; UTown(D):
71</title></path><path class="link" d="M10,240.0273556231003C288,240.0273556231003 288,166.65957446808508 566,166.65957446808508" style="fill: none; stroke-width: 9.92705; stroke: rgb(139, 195, 74); stroke-opacity: 0.4;"><title>YIH(O) &#8594; FASS(D):
71</title></path><path class="link" d="M10,109.65045592705171C288,109.65045592705171 288,367.5349544072949 566,367.5349544072949" style="fill: none; stroke-width: 9.92705; stroke: rgb(96, 125, 139); stroke-opacity: 0.4;"><title>CCELIB(O) &#8594; UTown(D):
71</title></path><path class="link" d="M10,98.95440729483285C288,98.95440729483285 288,267.28875379939217 566,267.28875379939217" style="fill: none; stroke-width: 9.78723; stroke: rgb(96, 125, 139); stroke-opacity: 0.4;"><title>CCELIB(O) &#8594; YIH(D):
70</title></path><path class="link" d="M10,263.65653495440733C288,263.65653495440733 288,473.4802431610943 566,473.4802431610943" style="fill: none; stroke-width: 9.36778; stroke: rgb(139, 195, 74); stroke-opacity: 0.4;"><title>YIH(O) &#8594; CCELIB(D):
67</title></path><path class="link" d="M10,363.09726443768994C288,363.09726443768994 288,290.8480243161095 566,290.8480243161095" style="fill: none; stroke-width: 9.08815; stroke: rgb(244, 67, 54); stroke-opacity: 0.4;"><title>FASS(O) &#8594; YIH(D):
65</title></path><path class="link" d="M10,463.55319148936167C288,463.55319148936167 288,300.21580547112467 566,300.21580547112467" style="fill: none; stroke-width: 9.08815; stroke: rgb(156, 39, 176); stroke-opacity: 0.4;"><title>FOE(O) &#8594; YIH(D):
65</title></path><path class="link" d="M10,190.84802431610944C288,190.84802431610944 288,464.95136778115506 566,464.95136778115506" style="fill: none; stroke-width: 7.68997; stroke: rgb(3, 169, 244); stroke-opacity: 0.4;"><title>UTown(O) &#8594; CCELIB(D):
55</title></path><path class="link" d="M10,136.66869300911856C288,136.66869300911856 288,27.963525835866267 566,27.963525835866267" style="fill: none; stroke-width: 7.55015; stroke: rgb(3, 169, 244); stroke-opacity: 0.4;"><title>UTown(O) &#8594; SCI(D):
54</title></path><path class="link" d="M10,198.048632218845C288,198.048632218845 288,542.3039513677812 566,542.3039513677812" style="fill: none; stroke-width: 6.71125; stroke: rgb(3, 169, 244); stroke-opacity: 0.4;"><title>UTown(O) &#8594; MED(D):
48</title></path><path class="link" d="M10,350.3738601823708C288,350.3738601823708 288,110.76899696048632 566,110.76899696048632" style="fill: none; stroke-width: 6.57143; stroke: rgb(244, 67, 54); stroke-opacity: 0.4;"><title>FASS(O) &#8594; FOE(D):
47</title></path><path class="link" d="M10,167.84802431610942C288,167.84802431610942 288,207.24012158054714 566,207.24012158054714" style="fill: none; stroke-width: 6.43161; stroke: rgb(3, 169, 244); stroke-opacity: 0.4;"><title>UTown(O) &#8594; BIZ(D):
46</title></path><path class="link" d="M10,454.81458966565344C288,454.81458966565344 288,180.15197568389056 566,180.15197568389056" style="fill: none; stroke-width: 5.87234; stroke: rgb(156, 39, 176); stroke-opacity: 0.4;"><title>FOE(O) &#8594; FASS(D):
42</title></path><path class="link" d="M10,537.1306990881459C288,537.1306990881459 288,307.4164133738602 566,307.4164133738602" style="fill: none; stroke-width: 5.31307; stroke: rgb(63, 81, 181); stroke-opacity: 0.4;"><title>SCI(O) &#8594; YIH(D):
38</title></path><path class="link" d="M10,221.85106382978725C288,221.85106382978725 288,34.18541033434651 566,34.18541033434651" style="fill: none; stroke-width: 4.89362; stroke: rgb(139, 195, 74); stroke-opacity: 0.4;"><title>YIH(O) &#8594; SCI(D):
35</title></path><path class="link" d="M10,295.00911854103344C288,295.00911854103344 288,174 566,174" style="fill: none; stroke-width: 4.7538; stroke: rgb(121, 85, 72); stroke-opacity: 0.4;"><title>BIZ(O) &#8594; FASS(D):
34</title></path><path class="link" d="M10,355.96656534954406C288,355.96656534954406 288,215.13981762917936 566,215.13981762917936" style="fill: none; stroke-width: 4.61398; stroke: rgb(244, 67, 54); stroke-opacity: 0.4;"><title>FASS(O) &#8594; BIZ(D):
33</title></path><path class="link" d="M10,270.57750759878417C288,270.57750759878417 288,547.8966565349544 566,547.8966565349544" style="fill: none; stroke-width: 4.47416; stroke: rgb(139, 195, 74); stroke-opacity: 0.4;"><title>YIH(O) &#8594; MED(D):
32</title></path><path class="link" d="M10,427.3069908814589C288,427.3069908814589 288,408.1519756838906 566,408.1519756838906" style="fill: none; stroke-width: 3.91489; stroke: rgb(255, 152, 0); stroke-opacity: 0.4;"><title>SDE(O) &#8594; UTown(D):
28</title></path><path class="link" d="M10,300.741641337386C288,300.741641337386 288,384.3829787234043 566,384.3829787234043" style="fill: none; stroke-width: 3.91489; stroke: rgb(121, 85, 72); stroke-opacity: 0.4;"><title>BIZ(O) &#8594; UTown(D):
28</title></path><path class="link" d="M10,29.291793313069938C288,29.291793313069938 288,260.64741641337395 566,260.64741641337395" style="fill: none; stroke-width: 3.49544; stroke: rgb(255, 235, 59); stroke-opacity: 0.4;"><title>MED(O) &#8594; YIH(D):
25</title></path><path class="link" d="M10,25.097264437689997C288,25.097264437689997 288,61.273556231003035 566,61.273556231003035" style="fill: none; stroke-width: 2.93617; stroke: rgb(255, 235, 59); stroke-opacity: 0.4;"><title>MED(O) &#8594; FOE(D):
21</title></path><path class="link" d="M10,450.4802431610942C288,450.4802431610942 288,40.40729483282675 566,40.40729483282675" style="fill: none; stroke-width: 2.79635; stroke: rgb(156, 39, 176); stroke-opacity: 0.4;"><title>FOE(O) &#8594; SCI(D):
20</title></path><path class="link" d="M10,325.8723404255319C288,325.8723404255319 288,387.59878419452895 566,387.59878419452895" style="fill: none; stroke-width: 2.51672; stroke: rgb(0, 150, 136); stroke-opacity: 0.4;"><title>YSTCM(O) &#8594; UTown(D):
18</title></path><path class="link" d="M10,185.8145896656535C288,185.8145896656535 288,330.1003039513679 566,330.1003039513679" style="fill: none; stroke-width: 2.3769; stroke: rgb(3, 169, 244); stroke-opacity: 0.4;"><title>UTown(O) &#8594; SDE(D):
17</title></path><path class="link" d="M10,246.1793313069909C288,246.1793313069909 288,211.64437689969608 566,211.64437689969608" style="fill: none; stroke-width: 2.3769; stroke: rgb(139, 195, 74); stroke-opacity: 0.4;"><title>YIH(O) &#8594; BIZ(D):
17</title></path><path class="link" d="M10,531.5379939209727C288,531.5379939209727 288,116.99088145896657 566,116.99088145896657" style="fill: none; stroke-width: 2.23708; stroke: rgb(63, 81, 181); stroke-opacity: 0.4;"><title>SCI(O) &#8594; FOE(D):
16</title></path><path class="link" d="M10,511.370820668693C288,511.370820668693 288,552.3009118541033 566,552.3009118541033" style="fill: none; stroke-width: 2.09726; stroke: rgb(156, 39, 176); stroke-opacity: 0.4;"><title>FOE(O) &#8594; MED(D):
15</title></path><path class="link" d="M10,346.1094224924012C288,346.1094224924012 288,38.03039513677812 566,38.03039513677812" style="fill: none; stroke-width: 1.95745; stroke: rgb(244, 67, 54); stroke-opacity: 0.4;"><title>FASS(O) &#8594; SCI(D):
14</title></path><path class="link" d="M10,430.1732522796352C288,430.1732522796352 288,498.08814589665656 566,498.08814589665656" style="fill: none; stroke-width: 1.81763; stroke: rgb(255, 152, 0); stroke-opacity: 0.4;"><title>SDE(O) &#8594; CCELIB(D):
13</title></path><path class="link" d="M10,423.322188449848C288,423.322188449848 288,114.96352583586626 566,114.96352583586626" style="fill: none; stroke-width: 1.81763; stroke: rgb(255, 152, 0); stroke-opacity: 0.4;"><title>SDE(O) &#8594; FOE(D):
13</title></path><path class="link" d="M10,171.97264437689972C288,171.97264437689972 288,237.75379939209733 566,237.75379939209733" style="fill: none; stroke-width: 1.81763; stroke: rgb(3, 169, 244); stroke-opacity: 0.4;"><title>UTown(O) &#8594; YSTCM(D):
13</title></path><path class="link" d="M10,468.8662613981763C288,468.8662613981763 288,333.59574468085117 566,333.59574468085117" style="fill: none; stroke-width: 1.53799; stroke: rgb(156, 39, 176); stroke-opacity: 0.4;"><title>FOE(O) &#8594; SDE(D):
11</title></path><path class="link" d="M10,291.8632218844985C288,291.8632218844985 288,105.87537993920972 566,105.87537993920972" style="fill: none; stroke-width: 1.53799; stroke: rgb(121, 85, 72); stroke-opacity: 0.4;"><title>BIZ(O) &#8594; FOE(D):
11</title></path><path class="link" d="M10,533.2857142857143C288,533.2857142857143 288,183.71732522796356 566,183.71732522796356" style="fill: none; stroke-width: 1.25836; stroke: rgb(63, 81, 181); stroke-opacity: 0.4;"><title>SCI(O) &#8594; FASS(D):
9</title></path><path class="link" d="M10,247.9969604863222C288,247.9969604863222 288,239.29179331306997 566,239.29179331306997" style="fill: none; stroke-width: 1.25836; stroke: rgb(139, 195, 74); stroke-opacity: 0.4;"><title>YIH(O) &#8594; YSTCM(D):
9</title></path><path class="link" d="M10,298.01519756838906C288,298.01519756838906 288,284.55623100303956 566,284.55623100303956" style="fill: none; stroke-width: 1.25836; stroke: rgb(121, 85, 72); stroke-opacity: 0.4;"><title>BIZ(O) &#8594; YIH(D):
9</title></path><path class="link" d="M10,303.32826747720367C288,303.32826747720367 288,478.79331306990883 566,478.79331306990883" style="fill: none; stroke-width: 1.25836; stroke: rgb(121, 85, 72); stroke-opacity: 0.4;"><title>BIZ(O) &#8594; CCELIB(D):
9</title></path><path class="link" d="M10,93.29179331306993C288,93.29179331306993 288,203.39513677811556 566,203.39513677811556" style="fill: none; stroke-width: 1.25836; stroke: rgb(96, 125, 139); stroke-opacity: 0.4;"><title>CCELIB(O) &#8594; BIZ(D):
9</title></path><path class="link" d="M10,324.0547112462006C288,324.0547112462006 288,285.7446808510639 566,285.7446808510639" style="fill: none; stroke-width: 1.11854; stroke: rgb(0, 150, 136); stroke-opacity: 0.4;"><title>YSTCM(O) &#8594; YIH(D):
8</title></path><path class="link" d="M10,368.1306990881459C288,368.1306990881459 288,332.33738601823717 566,332.33738601823717" style="fill: none; stroke-width: 1; stroke: rgb(244, 67, 54); stroke-opacity: 0.4;"><title>FASS(O) &#8594; SDE(D):
7</title></path><path class="link" d="M10,104.26747720364745C288,104.26747720364745 288,328.49240121580556 566,328.49240121580556" style="fill: none; stroke-width: 1; stroke: rgb(96, 125, 139); stroke-opacity: 0.4;"><title>CCELIB(O) &#8594; SDE(D):
6</title></path><path class="link" d="M10,322.93617021276594C288,322.93617021276594 288,107.06382978723406 566,107.06382978723406" style="fill: none; stroke-width: 1; stroke: rgb(0, 150, 136); stroke-opacity: 0.4;"><title>YSTCM(O) &#8594; FOE(D):
6</title></path><path class="link" d="M10,458.6595744680851C288,458.6595744680851 288,240.55015197568395 566,240.55015197568395" style="fill: none; stroke-width: 1; stroke: rgb(156, 39, 176); stroke-opacity: 0.4;"><title>FOE(O) &#8594; YSTCM(D):
5</title></path><path class="link" d="M10,424.580547112462C288,424.580547112462 288,176.8662613981763 566,176.8662613981763" style="fill: none; stroke-width: 1; stroke: rgb(255, 152, 0); stroke-opacity: 0.4;"><title>SDE(O) &#8594; FASS(D):
5</title></path><path class="link" d="M10,404.06382978723406C288,404.06382978723406 288,550.90273556231 566,550.90273556231" style="fill: none; stroke-width: 1; stroke: rgb(244, 67, 54); stroke-opacity: 0.4;"><title>FASS(O) &#8594; MED(D):
5</title></path><path class="link" d="M10,534.19452887538C288,534.19452887538 288,218.42553191489367 566,218.42553191489367" style="fill: none; stroke-width: 1; stroke: rgb(63, 81, 181); stroke-opacity: 0.4;"><title>SCI(O) &#8594; BIZ(D):
4</title></path><path class="link" d="M10,553.0699088145897C288,553.0699088145897 288,520.3890577507599 566,520.3890577507599" style="fill: none; stroke-width: 1; stroke: rgb(63, 81, 181); stroke-opacity: 0.4;"><title>SCI(O) &#8594; CCELIB(D):
4</title></path><path class="link" d="M10,26.84498480243164C288,26.84498480243164 288,136.3890577507599 566,136.3890577507599" style="fill: none; stroke-width: 1; stroke: rgb(255, 235, 59); stroke-opacity: 0.4;"><title>MED(O) &#8594; FASS(D):
4</title></path><path class="link" d="M10,59.94528875379942C288,59.94528875379942 288,23.90881458966566 566,23.90881458966566" style="fill: none; stroke-width: 1; stroke: rgb(96, 125, 139); stroke-opacity: 0.4;"><title>CCELIB(O) &#8594; SCI(D):
4</title></path><path class="link" d="M10,458.0303951367781C288,458.0303951367781 288,217.86626139817633 566,217.86626139817633" style="fill: none; stroke-width: 1; stroke: rgb(156, 39, 176); stroke-opacity: 0.4;"><title>FOE(O) &#8594; BIZ(D):
4</title></path><path class="link" d="M10,248.8358662613982C288,248.8358662613982 288,331.49848024316117 566,331.49848024316117" style="fill: none; stroke-width: 1; stroke: rgb(139, 195, 74); stroke-opacity: 0.4;"><title>YIH(O) &#8594; SDE(D):
3</title></path><path class="link" d="M10,27.3343465045593C288,27.3343465045593 288,202.55623100303956 566,202.55623100303956" style="fill: none; stroke-width: 1; stroke: rgb(255, 235, 59); stroke-opacity: 0.4;"><title>MED(O) &#8594; BIZ(D):
3</title></path><path class="link" d="M10,304.16717325227967C288,304.16717325227967 288,550.3434650455928 566,550.3434650455928" style="fill: none; stroke-width: 1; stroke: rgb(121, 85, 72); stroke-opacity: 0.4;"><title>BIZ(O) &#8594; MED(D):
3</title></path><path class="link" d="M10,41.455927051671765C288,41.455927051671765 288,460.89665653495445 566,460.89665653495445" style="fill: none; stroke-width: 1; stroke: rgb(255, 235, 59); stroke-opacity: 0.4;"><title>MED(O) &#8594; CCELIB(D):
3</title></path><path class="link" d="M10,290.95440729483283C288,290.95440729483283 288,36.77203647416414 566,36.77203647416414" style="fill: none; stroke-width: 1; stroke: rgb(121, 85, 72); stroke-opacity: 0.4;"><title>BIZ(O) &#8594; SCI(D):
2</title></path><path class="link" d="M10,425.20972644376894C288,425.20972644376894 288,295.5319148936171 566,295.5319148936171" style="fill: none; stroke-width: 1; stroke: rgb(255, 152, 0); stroke-opacity: 0.4;"><title>SDE(O) &#8594; YIH(D):
2</title></path><path class="link" d="M10,114.75379939209729C288,114.75379939209729 288,538.8085106382979 566,538.8085106382979" style="fill: none; stroke-width: 1; stroke: rgb(96, 125, 139); stroke-opacity: 0.4;"><title>CCELIB(O) &#8594; MED(D):
2</title></path><path class="link" d="M10,358.4133738601824C288,358.4133738601824 288,240.06079027355628 566,240.06079027355628" style="fill: none; stroke-width: 1; stroke: rgb(244, 67, 54); stroke-opacity: 0.4;"><title>FASS(O) &#8594; YSTCM(D):
2</title></path><path class="link" d="M10,323.4255319148936C288,323.4255319148936 288,176.4468085106383 566,176.4468085106383" style="fill: none; stroke-width: 1; stroke: rgb(0, 150, 136); stroke-opacity: 0.4;"><title>YSTCM(O) &#8594; FASS(D):
1</title></path><path class="link" d="M10,93.99088145896658C288,93.99088145896658 288,236.775075987842 566,236.775075987842" style="fill: none; stroke-width: 1; stroke: rgb(96, 125, 139); stroke-opacity: 0.4;"><title>CCELIB(O) &#8594; YSTCM(D):
1</title></path><path class="link" d="M10,322.4468085106383C288,322.4468085106383 288,36.98176291793313 566,36.98176291793313" style="fill: none; stroke-width: 1; stroke: rgb(0, 150, 136); stroke-opacity: 0.4;"><title>YSTCM(O) &#8594; SCI(D):
1</title></path><path class="link" d="M10,424.99999999999994C288,424.99999999999994 288,217.516717325228 566,217.516717325228" style="fill: none; stroke-width: 1; stroke: rgb(255, 152, 0); stroke-opacity: 0.4;"><title>SDE(O) &#8594; BIZ(D):
1</title></path><path class="link" d="M10,298.7142857142857C288,298.7142857142857 288,331.77811550151984 566,331.77811550151984" style="fill: none; stroke-width: 1; stroke: rgb(121, 85, 72); stroke-opacity: 0.4;"><title>BIZ(O) &#8594; SDE(D):
1</title></path></g><g><g class="node" transform="translate(0,322.3768996960486)"><rect height="4.753799392097264" width="10" id="r0" shape-rendering="crispEdges" style="fill: rgb(0, 150, 136); fill-opacity: 0.9; stroke-width: 0; stroke: rgb(15, 58, 88);"><title>YSTCM(O):
34</title></rect><text x="16" y="2.376899696048632" dy=".35em" text-anchor="start" style="stroke-width: 0; font-family: serif; font-size: 15px; font-weight: 400; fill: rgb(0, 0, 0);">YSTCM(O): 34</text></g><g class="node" transform="translate(566,136.10942249240122)"><rect height="48.2370820668693" width="10" id="r1" shape-rendering="crispEdges" style="fill: rgb(244, 67, 54); fill-opacity: 0.9; stroke-width: 0; stroke: rgb(85, 97, 113);"><title>FASS(D):
345</title></rect><text x="-6" y="24.11854103343465" dy=".35em" text-anchor="end" style="stroke-width: 0; font-family: serif; font-size: 15px; font-weight: 400; fill: rgb(0, 0, 0);">FASS(D): 345</text></g><g class="node" transform="translate(0,59.66565349544076)"><rect height="55.22796352583586" width="10" id="r2" shape-rendering="crispEdges" style="fill: rgb(96, 125, 139); fill-opacity: 0.9; stroke-width: 0; stroke: rgb(124, 62, 6);"><title>CCELIB(O):
395</title></rect><text x="16" y="27.61398176291793" dy=".35em" text-anchor="start" style="stroke-width: 0; font-family: serif; font-size: 15px; font-weight: 400; fill: rgb(0, 0, 0);">CCELIB(O): 395</text></g><g class="node" transform="translate(566,236.70516717325233)"><rect height="4.194528875379939" width="10" id="r3" shape-rendering="crispEdges" style="fill: rgb(0, 150, 136); fill-opacity: 0.9; stroke-width: 0; stroke: rgb(15, 58, 88);"><title>YSTCM(D):
30</title></rect><text x="-6" y="2.0972644376899696" dy=".35em" text-anchor="end" style="stroke-width: 0; font-family: serif; font-size: 15px; font-weight: 400; fill: rgb(0, 0, 0);">YSTCM(D): 30</text></g><g class="node" transform="translate(566,7.105427357601002e-15)"><rect height="41.805471124620055" width="10" id="r4" shape-rendering="crispEdges" style="fill: rgb(63, 81, 181); fill-opacity: 0.9; stroke-width: 0; stroke: rgb(124, 91, 58);"><title>SCI(D):
299</title></rect><text x="-6" y="20.902735562310028" dy=".35em" text-anchor="end" style="stroke-width: 0; font-family: serif; font-size: 15px; font-weight: 400; fill: rgb(0, 0, 0);">SCI(D): 299</text></g><g class="node" transform="translate(0,422.41337386018233)"><rect height="8.66869300911854" width="10" id="r5" shape-rendering="crispEdges" style="fill: rgb(255, 152, 0); fill-opacity: 0.9; stroke-width: 0; stroke: rgb(21, 78, 21);"><title>SDE(O):
62</title></rect><text x="16" y="4.33434650455927" dy=".35em" text-anchor="start" style="stroke-width: 0; font-family: serif; font-size: 15px; font-weight: 400; fill: rgb(0, 0, 0);">SDE(O): 62</text></g><g class="node" transform="translate(566,202.34650455927056)"><rect height="16.35866261398176" width="10" id="r6" shape-rendering="crispEdges" style="fill: rgb(121, 85, 72); fill-opacity: 0.9; stroke-width: 0; stroke: rgb(74, 109, 67);"><title>BIZ(D):
117</title></rect><text x="-6" y="8.17933130699088" dy=".35em" text-anchor="end" style="stroke-width: 0; font-family: serif; font-size: 15px; font-weight: 400; fill: rgb(0, 0, 0);">BIZ(D): 117</text></g><g class="node" transform="translate(0,290.8145896656535)"><rect height="13.562310030395135" width="10" id="r7" shape-rendering="crispEdges" style="fill: rgb(121, 85, 72); fill-opacity: 0.9; stroke-width: 0; stroke: rgb(74, 109, 67);"><title>BIZ(O):
97</title></rect><text x="16" y="6.781155015197568" dy=".35em" text-anchor="start" style="stroke-width: 0; font-family: serif; font-size: 15px; font-weight: 400; fill: rgb(0, 0, 0);">BIZ(O): 97</text></g><g class="node" transform="translate(566,328.07294832826756)"><rect height="6.291793313069909" width="10" id="r8" shape-rendering="crispEdges" style="fill: rgb(255, 152, 0); fill-opacity: 0.9; stroke-width: 0; stroke: rgb(21, 78, 21);"><title>SDE(D):
45</title></rect><text x="-6" y="3.1458966565349544" dy=".35em" text-anchor="end" style="stroke-width: 0; font-family: serif; font-size: 15px; font-weight: 400; fill: rgb(0, 0, 0);">SDE(D): 45</text></g><g class="node" transform="translate(566,258.8996960486323)"><rect height="51.17325227963526" width="10" id="r9" shape-rendering="crispEdges" style="fill: rgb(139, 195, 74); fill-opacity: 0.9; stroke-width: 0; stroke: rgb(104, 19, 19);"><title>YIH(D):
366</title></rect><text x="-6" y="25.58662613981763" dy=".35em" text-anchor="end" style="stroke-width: 0; font-family: serif; font-size: 15px; font-weight: 400; fill: rgb(0, 0, 0);">YIH(D): 366</text></g><g class="node" transform="translate(566,538.6686930091186)"><rect height="37.33130699088146" width="10" id="r10" shape-rendering="crispEdges" style="fill: rgb(255, 235, 59); fill-opacity: 0.9; stroke-width: 0; stroke: rgb(124, 74, 73);"><title>MED(D):
267</title></rect><text x="-6" y="18.66565349544073" dy=".35em" text-anchor="end" style="stroke-width: 0; font-family: serif; font-size: 15px; font-weight: 400; fill: rgb(0, 0, 0);">MED(D): 267</text></g><g class="node" transform="translate(0,345.1306990881459)"><rect height="59.28267477203647" width="10" id="r11" shape-rendering="crispEdges" style="fill: rgb(244, 67, 54); fill-opacity: 0.9; stroke-width: 0; stroke: rgb(85, 97, 113);"><title>FASS(O):
424</title></rect><text x="16" y="29.641337386018236" dy=".35em" text-anchor="start" style="stroke-width: 0; font-family: serif; font-size: 15px; font-weight: 400; fill: rgb(0, 0, 0);">FASS(O): 424</text></g><g class="node" transform="translate(0,219.40425531914894)"><rect height="53.410334346504555" width="10" id="r12" shape-rendering="crispEdges" style="fill: rgb(139, 195, 74); fill-opacity: 0.9; stroke-width: 0; stroke: rgb(104, 19, 19);"><title>YIH(O):
382</title></rect><text x="16" y="26.705167173252278" dy=".35em" text-anchor="start" style="stroke-width: 0; font-family: serif; font-size: 15px; font-weight: 400; fill: rgb(0, 0, 0);">YIH(O): 382</text></g><g class="node" transform="translate(0,2.842170943040401e-14)"><rect height="41.66565349544073" width="10" id="r13" shape-rendering="crispEdges" style="fill: rgb(255, 235, 59); fill-opacity: 0.9; stroke-width: 0; stroke: rgb(124, 74, 73);"><title>MED(O):
298</title></rect><text x="16" y="20.832826747720365" dy=".35em" text-anchor="start" style="stroke-width: 0; font-family: serif; font-size: 15px; font-weight: 400; fill: rgb(0, 0, 0);">MED(O): 298</text></g><g class="node" transform="translate(566,460.68693009118545)"><rect height="59.981762917933125" width="10" id="r14" shape-rendering="crispEdges" style="fill: rgb(96, 125, 139); fill-opacity: 0.9; stroke-width: 0; stroke: rgb(124, 62, 6);"><title>CCELIB(D):
429</title></rect><text x="-6" y="29.990881458966562" dy=".35em" text-anchor="end" style="stroke-width: 0; font-family: serif; font-size: 15px; font-weight: 400; fill: rgb(0, 0, 0);">CCELIB(D): 429</text></g><g class="node" transform="translate(0,530.419452887538)"><rect height="45.580547112462" width="10" id="r15" shape-rendering="crispEdges" style="fill: rgb(63, 81, 181); fill-opacity: 0.9; stroke-width: 0; stroke: rgb(124, 91, 58);"><title>SCI(O):
326</title></rect><text x="16" y="22.790273556231" dy=".35em" text-anchor="start" style="stroke-width: 0; font-family: serif; font-size: 15px; font-weight: 400; fill: rgb(0, 0, 0);">SCI(O): 326</text></g><g class="node" transform="translate(0,449.0820668693009)"><rect height="63.337386018237076" width="10" id="r16" shape-rendering="crispEdges" style="fill: rgb(156, 39, 176); fill-opacity: 0.9; stroke-width: 0; stroke: rgb(72, 50, 92);"><title>FOE(O):
453</title></rect><text x="16" y="31.668693009118538" dy=".35em" text-anchor="start" style="stroke-width: 0; font-family: serif; font-size: 15px; font-weight: 400; fill: rgb(0, 0, 0);">FOE(O): 453</text></g><g class="node" transform="translate(566,59.805471124620055)"><rect height="58.30395136778115" width="10" id="r17" shape-rendering="crispEdges" style="fill: rgb(156, 39, 176); fill-opacity: 0.9; stroke-width: 0; stroke: rgb(72, 50, 92);"><title>FOE(D):
417</title></rect><text x="-6" y="29.151975683890576" dy=".35em" text-anchor="end" style="stroke-width: 0; font-family: serif; font-size: 15px; font-weight: 400; fill: rgb(0, 0, 0);">FOE(D): 417</text></g><g class="node" transform="translate(0,132.8936170212766)"><rect height="68.51063829787233" width="10" id="r18" shape-rendering="crispEdges" style="fill: rgb(3, 169, 244); fill-opacity: 0.9; stroke-width: 0; stroke: rgb(96, 86, 104);"><title>UTown(O):
490</title></rect><text x="16" y="34.25531914893617" dy=".35em" text-anchor="start" style="stroke-width: 0; font-family: serif; font-size: 15px; font-weight: 400; fill: rgb(0, 0, 0);">UTown(O): 490</text></g><g class="node" transform="translate(566,352.36474164133745)"><rect height="90.32218844984801" width="10" id="r19" shape-rendering="crispEdges" style="fill: rgb(3, 169, 244); fill-opacity: 0.9; stroke-width: 0; stroke: rgb(96, 86, 104);"><title>UTown(D):
646</title></rect><text x="-6" y="45.16109422492401" dy=".35em" text-anchor="end" style="stroke-width: 0; font-family: serif; font-size: 15px; font-weight: 400; fill: rgb(0, 0, 0);">UTown(D): 646</text></g></g></g></g></svg>