<svg id="sankey_svg" height="600" width="600" xmlns="http://www.w3.org/2000/svg" version="1.1"><title>Your Diagram Title</title><!-- Generated with SankeyMATIC on Sat Dec 29 2018 16:38:44 GMT+0800 (Singapore Standard Time)--><g><rect width="100%" height="100%" fill="rgb(255, 255, 255)"></rect><g transform="translate(12,12)"><g><path class="link" d="M10,126.12133227597153C288,126.12133227597153 288,86.78112609040443 566,86.78112609040443" style="fill: none; stroke-width: 29.8763; stroke: rgb(156, 39, 176); stroke-opacity: 0.4;"><title>FOE(O) &#8594; CCELIB(D):
182</title></path><path class="link" d="M10,302.8025376685172C288,302.8025376685172 288,330.48770816812055 566,330.48770816812055" style="fill: none; stroke-width: 24.9516; stroke: rgb(63, 81, 181); stroke-opacity: 0.4;"><title>SCI(O) &#8594; MED(D):
152</title></path><path class="link" d="M10,153.37113402061863C288,153.37113402061863 288,171.7565424266455 566,171.7565424266455" style="fill: none; stroke-width: 24.6233; stroke: rgb(156, 39, 176); stroke-opacity: 0.4;"><title>FOE(O) &#8594; UTown(D):
150</title></path><path class="link" d="M10,516.5257731958764C288,516.5257731958764 288,559.4203013481364 566,559.4203013481364" style="fill: none; stroke-width: 22.6534; stroke: rgb(96, 125, 139); stroke-opacity: 0.4;"><title>CCELIB(O) &#8594; FOE(D):
138</title></path><path class="link" d="M10,10.752180808881924C288,10.752180808881924 288,10.75218080888181 566,10.75218080888181" style="fill: none; stroke-width: 21.5044; stroke: rgb(255, 235, 59); stroke-opacity: 0.4;"><title>MED(O) &#8594; SCI(D):
131</title></path><path class="link" d="M10,430.6475019825536C288,430.6475019825536 288,538.9829500396511 566,538.9829500396511" style="fill: none; stroke-width: 18.2213; stroke: rgb(3,169, 244); stroke-opacity: 0.4;"><title>UTown(O) &#8594; FOE(D):
111</title></path><path class="link" d="M10,62.48612212529747C288,62.48612212529747 288,62.978588421887366 566,62.978588421887366" style="fill: none; stroke-width: 17.7288; stroke: rgb(244, 67, 54); stroke-opacity: 0.4;"><title>FASS(O) &#8594; CCELIB(D):
108</title></path><path class="link" d="M10,497.4016653449644C288,497.4016653449644 288,484.70459952418713 566,484.70459952418713" style="fill: none; stroke-width: 15.5948; stroke: rgb(96, 125, 139); stroke-opacity: 0.4;"><title>CCELIB(O) &#8594; FASS(D):
95</title></path><path class="link" d="M10,221.68477398889777C288,221.68477398889777 288,108.69587628865978 566,108.69587628865978" style="fill: none; stroke-width: 13.9532; stroke: rgb(139, 195, 74); stroke-opacity: 0.4;"><title>YIH(O) &#8594; CCELIB(D):
85</title></path><path class="link" d="M10,465.96590007930223C288,465.96590007930223 288,217.06344171292622 566,217.06344171292622" style="fill: none; stroke-width: 13.7891; stroke: rgb(96, 125, 139); stroke-opacity: 0.4;"><title>CCELIB(O) &#8594; UTown(D):
84</title></path><path class="link" d="M10,179.96431403647907C288,179.96431403647907 288,378.19984139571767 566,378.19984139571767" style="fill: none; stroke-width: 11.8192; stroke: rgb(156, 39, 176); stroke-opacity: 0.4;"><title>FOE(O) &#8594; YIH(D):
72</title></path><path class="link" d="M10,483.9409199048375C288,483.9409199048375 288,406.8449643140364 566,406.8449643140364" style="fill: none; stroke-width: 11.3267; stroke: rgb(96, 125, 139); stroke-opacity: 0.4;"><title>CCELIB(O) &#8594; YIH(D):
69</title></path><path class="link" d="M10,283.92466296590015C288,283.92466296590015 288,199.0063441712926 566,199.0063441712926" style="fill: none; stroke-width: 11.1626; stroke: rgb(63, 81, 181); stroke-opacity: 0.4;"><title>SCI(O) &#8594; UTown(D):
68</title></path><path class="link" d="M10,408.32236320380656C288,408.32236320380656 288,396.33901665344956 566,396.33901665344956" style="fill: none; stroke-width: 9.68517; stroke: rgb(3,169, 244); stroke-opacity: 0.4;"><title>UTown(O) &#8594; YIH(D):
59</title></path><path class="link" d="M10,233.3398096748613C288,233.3398096748613 288,188.74662965900077 566,188.74662965900077" style="fill: none; stroke-width: 9.35686; stroke: rgb(139, 195, 74); stroke-opacity: 0.4;"><title>YIH(O) &#8594; UTown(D):
57</title></path><path class="link" d="M10,254.59793814432996C288,254.59793814432996 288,520.8437747819191 566,520.8437747819191" style="fill: none; stroke-width: 9.1927; stroke: rgb(139, 195, 74); stroke-opacity: 0.4;"><title>YIH(O) &#8594; FOE(D):
56</title></path><path class="link" d="M10,25.854480570975497C288,25.854480570975497 288,148.0360824742268 566,148.0360824742268" style="fill: none; stroke-width: 8.04362; stroke: rgb(255, 235, 59); stroke-opacity: 0.4;"><title>MED(O) &#8594; UTown(D):
49</title></path><path class="link" d="M10,391.742664551943C288,391.742664551943 288,260.261300555115 566,260.261300555115" style="fill: none; stroke-width: 7.38699; stroke: rgb(3,169, 244); stroke-opacity: 0.4;"><title>UTown(O) &#8594; BIZ(D):
45</title></path><path class="link" d="M10,75.04401268834268C288,75.04401268834268 288,155.75138778747026 566,155.75138778747026" style="fill: none; stroke-width: 7.38699; stroke: rgb(244, 67, 54); stroke-opacity: 0.4;"><title>FASS(O) &#8594; UTown(D):
45</title></path><path class="link" d="M10,418.25376685170505C288,418.25376685170505 288,473.6241078509119 566,473.6241078509119" style="fill: none; stroke-width: 6.56622; stroke: rgb(3,169, 244); stroke-opacity: 0.4;"><title>UTown(O) &#8594; FASS(D):
40</title></path><path class="link" d="M10,348.0523394131642C288,348.0523394131642 288,207.37827121332273 566,207.37827121332273" style="fill: none; stroke-width: 5.58128; stroke: rgb(255, 152, 150); stroke-opacity: 0.4;"><title>BIZ(O) &#8594; UTown(D):
34</title></path><path class="link" d="M10,356.1780333068994C288,356.1780333068994 288,467.6324345757335 566,467.6324345757335" style="fill: none; stroke-width: 5.41713; stroke: rgb(255, 152, 150); stroke-opacity: 0.4;"><title>BIZ(O) &#8594; FASS(D):
33</title></path><path class="link" d="M10,212.0816812053926C288,212.0816812053926 288,26.5931800158604 566,26.5931800158604" style="fill: none; stroke-width: 5.25297; stroke: rgb(139, 195, 74); stroke-opacity: 0.4;"><title>YIH(O) &#8594; SCI(D):
32</title></path><path class="link" d="M10,317.9048374306107C288,317.9048374306107 288,386.73592386994443 566,386.73592386994443" style="fill: none; stroke-width: 5.25297; stroke: rgb(63, 81, 181); stroke-opacity: 0.4;"><title>SCI(O) &#8594; YIH(D):
32</title></path><path class="link" d="M10,247.45717684377485C288,247.45717684377485 288,461.23037272006343 566,461.23037272006343" style="fill: none; stroke-width: 5.08882; stroke: rgb(139, 195, 74); stroke-opacity: 0.4;"><title>YIH(O) &#8594; FASS(D):
31</title></path><path class="link" d="M10,401.01744647105477C288,401.01744647105477 288,345.91831879460744 566,345.91831879460744" style="fill: none; stroke-width: 4.92466; stroke: rgb(3,169, 244); stroke-opacity: 0.4;"><title>UTown(O) &#8594; MED(D):
30</title></path><path class="link" d="M10,385.66891356066617C288,385.66891356066617 288,121.66415543219665 566,121.66415543219665" style="fill: none; stroke-width: 4.76051; stroke: rgb(3,169, 244); stroke-opacity: 0.4;"><title>UTown(O) &#8594; CCELIB(D):
29</title></path><path class="link" d="M10,189.0749405233942C288,189.0749405233942 288,456.30570975416333 566,456.30570975416333" style="fill: none; stroke-width: 4.76051; stroke: rgb(156, 39, 176); stroke-opacity: 0.4;"><title>FOE(O) &#8594; FASS(D):
29</title></path><path class="link" d="M10,81.11776367961944C288,81.11776367961944 288,247.45717684377473 566,247.45717684377473" style="fill: none; stroke-width: 4.76051; stroke: rgb(244, 67, 54); stroke-opacity: 0.4;"><title>FASS(O) &#8594; BIZ(D):
29</title></path><path class="link" d="M10,381.1546391752578C288,381.1546391752578 288,32.174464710547156 566,32.174464710547156" style="fill: none; stroke-width: 4.26804; stroke: rgb(3,169, 244); stroke-opacity: 0.4;"><title>UTown(O) &#8594; SCI(D):
26</title></path><path class="link" d="M10,552.9932593180016C288,552.9932593180016 288,572.7989690721648 566,572.7989690721648" style="fill: none; stroke-width: 4.10389; stroke: rgb(255, 152, 0); stroke-opacity: 0.4;"><title>SDE(O) &#8594; FOE(D):
25</title></path><path class="link" d="M10,170.52537668517056C288,170.52537668517056 288,288.4389373513085 566,288.4389373513085" style="fill: none; stroke-width: 3.77557; stroke: rgb(156, 39, 176); stroke-opacity: 0.4;"><title>FOE(O) &#8594; SDE(D):
23</title></path><path class="link" d="M10,89.65384615384623C288,89.65384615384623 288,514.3596352101507 566,514.3596352101507" style="fill: none; stroke-width: 3.77557; stroke: rgb(244, 67, 54); stroke-opacity: 0.4;"><title>FASS(O) &#8594; FOE(D):
23</title></path><path class="link" d="M10,474.748215701824C288,474.748215701824 288,265.8425852498017 566,265.8425852498017" style="fill: none; stroke-width: 3.77557; stroke: rgb(96, 125, 139); stroke-opacity: 0.4;"><title>CCELIB(O) &#8594; BIZ(D):
23</title></path><path class="link" d="M10,396.9956383822364C288,396.9956383822364 288,292.37866772402856 566,292.37866772402856" style="fill: none; stroke-width: 3.11895; stroke: rgb(3,169, 244); stroke-opacity: 0.4;"><title>UTown(O) &#8594; SDE(D):
19</title></path><path class="link" d="M10,31.846153846153925C288,31.846153846153925 288,367.85804916732747 566,367.85804916732747" style="fill: none; stroke-width: 2.9548; stroke: rgb(255, 235, 59); stroke-opacity: 0.4;"><title>MED(O) &#8594; YIH(D):
18</title></path><path class="link" d="M10,167.16019032513887C288,167.16019032513887 288,251.31482950039648 566,251.31482950039648" style="fill: none; stroke-width: 2.9548; stroke: rgb(156, 39, 176); stroke-opacity: 0.4;"><title>FOE(O) &#8594; BIZ(D):
18</title></path><path class="link" d="M10,86.28865979381453C288,86.28865979381453 288,370.8128469468675 566,370.8128469468675" style="fill: none; stroke-width: 2.9548; stroke: rgb(244, 67, 54); stroke-opacity: 0.4;"><title>FASS(O) &#8594; YIH(D):
18</title></path><path class="link" d="M10,239.4956383822364C288,239.4956383822364 288,254.26962727993651 566,254.26962727993651" style="fill: none; stroke-width: 2.9548; stroke: rgb(139, 195, 74); stroke-opacity: 0.4;"><title>YIH(O) &#8594; BIZ(D):
18</title></path><path class="link" d="M10,344.0305313243459C288,344.0305313243459 288,118.05273592386993 566,118.05273592386993" style="fill: none; stroke-width: 2.46233; stroke: rgb(255, 152, 150); stroke-opacity: 0.4;"><title>BIZ(O) &#8594; CCELIB(D):
15</title></path><path class="link" d="M10,322.8295003965108C288,322.8295003965108 288,526.5892149088025 566,526.5892149088025" style="fill: none; stroke-width: 2.29818; stroke: rgb(63, 81, 181); stroke-opacity: 0.4;"><title>SCI(O) &#8594; FOE(D):
14</title></path><path class="link" d="M10,242.61459159397313C288,242.61459159397313 288,316.8628072957969 566,316.8628072957969" style="fill: none; stroke-width: 2.29818; stroke: rgb(139, 195, 74); stroke-opacity: 0.4;"><title>YIH(O) &#8594; MED(D):
14</title></path><path class="link" d="M10,359.9536082474228C288,359.9536082474228 288,528.8053132434575 566,528.8053132434575" style="fill: none; stroke-width: 2.13402; stroke: rgb(255, 152, 150); stroke-opacity: 0.4;"><title>BIZ(O) &#8594; FOE(D):
13</title></path><path class="link" d="M10,352.402458366376C288,352.402458366376 288,390.4294210943695 566,390.4294210943695" style="fill: none; stroke-width: 2.13402; stroke: rgb(255, 152, 150); stroke-opacity: 0.4;"><title>BIZ(O) &#8594; YIH(D):
13</title></path><path class="link" d="M10,546.8374306106265C288,546.8374306106265 288,125.02934179222837 566,125.02934179222837" style="fill: none; stroke-width: 1.96987; stroke: rgb(255, 152, 0); stroke-opacity: 0.4;"><title>SDE(O) &#8594; CCELIB(D):
12</title></path><path class="link" d="M10,414.06780333068997C288,414.06780333068997 288,434.69429024583656 566,434.69429024583656" style="fill: none; stroke-width: 1.80571; stroke: rgb(3,169, 244); stroke-opacity: 0.4;"><title>UTown(O) &#8594; YSTCM(D):
11</title></path><path class="link" d="M10,548.6431403647898C288,548.6431403647898 288,224.77874702616967 566,224.77874702616967" style="fill: none; stroke-width: 1.64155; stroke: rgb(255, 152, 0); stroke-opacity: 0.4;"><title>SDE(O) &#8594; UTown(D):
10</title></path><path class="link" d="M10,477.45678033306905C288,477.45678033306905 288,294.75892149088025 566,294.75892149088025" style="fill: none; stroke-width: 1.64155; stroke: rgb(96, 125, 139); stroke-opacity: 0.4;"><title>CCELIB(O) &#8594; SDE(D):
10</title></path><path class="link" d="M10,173.2339413164156C288,173.2339413164156 288,314.89294210943694 566,314.89294210943694" style="fill: none; stroke-width: 1.64155; stroke: rgb(156, 39, 176); stroke-opacity: 0.4;"><title>FOE(O) &#8594; MED(D):
10</title></path><path class="link" d="M10,110.36241078509127C288,110.36241078509127 288,23.145915939730344 566,23.145915939730344" style="fill: none; stroke-width: 1.64155; stroke: rgb(156, 39, 176); stroke-opacity: 0.4;"><title>FOE(O) &#8594; SCI(D):
10</title></path><path class="link" d="M10,458.4147501982554C288,458.4147501982554 288,34.965107057890535 566,34.965107057890535" style="fill: none; stroke-width: 1.31324; stroke: rgb(96, 125, 139); stroke-opacity: 0.4;"><title>CCELIB(O) &#8594; SCI(D):
8</title></path><path class="link" d="M10,34.226407613005634C288,34.226407613005634 288,511.8973037272006 566,511.8973037272006" style="fill: none; stroke-width: 1.14909; stroke: rgb(255, 235, 59); stroke-opacity: 0.4;"><title>MED(O) &#8594; FOE(D):
7</title></path><path class="link" d="M10,321.1058683584458C288,321.1058683584458 288,464.34932593180014 566,464.34932593180014" style="fill: none; stroke-width: 1.14909; stroke: rgb(63, 81, 181); stroke-opacity: 0.4;"><title>SCI(O) &#8594; FASS(D):
7</title></path><path class="link" d="M10,244.33822363203814C288,244.33822363203814 288,433.2168913560666 566,433.2168913560666" style="fill: none; stroke-width: 1.14909; stroke: rgb(139, 195, 74); stroke-opacity: 0.4;"><title>YIH(O) &#8594; YSTCM(D):
7</title></path><path class="link" d="M10,277.7688342585251C288,277.7688342585251 288,116.24702616970657 566,116.24702616970657" style="fill: none; stroke-width: 1.14909; stroke: rgb(63, 81, 181); stroke-opacity: 0.4;"><title>SCI(O) &#8594; CCELIB(D):
7</title></path><path class="link" d="M10,575.4254559873116C288,575.4254559873116 288,575.4254559873116 566,575.4254559873116" style="fill: none; stroke-width: 1.14909; stroke: rgb(0, 150, 136); stroke-opacity: 0.4;"><title>YSTCM(O) &#8594; FOE(D):
7</title></path><path class="link" d="M10,573.7018239492467C288,573.7018239492467 288,226.09199048374302 566,226.09199048374302" style="fill: none; stroke-width: 1; stroke: rgb(0, 150, 136); stroke-opacity: 0.4;"><title>YSTCM(O) &#8594; UTown(D):
6</title></path><path class="link" d="M10,289.91633624107857C288,289.91633624107857 288,256.1574147501982 566,256.1574147501982" style="fill: none; stroke-width: 1; stroke: rgb(63, 81, 181); stroke-opacity: 0.4;"><title>SCI(O) &#8594; BIZ(D):
5</title></path><path class="link" d="M10,342.38897700237914C288,342.38897700237914 288,29.63005551149878 566,29.63005551149878" style="fill: none; stroke-width: 1; stroke: rgb(255, 152, 150); stroke-opacity: 0.4;"><title>BIZ(O) &#8594; SCI(D):
5</title></path><path class="link" d="M10,83.90840602696281C288,83.90840602696281 288,286.1407613005551 566,286.1407613005551" style="fill: none; stroke-width: 1; stroke: rgb(244, 67, 54); stroke-opacity: 0.4;"><title>FASS(O) &#8594; SDE(D):
5</title></path><path class="link" d="M10,53.211340206185646C288,53.211340206185646 288,21.914750198255323 566,21.914750198255323" style="fill: none; stroke-width: 1; stroke: rgb(244, 67, 54); stroke-opacity: 0.4;"><title>FASS(O) &#8594; SCI(D):
5</title></path><path class="link" d="M10,186.28429817605084C288,186.28429817605084 288,432.2319587628865 566,432.2319587628865" style="fill: none; stroke-width: 1; stroke: rgb(156, 39, 176); stroke-opacity: 0.4;"><title>FOE(O) &#8594; YSTCM(D):
5</title></path><path class="link" d="M10,550.5309278350516C288,550.5309278350516 288,492.91237113402053 566,492.91237113402053" style="fill: none; stroke-width: 1; stroke: rgb(255, 152, 0); stroke-opacity: 0.4;"><title>SDE(O) &#8594; FASS(D):
5</title></path><path class="link" d="M10,574.52260111023C288,574.52260111023 288,413.49325931800155 566,413.49325931800155" style="fill: none; stroke-width: 1; stroke: rgb(0, 150, 136); stroke-opacity: 0.4;"><title>YSTCM(O) &#8594; YIH(D):
4</title></path><path class="link" d="M10,549.7922283901665C288,549.7922283901665 288,412.8366375892149 566,412.8366375892149" style="fill: none; stroke-width: 1; stroke: rgb(255, 152, 0); stroke-opacity: 0.4;"><title>SDE(O) &#8594; YIH(D):
4</title></path><path class="link" d="M10,241.21927042030143C288,241.21927042030143 288,290.5729579698652 566,290.5729579698652" style="fill: none; stroke-width: 1; stroke: rgb(139, 195, 74); stroke-opacity: 0.4;"><title>YIH(O) &#8594; SDE(D):
3</title></path><path class="link" d="M10,84.5650277557495C288,84.5650277557495 288,313.82593180015857 566,313.82593180015857" style="fill: none; stroke-width: 1; stroke: rgb(244, 67, 54); stroke-opacity: 0.4;"><title>FASS(O) &#8594; MED(D):
3</title></path><path class="link" d="M10,30.1225218080889C288,30.1225218080889 288,244.83068992862803 566,244.83068992862803" style="fill: none; stroke-width: 1; stroke: rgb(255, 235, 59); stroke-opacity: 0.4;"><title>MED(O) &#8594; BIZ(D):
3</title></path><path class="link" d="M10,351.0892149088026C288,351.0892149088026 288,343.2097541633624 566,343.2097541633624" style="fill: none; stroke-width: 1; stroke: rgb(255, 152, 150); stroke-opacity: 0.4;"><title>BIZ(O) &#8594; MED(D):
3</title></path><path class="link" d="M10,21.668517049960432C288,21.668517049960432 288,53.95003965107056 566,53.95003965107056" style="fill: none; stroke-width: 1; stroke: rgb(255, 235, 59); stroke-opacity: 0.4;"><title>MED(O) &#8594; CCELIB(D):
2</title></path><path class="link" d="M10,33.487708168120626C288,33.487708168120626 288,453.76130055511493 566,453.76130055511493" style="fill: none; stroke-width: 1; stroke: rgb(255, 235, 59); stroke-opacity: 0.4;"><title>MED(O) &#8594; FASS(D):
2</title></path><path class="link" d="M10,573.1272799365582C288,573.1272799365582 288,35.70380650277555 566,35.70380650277555" style="fill: none; stroke-width: 1; stroke: rgb(0, 150, 136); stroke-opacity: 0.4;"><title>YSTCM(O) &#8594; SCI(D):
1</title></path></g><g><g class="node" transform="translate(0,573.0452022204599)"><rect height="2.9547977795400477" width="10" id="r0" shape-rendering="crispEdges" style="fill: rgb(0, 150, 136); fill-opacity: 0.9; stroke-width: 0; stroke: rgb(15, 58, 88);"><title>YSTCM(O):
18</title></rect><text x="16" y="1.4773988897700239" dy=".35em" text-anchor="start" style="stroke-width: 0; font-family: serif; font-size: 15px; font-weight: 400; fill: rgb(0, 0, 0);">YSTCM(O): 18</text></g><g class="node" transform="translate(566,-2.842170943040401e-14)"><rect height="35.78588421887391" width="10" id="r1" shape-rendering="crispEdges" style="fill: rgb(63, 81, 181); fill-opacity: 0.9; stroke-width: 0; stroke: rgb(85, 97, 113);"><title>SCI(D):
218</title></rect><text x="-6" y="17.892942109436955" dy=".35em" text-anchor="end" style="stroke-width: 0; font-family: serif; font-size: 15px; font-weight: 400; fill: rgb(0, 0, 0);">SCI(D): 218</text></g><g class="node" transform="translate(0,8.526512829121202e-14)"><rect height="34.80095162569389" width="10" id="r2" shape-rendering="crispEdges" style="fill: rgb(255, 235, 59); fill-opacity: 0.9; stroke-width: 0; stroke: rgb(124, 62, 6);"><title>MED(O):
212</title></rect><text x="16" y="17.400475812846945" dy=".35em" text-anchor="start" style="stroke-width: 0; font-family: serif; font-size: 15px; font-weight: 400; fill: rgb(0, 0, 0);">MED(O): 212</text></g><g class="node" transform="translate(566,53.78588421887389)"><rect height="72.2283901665345" width="10" id="r3" shape-rendering="crispEdges" style="fill: rgb(96, 125, 139); fill-opacity: 0.9; stroke-width: 0; stroke: rgb(124, 91, 58);"><title>CCELIB(D):
440</title></rect><text x="-6" y="36.11419508326725" dy=".35em" text-anchor="end" style="stroke-width: 0; font-family: serif; font-size: 15px; font-weight: 400; fill: rgb(0, 0, 0);">CCELIB(D): 440</text></g><g class="node" transform="translate(566,453.5971451229183)"><rect height="39.725614591593974" width="10" id="r4" shape-rendering="crispEdges" style="fill: rgb(244, 67, 54); fill-opacity: 0.9; stroke-width: 0; stroke: rgb(21, 78, 21);"><title>FASS(D):
242</title></rect><text x="-6" y="19.862807295796987" dy=".35em" text-anchor="end" style="stroke-width: 0; font-family: serif; font-size: 15px; font-weight: 400; fill: rgb(0, 0, 0);">FASS(D): 242</text></g><g class="node" transform="translate(0,209.4551942902459)"><rect height="49.7390959555908" width="10" id="r5" shape-rendering="crispEdges" style="fill: rgb(139, 195, 74); fill-opacity: 0.9; stroke-width: 0; stroke: rgb(74, 109, 67);"><title>YIH(O):
303</title></rect><text x="16" y="24.8695479777954" dy=".35em" text-anchor="start" style="stroke-width: 0; font-family: serif; font-size: 15px; font-weight: 400; fill: rgb(0, 0, 0);">YIH(O): 303</text></g><g class="node" transform="translate(566,285.73037272006343)"><rect height="9.84932593180016" width="10" id="r6" shape-rendering="crispEdges" style="fill: rgb(255, 152, 0); fill-opacity: 0.9; stroke-width: 0; stroke: rgb(104, 19, 19);"><title>SDE(D):
60</title></rect><text x="-6" y="4.92466296590008" dy=".35em" text-anchor="end" style="stroke-width: 0; font-family: serif; font-size: 15px; font-weight: 400; fill: rgb(0, 0, 0);">SDE(D): 60</text></g><g class="node" transform="translate(0,52.800951625693976)"><rect height="38.740681998413955" width="10" id="r7" shape-rendering="crispEdges" style="fill: rgb(244, 67, 54); fill-opacity: 0.9; stroke-width: 0; stroke: rgb(21, 78, 21);"><title>FASS(O):
236</title></rect><text x="16" y="19.370340999206977" dy=".35em" text-anchor="start" style="stroke-width: 0; font-family: serif; font-size: 15px; font-weight: 400; fill: rgb(0, 0, 0);">FASS(O): 236</text></g><g class="node" transform="translate(566,313.57969865186357)"><rect height="34.80095162569389" width="10" id="r8" shape-rendering="crispEdges" style="fill: rgb(255, 235, 59); fill-opacity: 0.9; stroke-width: 0; stroke: rgb(124, 62, 6);"><title>MED(D):
212</title></rect><text x="-6" y="17.400475812846945" dy=".35em" text-anchor="end" style="stroke-width: 0; font-family: serif; font-size: 15px; font-weight: 400; fill: rgb(0, 0, 0);">MED(D): 212</text></g><g class="node" transform="translate(566,244.58445678033303)"><rect height="23.145915939730372" width="10" id="r9" shape-rendering="crispEdges" style="fill: rgb(255, 152, 150); fill-opacity: 0.9; stroke-width: 0; stroke: rgb(124, 74, 73);"><title>BIZ(D):
141</title></rect><text x="-6" y="11.572957969865186" dy=".35em" text-anchor="end" style="stroke-width: 0; font-family: serif; font-size: 15px; font-weight: 400; fill: rgb(0, 0, 0);">BIZ(D): 141</text></g><g class="node" transform="translate(0,341.9785884218875)"><rect height="19.04203013481364" width="10" id="r10" shape-rendering="crispEdges" style="fill: rgb(121, 85, 72); fill-opacity: 0.9; stroke-width: 0; stroke: rgb(124, 74, 73);"><title>BIZ(O):
116</title></rect><text x="16" y="9.52101506740682" dy=".35em" text-anchor="start" style="stroke-width: 0; font-family: serif; font-size: 15px; font-weight: 400; fill: rgb(0, 0, 0);">BIZ(O): 116</text></g><g class="node" transform="translate(566,366.38065027755744)"><rect height="47.44091990483743" width="10" id="r11" shape-rendering="crispEdges" style="fill: rgb(139, 195, 74); fill-opacity: 0.9; stroke-width: 0; stroke: rgb(74, 109, 67);"><title>YIH(D):
289</title></rect><text x="-6" y="23.720459952418715" dy=".35em" text-anchor="end" style="stroke-width: 0; font-family: serif; font-size: 15px; font-weight: 400; fill: rgb(0, 0, 0);">YIH(D): 289</text></g><g class="node" transform="translate(0,545.8524980174465)"><rect height="9.19270420301348" width="10" id="r12" shape-rendering="crispEdges" style="fill: rgb(255, 152, 0); fill-opacity: 0.9; stroke-width: 0; stroke: rgb(104, 19, 19);"><title>SDE(O):
56</title></rect><text x="16" y="4.59635210150674" dy=".35em" text-anchor="start" style="stroke-width: 0; font-family: serif; font-size: 15px; font-weight: 400; fill: rgb(0, 0, 0);">SDE(O): 56</text></g><g class="node" transform="translate(0,277.1942902458367)"><rect height="46.784298176050754" width="10" id="r13" shape-rendering="crispEdges" style="fill: rgb(63, 81, 181); fill-opacity: 0.9; stroke-width: 0; stroke: rgb(85, 97, 113);"><title>SCI(O):
285</title></rect><text x="16" y="23.392149088025377" dy=".35em" text-anchor="start" style="stroke-width: 0; font-family: serif; font-size: 15px; font-weight: 400; fill: rgb(0, 0, 0);">SCI(O): 285</text></g><g class="node" transform="translate(0,109.54163362410793)"><rect height="81.91356066613798" width="10" id="r14" shape-rendering="crispEdges" style="fill: rgb(156, 39, 176); fill-opacity: 0.9; stroke-width: 0; stroke: rgb(72, 50, 92);"><title>FOE(O):
499</title></rect><text x="16" y="40.95678033306899" dy=".35em" text-anchor="start" style="stroke-width: 0; font-family: serif; font-size: 15px; font-weight: 400; fill: rgb(0, 0, 0);">FOE(O): 499</text></g><g class="node" transform="translate(566,431.82157018239485)"><rect height="3.775574940523394" width="10" id="r15" shape-rendering="crispEdges" style="fill: rgb(0, 150, 136); fill-opacity: 0.9; stroke-width: 0; stroke: rgb(15, 58, 88);"><title>YSTCM(D):
23</title></rect><text x="-6" y="1.887787470261697" dy=".35em" text-anchor="end" style="stroke-width: 0; font-family: serif; font-size: 15px; font-weight: 400; fill: rgb(0, 0, 0);">YSTCM(D): 23</text></g><g class="node" transform="translate(566,144.01427438540838)"><rect height="82.57018239492466" width="10" id="r16" shape-rendering="crispEdges" style="fill: rgb(3,169, 244); fill-opacity: 0.9; stroke-width: 0; stroke: rgb(96, 86, 104);"><title>UTown(D):
503</title></rect><text x="-6" y="41.28509119746233" dy=".35em" text-anchor="end" style="stroke-width: 0; font-family: serif; font-size: 15px; font-weight: 400; fill: rgb(0, 0, 0);">UTown(D): 503</text></g><g class="node" transform="translate(566,511.32275971451224)"><rect height="64.67724028548771" width="10" id="r17" shape-rendering="crispEdges" style="fill: rgb(156, 39, 176); fill-opacity: 0.9; stroke-width: 0; stroke: rgb(72, 50, 92);"><title>FOE(D):
394</title></rect><text x="-6" y="32.338620142743856" dy=".35em" text-anchor="end" style="stroke-width: 0; font-family: serif; font-size: 15px; font-weight: 400; fill: rgb(0, 0, 0);">FOE(D): 394</text></g><g class="node" transform="translate(0,457.7581284694687)"><rect height="70.09436954797779" width="10" id="r18" shape-rendering="crispEdges" style="fill: rgb(96, 125, 139); fill-opacity: 0.9; stroke-width: 0; stroke: rgb(124, 91, 58);"><title>CCELIB(O):
427</title></rect><text x="16" y="35.047184773988896" dy=".35em" text-anchor="start" style="stroke-width: 0; font-family: serif; font-size: 15px; font-weight: 400; fill: rgb(0, 0, 0);">CCELIB(O): 427</text></g><g class="node" transform="translate(0,379.0206185567011)"><rect height="60.73750991276764" width="10" id="r19" shape-rendering="crispEdges" style="fill: rgb(3,169, 244); fill-opacity: 0.9; stroke-width: 0; stroke: rgb(96, 86, 104);"><title>UTown(O):
370</title></rect><text x="16" y="30.36875495638382" dy=".35em" text-anchor="start" style="stroke-width: 0; font-family: serif; font-size: 15px; font-weight: 400; fill: rgb(0, 0, 0);">UTown(O): 370</text></g></g></g></g></svg>