<svg id="sankey_svg" height="600" width="600" xmlns="http://www.w3.org/2000/svg" version="1.1"><title>Your Diagram Title</title><!-- Generated with SankeyMATIC on Sat Dec 29 2018 16:25:45 GMT+0800 (Singapore Standard Time)--><g><rect width="100%" height="100%" fill="rgb(255, 255, 255)"></rect><g transform="translate(12,12)"><g><path class="link" d="M10,16.35126050420168C288,16.35126050420168 288,16.351260504201708 566,16.351260504201708" style="fill: none; stroke-width: 32.7025; stroke: rgb(255, 235, 59); stroke-opacity: 0.4;"><title>MED(O) &#8594; SCI(D):
188</title></path><path class="link" d="M10,242.21344537815125C288,242.21344537815125 288,195.67815126050422 566,195.67815126050422" style="fill: none; stroke-width: 26.4403; stroke: rgb(156, 39, 176); stroke-opacity: 0.4;"><title>FOE(O) &#8594; CCELIB(D):
152</title></path><path class="link" d="M10,276.394537815126C288,276.394537815126 288,407.0155462184874 566,407.0155462184874" style="fill: none; stroke-width: 22.4395; stroke: rgb(156, 39, 176); stroke-opacity: 0.4;"><title>FOE(O) &#8594; UTown(D):
129</title></path><path class="link" d="M10,563.5626050420167C288,563.5626050420167 288,522.0794117647058 566,522.0794117647058" style="fill: none; stroke-width: 21.0479; stroke: rgb(63, 81, 181); stroke-opacity: 0.4;"><title>SCI(O) &#8594; MED(D):
121</title></path><path class="link" d="M10,446.32815126050417C288,446.32815126050417 288,345.18025210084033 566,345.18025210084033" style="fill: none; stroke-width: 16.1773; stroke: rgb(96, 125, 139); stroke-opacity: 0.4;"><title>CCELIB(O) &#8594; FOE(D):
93</title></path><path class="link" d="M10,545.3848739495799C288,545.3848739495799 288,460.1571428571429 566,460.1571428571429" style="fill: none; stroke-width: 15.3076; stroke: rgb(63, 81, 181); stroke-opacity: 0.4;"><title>SCI(O) &#8594; UTown(D):
88</title></path><path class="link" d="M10,105.58361344537815C288,105.58361344537815 288,248.9029411764706 566,248.9029411764706" style="fill: none; stroke-width: 13.742; stroke: rgb(3, 169, 244); stroke-opacity: 0.4;"><title>UTown(O) &#8594; YIH(D):
79</title></path><path class="link" d="M10,348.2319327731092C288,348.2319327731092 288,424.8453781512605 566,424.8453781512605" style="fill: none; stroke-width: 13.2202; stroke: rgb(139, 195, 74); stroke-opacity: 0.4;"><title>YIH(O) &#8594; UTown(D):
76</title></path><path class="link" d="M10,171.85462184873947C288,171.85462184873947 288,176.02184873949582 566,176.02184873949582" style="fill: none; stroke-width: 12.8723; stroke: rgb(244, 67, 54); stroke-opacity: 0.4;"><title>FASS(O) &#8594; CCELIB(D):
74</title></path><path class="link" d="M10,130.8063025210084C288,130.8063025210084 288,492.16008403361343 566,492.16008403361343" style="fill: none; stroke-width: 12.6983; stroke: rgb(3, 169, 244); stroke-opacity: 0.4;"><title>UTown(O) &#8594; MED(D):
73</title></path><path class="link" d="M10,118.45588235294117C288,118.45588235294117 288,309.34663865546224 566,309.34663865546224" style="fill: none; stroke-width: 12.0025; stroke: rgb(3, 169, 244); stroke-opacity: 0.4;"><title>UTown(O) &#8594; FOE(D):
69</title></path><path class="link" d="M10,76.79495798319327C288,76.79495798319327 288,38.44285714285717 566,38.44285714285717" style="fill: none; stroke-width: 11.4807; stroke: rgb(3, 169, 244); stroke-opacity: 0.4;"><title>UTown(O) &#8594; SCI(D):
66</title></path><path class="link" d="M10,336.49033613445374C288,336.49033613445374 288,325.35 566,325.35" style="fill: none; stroke-width: 10.263; stroke: rgb(139, 195, 74); stroke-opacity: 0.4;"><title>YIH(O) &#8594; FOE(D):
59</title></path><path class="link" d="M10,468.7676470588235C288,468.7676470588235 288,564.9542016806722 566,564.9542016806722" style="fill: none; stroke-width: 10.263; stroke: rgb(96, 125, 139); stroke-opacity: 0.4;"><title>CCELIB(O) &#8594; FASS(D):
59</title></path><path class="link" d="M10,47.48823529411765C288,47.48823529411765 288,382.22773109243695 566,382.22773109243695" style="fill: none; stroke-width: 10.0891; stroke: rgb(255, 235, 59); stroke-opacity: 0.4;"><title>MED(O) &#8594; UTown(D):
58</title></path><path class="link" d="M10,260.30420168067224C288,260.30420168067224 288,265.1672268907563 566,265.1672268907563" style="fill: none; stroke-width: 9.74118; stroke: rgb(156, 39, 176); stroke-opacity: 0.4;"><title>FOE(O) &#8594; YIH(D):
56</title></path><path class="link" d="M10,191.9457983193277C288,191.9457983193277 288,391.5340336134454 566,391.5340336134454" style="fill: none; stroke-width: 8.52353; stroke: rgb(244, 67, 54); stroke-opacity: 0.4;"><title>FASS(O) &#8594; UTown(D):
49</title></path><path class="link" d="M10,458.59159663865546C288,458.59159663865546 288,442.24033613445374 566,442.24033613445374" style="fill: none; stroke-width: 8.34958; stroke: rgb(96, 125, 139); stroke-opacity: 0.4;"><title>CCELIB(O) &#8594; UTown(D):
48</title></path><path class="link" d="M10,291.35420168067225C288,291.35420168067225 288,502.77100840336135 566,502.77100840336135" style="fill: none; stroke-width: 7.47983; stroke: rgb(156, 39, 176); stroke-opacity: 0.4;"><title>FOE(O) &#8594; MED(D):
43</title></path><path class="link" d="M10,328.05378151260504C288,328.05378151260504 288,212.20336134453783 566,212.20336134453783" style="fill: none; stroke-width: 6.61008; stroke: rgb(139, 195, 74); stroke-opacity: 0.4;"><title>YIH(O) &#8594; CCELIB(D):
38</title></path><path class="link" d="M10,85.75336134453781C288,85.75336134453781 288,80.88277310924373 566,80.88277310924373" style="fill: none; stroke-width: 6.43613; stroke: rgb(3, 169, 244); stroke-opacity: 0.4;"><title>UTown(O) &#8594; BIZ(D):
37</title></path><path class="link" d="M10,404.75798319327725C288,404.75798319327725 288,333.9605042016807 566,333.9605042016807" style="fill: none; stroke-width: 6.26218; stroke: rgb(255, 152, 0); stroke-opacity: 0.4;"><title>SDE(O) &#8594; FOE(D):
36</title></path><path class="link" d="M10,502.42310924369747C288,502.42310924369747 288,449.459243697479 566,449.459243697479" style="fill: none; stroke-width: 6.08824; stroke: rgb(121, 85, 72); stroke-opacity: 0.4;"><title>BIZ(O) &#8594; UTown(D):
35</title></path><path class="link" d="M10,226.12310924369748C288,226.12310924369748 288,141.93151260504206 566,141.93151260504206" style="fill: none; stroke-width: 5.74034; stroke: rgb(156, 39, 176); stroke-opacity: 0.4;"><title>FOE(O) &#8594; SDE(D):
33</title></path><path class="link" d="M10,217.5126050420168C288,217.5126050420168 288,48.357983193277335 566,48.357983193277335" style="fill: none; stroke-width: 5.56639; stroke: rgb(156, 39, 176); stroke-opacity: 0.4;"><title>FOE(O) &#8594; SCI(D):
32</title></path><path class="link" d="M10,319.70420168067227C288,319.70420168067227 288,53.924369747899185 566,53.924369747899185" style="fill: none; stroke-width: 5.56639; stroke: rgb(139, 195, 74); stroke-opacity: 0.4;"><title>YIH(O) &#8594; SCI(D):
32</title></path><path class="link" d="M10,531.4689075630251C288,531.4689075630251 288,280.64873949579834 566,280.64873949579834" style="fill: none; stroke-width: 4.87059; stroke: rgb(63, 81, 181); stroke-opacity: 0.4;"><title>SCI(O) &#8594; YIH(D):
28</title></path><path class="link" d="M10,185.2487394957983C288,185.2487394957983 288,317.78319327731094 566,317.78319327731094" style="fill: none; stroke-width: 4.87059; stroke: rgb(244, 67, 54); stroke-opacity: 0.4;"><title>FASS(O) &#8594; FOE(D):
28</title></path><path class="link" d="M10,37.92100840336135C288,37.92100840336135 288,239.77058823529413 566,239.77058823529413" style="fill: none; stroke-width: 4.52269; stroke: rgb(255, 235, 59); stroke-opacity: 0.4;"><title>MED(O) &#8594; YIH(D):
26</title></path><path class="link" d="M10,180.55210084033612C288,180.55210084033612 288,258.0352941176471 566,258.0352941176471" style="fill: none; stroke-width: 4.52269; stroke: rgb(244, 67, 54); stroke-opacity: 0.4;"><title>FASS(O) &#8594; YIH(D):
26</title></path><path class="link" d="M10,410.06344537815124C288,410.06344537815124 288,435.8911764705882 566,435.8911764705882" style="fill: none; stroke-width: 4.34874; stroke: rgb(255, 152, 0); stroke-opacity: 0.4;"><title>SDE(O) &#8594; UTown(D):
25</title></path><path class="link" d="M10,436.1521008403361C288,436.1521008403361 288,273.86470588235295 566,273.86470588235295" style="fill: none; stroke-width: 4.17479; stroke: rgb(96, 125, 139); stroke-opacity: 0.4;"><title>CCELIB(O) &#8594; YIH(D):
24</title></path><path class="link" d="M10,162.46134453781514C288,162.46134453781514 288,86.18823529411769 566,86.18823529411769" style="fill: none; stroke-width: 4.17479; stroke: rgb(244, 67, 54); stroke-opacity: 0.4;"><title>FASS(O) &#8594; BIZ(D):
24</title></path><path class="link" d="M10,507.8155462184874C288,507.8155462184874 288,572.0861344537815 566,572.0861344537815" style="fill: none; stroke-width: 4.00084; stroke: rgb(121, 85, 72); stroke-opacity: 0.4;"><title>BIZ(O) &#8594; FASS(D):
23</title></path><path class="link" d="M10,96.79915966386554C288,96.79915966386554 288,167.67226890756305 566,167.67226890756305" style="fill: none; stroke-width: 3.82689; stroke: rgb(3, 169, 244); stroke-opacity: 0.4;"><title>UTown(O) &#8594; CCELIB(D):
22</title></path><path class="link" d="M10,535.8176470588235C288,535.8176470588235 288,357.26974789915965 566,357.26974789915965" style="fill: none; stroke-width: 3.82689; stroke: rgb(63, 81, 181); stroke-opacity: 0.4;"><title>SCI(O) &#8594; FOE(D):
22</title></path><path class="link" d="M10,297.00756302521006C288,297.00756302521006 288,556.8655462184873 566,556.8655462184873" style="fill: none; stroke-width: 3.82689; stroke: rgb(156, 39, 176); stroke-opacity: 0.4;"><title>FOE(O) &#8594; FASS(D):
22</title></path><path class="link" d="M10,139.06890756302522C288,139.06890756302522 288,553.0386554621848 566,553.0386554621848" style="fill: none; stroke-width: 3.82689; stroke: rgb(3, 169, 244); stroke-opacity: 0.4;"><title>UTown(O) &#8594; FASS(D):
22</title></path><path class="link" d="M10,356.7554621848739C288,356.7554621848739 288,508.42436974789916 566,508.42436974789916" style="fill: none; stroke-width: 3.82689; stroke: rgb(139, 195, 74); stroke-opacity: 0.4;"><title>YIH(O) &#8594; MED(D):
22</title></path><path class="link" d="M10,93.32016806722689C288,93.32016806722689 288,136.97394957983195 566,136.97394957983195" style="fill: none; stroke-width: 3.13109; stroke: rgb(3, 169, 244); stroke-opacity: 0.4;"><title>UTown(O) &#8594; SDE(D):
18</title></path><path class="link" d="M10,90.36302521008402C288,90.36302521008402 288,113.75546218487398 566,113.75546218487398" style="fill: none; stroke-width: 2.78319; stroke: rgb(3, 169, 244); stroke-opacity: 0.4;"><title>UTown(O) &#8594; YSTCM(D):
16</title></path><path class="link" d="M10,221.51344537815126C288,221.51344537815126 288,89.49327731092441 566,89.49327731092441" style="fill: none; stroke-width: 2.43529; stroke: rgb(156, 39, 176); stroke-opacity: 0.4;"><title>FOE(O) &#8594; BIZ(D):
14</title></path><path class="link" d="M10,41.313025210084035C288,41.313025210084035 288,302.214705882353 566,302.214705882353" style="fill: none; stroke-width: 2.26134; stroke: rgb(255, 235, 59); stroke-opacity: 0.4;"><title>MED(O) &#8594; FOE(D):
13</title></path><path class="link" d="M10,496.1609243697479C288,496.1609243697479 288,277.0827731092437 566,277.0827731092437" style="fill: none; stroke-width: 2.26134; stroke: rgb(121, 85, 72); stroke-opacity: 0.4;"><title>BIZ(O) &#8594; YIH(D):
13</title></path><path class="link" d="M10,493.8995798319328C288,493.8995798319328 288,217.68277310924373 566,217.68277310924373" style="fill: none; stroke-width: 2.26134; stroke: rgb(121, 85, 72); stroke-opacity: 0.4;"><title>BIZ(O) &#8594; CCELIB(D):
13</title></path><path class="link" d="M10,380.93067226890753C288,380.93067226890753 288,432.58613445378154 566,432.58613445378154" style="fill: none; stroke-width: 2.26134; stroke: rgb(0, 150, 136); stroke-opacity: 0.4;"><title>YSTCM(O) &#8594; UTown(D):
13</title></path><path class="link" d="M10,498.33529411764704C288,498.33529411764704 288,354.3126050420168 566,354.3126050420168" style="fill: none; stroke-width: 2.08739; stroke: rgb(121, 85, 72); stroke-opacity: 0.4;"><title>BIZ(O) &#8594; FOE(D):
12</title></path><path class="link" d="M10,575.0432773109243C288,575.0432773109243 288,575.0432773109243 566,575.0432773109243" style="fill: none; stroke-width: 1.91345; stroke: rgb(63, 81, 181); stroke-opacity: 0.4;"><title>SCI(O) &#8594; FASS(D):
11</title></path><path class="link" d="M10,432.2382352941176C288,432.2382352941176 288,92.88529411764709 566,92.88529411764709" style="fill: none; stroke-width: 1.56555; stroke: rgb(96, 125, 139); stroke-opacity: 0.4;"><title>CCELIB(O) &#8594; BIZ(D):
9</title></path><path class="link" d="M10,34.87689075630252C288,34.87689075630252 288,164.9760504201681 566,164.9760504201681" style="fill: none; stroke-width: 1.56555; stroke: rgb(255, 235, 59); stroke-opacity: 0.4;"><title>MED(O) &#8594; CCELIB(D):
9</title></path><path class="link" d="M10,159.6781512605042C288,159.6781512605042 288,44.87899159663868 566,44.87899159663868" style="fill: none; stroke-width: 1.3916; stroke: rgb(244, 67, 54); stroke-opacity: 0.4;"><title>FASS(O) &#8594; SCI(D):
8</title></path><path class="link" d="M10,323.09621848739494C288,323.09621848739494 288,91.3197478991597 566,91.3197478991597" style="fill: none; stroke-width: 1.21765; stroke: rgb(139, 195, 74); stroke-opacity: 0.4;"><title>YIH(O) &#8594; BIZ(D):
7</title></path><path class="link" d="M10,430.8466386554622C288,430.8466386554622 288,57.49033613445381 566,57.49033613445381" style="fill: none; stroke-width: 1.21765; stroke: rgb(96, 125, 139); stroke-opacity: 0.4;"><title>CCELIB(O) &#8594; SCI(D):
7</title></path><path class="link" d="M10,378.84327731092435C288,378.84327731092435 288,270.6466386554622 566,270.6466386554622" style="fill: none; stroke-width: 1.21765; stroke: rgb(0, 150, 136); stroke-opacity: 0.4;"><title>YSTCM(O) &#8594; YIH(D):
7</title></path><path class="link" d="M10,359.190756302521C288,359.190756302521 288,559.3008403361345 566,559.3008403361345" style="fill: none; stroke-width: 1.0437; stroke: rgb(139, 195, 74); stroke-opacity: 0.4;"><title>YIH(O) &#8594; FASS(D):
6</title></path><path class="link" d="M10,433.6298319327731C288,433.6298319327731 288,145.75840336134456 566,145.75840336134456" style="fill: none; stroke-width: 1; stroke: rgb(96, 125, 139); stroke-opacity: 0.4;"><title>CCELIB(O) &#8594; SDE(D):
5</title></path><path class="link" d="M10,400.6701680672268C288,400.6701680672268 288,216.11722689075634 566,216.11722689075634" style="fill: none; stroke-width: 1; stroke: rgb(255, 152, 0); stroke-opacity: 0.4;"><title>SDE(O) &#8594; CCELIB(D):
5</title></path><path class="link" d="M10,463.2012605042016C288,463.2012605042016 288,510.77268907563024 566,510.77268907563024" style="fill: none; stroke-width: 1; stroke: rgb(96, 125, 139); stroke-opacity: 0.4;"><title>CCELIB(O) &#8594; MED(D):
5</title></path><path class="link" d="M10,33.13739495798319C288,33.13739495798319 288,77.22983193277315 566,77.22983193277315" style="fill: none; stroke-width: 1; stroke: rgb(255, 235, 59); stroke-opacity: 0.4;"><title>MED(O) &#8594; BIZ(D):
5</title></path><path class="link" d="M10,492.2470588235294C288,492.2470588235294 288,58.447058823529446 566,58.447058823529446" style="fill: none; stroke-width: 1; stroke: rgb(121, 85, 72); stroke-opacity: 0.4;"><title>BIZ(O) &#8594; SCI(D):
4</title></path><path class="link" d="M10,528.6857142857142C288,528.6857142857142 288,219.16134453781515 566,219.16134453781515" style="fill: none; stroke-width: 1; stroke: rgb(63, 81, 181); stroke-opacity: 0.4;"><title>SCI(O) &#8594; CCELIB(D):
4</title></path><path class="link" d="M10,324.4878151260504C288,324.4878151260504 288,145.06260504201683 566,145.06260504201683" style="fill: none; stroke-width: 1; stroke: rgb(139, 195, 74); stroke-opacity: 0.4;"><title>YIH(O) &#8594; SDE(D):
3</title></path><path class="link" d="M10,323.9659663865546C288,323.9659663865546 288,116.27773109243701 566,116.27773109243701" style="fill: none; stroke-width: 1; stroke: rgb(139, 195, 74); stroke-opacity: 0.4;"><title>YIH(O) &#8594; YSTCM(D):
3</title></path><path class="link" d="M10,52.793697478991604C288,52.793697478991604 288,550.8642857142858 566,550.8642857142858" style="fill: none; stroke-width: 1; stroke: rgb(255, 235, 59); stroke-opacity: 0.4;"><title>MED(O) &#8594; FASS(D):
3</title></path><path class="link" d="M10,165.15756302521007C288,165.15756302521007 288,138.80042016806723 566,138.80042016806723" style="fill: none; stroke-width: 1; stroke: rgb(244, 67, 54); stroke-opacity: 0.4;"><title>FASS(O) &#8594; SDE(D):
3</title></path><path class="link" d="M10,222.9920168067227C288,222.9920168067227 288,115.7558823529412 566,115.7558823529412" style="fill: none; stroke-width: 1; stroke: rgb(156, 39, 176); stroke-opacity: 0.4;"><title>FOE(O) &#8594; YSTCM(D):
3</title></path><path class="link" d="M10,196.46848739495795C288,196.46848739495795 288,498.7701680672269 566,498.7701680672269" style="fill: none; stroke-width: 1; stroke: rgb(244, 67, 54); stroke-opacity: 0.4;"><title>FASS(O) &#8594; MED(D):
3</title></path><path class="link" d="M10,401.3659663865546C288,401.3659663865546 288,271.5163865546219 566,271.5163865546219" style="fill: none; stroke-width: 1; stroke: rgb(255, 152, 0); stroke-opacity: 0.4;"><title>SDE(O) &#8594; YIH(D):
3</title></path><path class="link" d="M10,527.9899159663865C288,527.9899159663865 288,93.84201680672273 566,93.84201680672273" style="fill: none; stroke-width: 1; stroke: rgb(63, 81, 181); stroke-opacity: 0.4;"><title>SCI(O) &#8594; BIZ(D):
2</title></path><path class="link" d="M10,33.746218487394955C288,33.746218487394955 288,112.18991596638658 566,112.18991596638658" style="fill: none; stroke-width: 1; stroke: rgb(255, 235, 59); stroke-opacity: 0.4;"><title>MED(O) &#8594; YSTCM(D):
2</title></path><path class="link" d="M10,379.62605042016804C288,379.62605042016804 288,330.65546218487395 566,330.65546218487395" style="fill: none; stroke-width: 1; stroke: rgb(0, 150, 136); stroke-opacity: 0.4;"><title>YSTCM(O) &#8594; FOE(D):
2</title></path><path class="link" d="M10,505.6411764705882C288,505.6411764705882 288,511.381512605042 566,511.381512605042" style="fill: none; stroke-width: 1; stroke: rgb(121, 85, 72); stroke-opacity: 0.4;"><title>BIZ(O) &#8594; MED(D):
2</title></path><path class="link" d="M10,164.72268907563026C288,164.72268907563026 288,115.32100840336138 566,115.32100840336138" style="fill: none; stroke-width: 1; stroke: rgb(244, 67, 54); stroke-opacity: 0.4;"><title>FASS(O) &#8594; YSTCM(D):
2</title></path><path class="link" d="M10,377.79957983193276C288,377.79957983193276 288,56.79453781512608 566,56.79453781512608" style="fill: none; stroke-width: 1; stroke: rgb(0, 150, 136); stroke-opacity: 0.4;"><title>YSTCM(O) &#8594; SCI(D):
1</title></path><path class="link" d="M10,377.9735294117647C288,377.9735294117647 288,92.01554621848743 566,92.01554621848743" style="fill: none; stroke-width: 1; stroke: rgb(0, 150, 136); stroke-opacity: 0.4;"><title>YSTCM(O) &#8594; BIZ(D):
1</title></path><path class="link" d="M10,400.1483193277311C288,400.1483193277311 288,116.62563025210088 566,116.62563025210088" style="fill: none; stroke-width: 1; stroke: rgb(255, 152, 0); stroke-opacity: 0.4;"><title>SDE(O) &#8594; YSTCM(D):
1</title></path><path class="link" d="M10,433.10798319327733C288,433.10798319327733 288,116.7995798319328 566,116.7995798319328" style="fill: none; stroke-width: 1; stroke: rgb(96, 125, 139); stroke-opacity: 0.4;"><title>CCELIB(O) &#8594; YSTCM(D):
1</title></path><path class="link" d="M10,528.2508403361344C288,528.2508403361344 288,117.14747899159667 566,117.14747899159667" style="fill: none; stroke-width: 1; stroke: rgb(63, 81, 181); stroke-opacity: 0.4;"><title>SCI(O) &#8594; YSTCM(D):
1</title></path><path class="link" d="M10,34.00714285714285C288,34.00714285714285 288,135.32142857142858 566,135.32142857142858" style="fill: none; stroke-width: 1; stroke: rgb(255, 235, 59); stroke-opacity: 0.4;"><title>MED(O) &#8594; SDE(D):
1</title></path><path class="link" d="M10,492.6819327731092C288,492.6819327731092 288,116.97352941176474 566,116.97352941176474" style="fill: none; stroke-width: 1; stroke: rgb(121, 85, 72); stroke-opacity: 0.4;"><title>BIZ(O) &#8594; YSTCM(D):
1</title></path><path class="link" d="M10,378.14747899159664C288,378.14747899159664 288,215.59537815126052 566,215.59537815126052" style="fill: none; stroke-width: 1; stroke: rgb(0, 150, 136); stroke-opacity: 0.4;"><title>YSTCM(O) &#8594; CCELIB(D):
1</title></path></g><g><g class="node" transform="translate(0,377.7126050420168)"><rect height="4.348739495798319" width="10" id="r0" shape-rendering="crispEdges" style="fill: rgb(0, 150, 136); fill-opacity: 0.9; stroke-width: 0; stroke: rgb(15, 58, 88);"><title>YSTCM(O):
25</title></rect><text x="16" y="2.1743697478991595" dy=".35em" text-anchor="start" style="stroke-width: 0; font-family: serif; font-size: 15px; font-weight: 400; fill: rgb(0, 0, 0);">YSTCM(O): 25</text></g><g class="node" transform="translate(566,2.842170943040401e-14)"><rect height="58.79495798319328" width="10" id="r1" shape-rendering="crispEdges" style="fill: rgb(63, 81, 181); fill-opacity: 0.9; stroke-width: 0; stroke: rgb(85, 97, 113);"><title>SCI(D):
338</title></rect><text x="-6" y="29.39747899159664" dy=".35em" text-anchor="end" style="stroke-width: 0; font-family: serif; font-size: 15px; font-weight: 400; fill: rgb(0, 0, 0);">SCI(D): 338</text></g><g class="node" transform="translate(566,76.79495798319331)"><rect height="17.221008403361346" width="10" id="r2" shape-rendering="crispEdges" style="fill: rgb(121, 85, 72); fill-opacity: 0.9; stroke-width: 0; stroke: rgb(124, 62, 6);"><title>BIZ(D):
99</title></rect><text x="-6" y="8.610504201680673" dy=".35em" text-anchor="end" style="stroke-width: 0; font-family: serif; font-size: 15px; font-weight: 400; fill: rgb(0, 0, 0);">BIZ(D): 99</text></g><g class="node" transform="translate(0,400.0613445378151)"><rect height="12.176470588235293" width="10" id="r3" shape-rendering="crispEdges" style="fill: rgb(255, 152, 0); fill-opacity: 0.9; stroke-width: 0; stroke: rgb(124, 91, 58);"><title>SDE(O):
70</title></rect><text x="16" y="6.088235294117647" dy=".35em" text-anchor="start" style="stroke-width: 0; font-family: serif; font-size: 15px; font-weight: 400; fill: rgb(0, 0, 0);">SDE(O): 70</text></g><g class="node" transform="translate(566,112.01596638655465)"><rect height="5.218487394957983" width="10" id="r4" shape-rendering="crispEdges" style="fill: rgb(0, 150, 136); fill-opacity: 0.9; stroke-width: 0; stroke: rgb(15, 58, 88);"><title>YSTCM(D):
30</title></rect><text x="-6" y="2.6092436974789917" dy=".35em" text-anchor="end" style="stroke-width: 0; font-family: serif; font-size: 15px; font-weight: 400; fill: rgb(0, 0, 0);">YSTCM(D): 30</text></g><g class="node" transform="translate(0,430.2378151260504)"><rect height="43.661344537815125" width="10" id="r5" shape-rendering="crispEdges" style="fill: rgb(96, 125, 139); fill-opacity: 0.9; stroke-width: 0; stroke: rgb(21, 78, 21);"><title>CCELIB(O):
251</title></rect><text x="16" y="21.830672268907563" dy=".35em" text-anchor="start" style="stroke-width: 0; font-family: serif; font-size: 15px; font-weight: 400; fill: rgb(0, 0, 0);">CCELIB(O): 251</text></g><g class="node" transform="translate(0,527.8159663865546)"><rect height="48.18403361344538" width="10" id="r6" shape-rendering="crispEdges" style="fill: rgb(63, 81, 181); fill-opacity: 0.9; stroke-width: 0; stroke: rgb(85, 97, 113);"><title>SCI(O):
277</title></rect><text x="16" y="24.09201680672269" dy=".35em" text-anchor="start" style="stroke-width: 0; font-family: serif; font-size: 15px; font-weight: 400; fill: rgb(0, 0, 0);">SCI(O): 277</text></g><g class="node" transform="translate(0,0)"><rect height="53.054621848739494" width="10" id="r7" shape-rendering="crispEdges" style="fill: rgb(255, 235, 59); fill-opacity: 0.9; stroke-width: 0; stroke: rgb(74, 109, 67);"><title>MED(O):
305</title></rect><text x="16" y="26.527310924369747" dy=".35em" text-anchor="start" style="stroke-width: 0; font-family: serif; font-size: 15px; font-weight: 400; fill: rgb(0, 0, 0);">MED(O): 305</text></g><g class="node" transform="translate(566,135.23445378151263)"><rect height="10.958823529411765" width="10" id="r8" shape-rendering="crispEdges" style="fill: rgb(255, 152, 0); fill-opacity: 0.9; stroke-width: 0; stroke: rgb(124, 91, 58);"><title>SDE(D):
63</title></rect><text x="-6" y="5.479411764705882" dy=".35em" text-anchor="end" style="stroke-width: 0; font-family: serif; font-size: 15px; font-weight: 400; fill: rgb(0, 0, 0);">SDE(D): 63</text></g><g class="node" transform="translate(0,491.89915966386553)"><rect height="17.916806722689074" width="10" id="r9" shape-rendering="crispEdges" style="fill: rgb(121, 85, 72); fill-opacity: 0.9; stroke-width: 0; stroke: rgb(124, 62, 6);"><title>BIZ(O):
103</title></rect><text x="16" y="8.958403361344537" dy=".35em" text-anchor="start" style="stroke-width: 0; font-family: serif; font-size: 15px; font-weight: 400; fill: rgb(0, 0, 0);">BIZ(O): 103</text></g><g class="node" transform="translate(566,164.1932773109244)"><rect height="55.31596638655462" width="10" id="r10" shape-rendering="crispEdges" style="fill: rgb(96, 125, 139); fill-opacity: 0.9; stroke-width: 0; stroke: rgb(21, 78, 21);"><title>CCELIB(D):
318</title></rect><text x="-6" y="27.65798319327731" dy=".35em" text-anchor="end" style="stroke-width: 0; font-family: serif; font-size: 15px; font-weight: 400; fill: rgb(0, 0, 0);">CCELIB(D): 318</text></g><g class="node" transform="translate(566,301.0840336134454)"><rect height="58.09915966386554" width="10" id="r11" shape-rendering="crispEdges" style="fill: rgb(156, 39, 176); fill-opacity: 0.9; stroke-width: 0; stroke: rgb(104, 19, 19);"><title>FOE(D):
334</title></rect><text x="-6" y="29.04957983193277" dy=".35em" text-anchor="end" style="stroke-width: 0; font-family: serif; font-size: 15px; font-weight: 400; fill: rgb(0, 0, 0);">FOE(D): 334</text></g><g class="node" transform="translate(566,485.8109243697479)"><rect height="46.792436974789915" width="10" id="r12" shape-rendering="crispEdges" style="fill: rgb(255, 235, 59); fill-opacity: 0.9; stroke-width: 0; stroke: rgb(74, 109, 67);"><title>MED(D):
269</title></rect><text x="-6" y="23.396218487394957" dy=".35em" text-anchor="end" style="stroke-width: 0; font-family: serif; font-size: 15px; font-weight: 400; fill: rgb(0, 0, 0);">MED(D): 269</text></g><g class="node" transform="translate(0,158.98235294117646)"><rect height="37.74705882352941" width="10" id="r13" shape-rendering="crispEdges" style="fill: rgb(244, 67, 54); fill-opacity: 0.9; stroke-width: 0; stroke: rgb(124, 74, 73);"><title>FASS(O):
217</title></rect><text x="16" y="18.873529411764704" dy=".35em" text-anchor="start" style="stroke-width: 0; font-family: serif; font-size: 15px; font-weight: 400; fill: rgb(0, 0, 0);">FASS(O): 217</text></g><g class="node" transform="translate(0,316.9210084033613)"><rect height="42.79159663865546" width="10" id="r14" shape-rendering="crispEdges" style="fill: rgb(139, 195, 74); fill-opacity: 0.9; stroke-width: 0; stroke: rgb(72, 50, 92);"><title>YIH(O):
246</title></rect><text x="16" y="21.39579831932773" dy=".35em" text-anchor="start" style="stroke-width: 0; font-family: serif; font-size: 15px; font-weight: 400; fill: rgb(0, 0, 0);">YIH(O): 246</text></g><g class="node" transform="translate(566,550.6033613445378)"><rect height="25.396638655462183" width="10" id="r15" shape-rendering="crispEdges" style="fill: rgb(244, 67, 54); fill-opacity: 0.9; stroke-width: 0; stroke: rgb(124, 74, 73);"><title>FASS(D):
146</title></rect><text x="-6" y="12.698319327731092" dy=".35em" text-anchor="end" style="stroke-width: 0; font-family: serif; font-size: 15px; font-weight: 400; fill: rgb(0, 0, 0);">FASS(D): 146</text></g><g class="node" transform="translate(0,214.72941176470587)"><rect height="84.19159663865545" width="10" id="r16" shape-rendering="crispEdges" style="fill: rgb(156, 39, 176); fill-opacity: 0.9; stroke-width: 0; stroke: rgb(104, 19, 19);"><title>FOE(O):
484</title></rect><text x="16" y="42.09579831932773" dy=".35em" text-anchor="start" style="stroke-width: 0; font-family: serif; font-size: 15px; font-weight: 400; fill: rgb(0, 0, 0);">FOE(O): 484</text></g><g class="node" transform="translate(566,237.509243697479)"><rect height="45.574789915966385" width="10" id="r17" shape-rendering="crispEdges" style="fill: rgb(139, 195, 74); fill-opacity: 0.9; stroke-width: 0; stroke: rgb(72, 50, 92);"><title>YIH(D):
262</title></rect><text x="-6" y="22.787394957983192" dy=".35em" text-anchor="end" style="stroke-width: 0; font-family: serif; font-size: 15px; font-weight: 400; fill: rgb(0, 0, 0);">YIH(D): 262</text></g><g class="node" transform="translate(566,377.1831932773109)"><rect height="90.62773109243697" width="10" id="r18" shape-rendering="crispEdges" style="fill: rgb(3, 169, 244); fill-opacity: 0.9; stroke-width: 0; stroke: rgb(96, 86, 104);"><title>UTown(D):
521</title></rect><text x="-6" y="45.31386554621849" dy=".35em" text-anchor="end" style="stroke-width: 0; font-family: serif; font-size: 15px; font-weight: 400; fill: rgb(0, 0, 0);">UTown(D): 521</text></g><g class="node" transform="translate(0,71.05462184873949)"><rect height="69.92773109243697" width="10" id="r19" shape-rendering="crispEdges" style="fill: rgb(3, 169, 244); fill-opacity: 0.9; stroke-width: 0; stroke: rgb(96, 86, 104);"><title>UTown(O):
402</title></rect><text x="16" y="34.963865546218486" dy=".35em" text-anchor="start" style="stroke-width: 0; font-family: serif; font-size: 15px; font-weight: 400; fill: rgb(0, 0, 0);">UTown(O): 402</text></g></g></g></g></svg>